<svg width="291" height="424" viewBox="0 0 291 424" fill="none" xmlns="http://www.w3.org/2000/svg">
<rect y="87" width="66" height="66" rx="8" fill="#F1403F"/>
<rect width="66" height="66" rx="8" fill="#E1A0F8"/>
<rect x="148" y="87" width="143" height="66" rx="8" fill="#F1403F"/>
<rect x="148" width="143" height="66" rx="8" fill="#E1A0F8"/>
<rect y="174" width="66" height="66" rx="8" fill="#19CD77"/>
<rect x="148" y="174" width="143" height="66" rx="8" fill="#19CD77"/>
<rect y="266" width="66" height="66" rx="8" fill="#E8D71E"/>
<rect x="148" y="266" width="143" height="66" rx="8" fill="#E8D71E"/>
<rect y="358" width="66" height="66" rx="8" fill="#63B4EF"/>
<rect x="148" y="358" width="143" height="66" rx="8" fill="#63B4EF"/>
<path d="M10.9 126.8H20.78V124.48H14.88C17.2 122.52 20.46 119.88 20.46 116.5C20.46 113.96 18.88 112.1 15.74 112.1C13.12 112.1 10.98 113.64 10.88 116.98H13.6C13.62 115.44 14.36 114.48 15.7 114.48C17.08 114.48 17.66 115.36 17.66 116.66C17.66 119.34 14.2 121.92 10.9 124.72V126.8ZM22.5444 119.52C22.5444 123.78 23.8244 126.96 27.9444 126.96C32.0644 126.96 33.3444 123.78 33.3444 119.52C33.3444 115.3 32.0644 112.14 27.9444 112.14C23.8244 112.14 22.5444 115.3 22.5444 119.52ZM30.5844 119.52C30.5844 122.12 30.3044 124.36 27.9444 124.36C25.5844 124.36 25.3044 122.12 25.3044 119.52C25.3044 117.02 25.5844 114.74 27.9444 114.74C30.3044 114.74 30.5844 117.02 30.5844 119.52ZM37.0741 127H39.9541V112.42H35.1341V115H37.0741V127ZM43.3602 122.9C43.5202 125.04 45.0002 127.02 48.1002 127.02C51.9602 127.02 53.0602 124.34 53.0602 119.38C53.0602 114.76 51.8402 112.08 47.8802 112.08C44.8002 112.08 42.9602 114 42.9602 116.92C42.9602 120 44.9802 121.58 47.5002 121.58C48.7802 121.58 49.9602 121.08 50.5802 120.22C50.5802 123.5 49.8602 124.72 48.2202 124.72C46.9202 124.72 46.1802 124.06 45.9602 122.9H43.3602ZM48.0802 119.3C46.3802 119.3 45.6402 118.22 45.6402 116.9C45.6402 115.44 46.5202 114.46 47.9802 114.46C49.4002 114.46 50.3202 115.34 50.3202 116.94C50.3202 118.36 49.4802 119.3 48.0802 119.3Z" fill="white"/>
<path d="M10.9 39.8H20.78V37.48H14.88C17.2 35.52 20.46 32.88 20.46 29.5C20.46 26.96 18.88 25.1 15.74 25.1C13.12 25.1 10.98 26.64 10.88 29.98H13.6C13.62 28.44 14.36 27.48 15.7 27.48C17.08 27.48 17.66 28.36 17.66 29.66C17.66 32.34 14.2 34.92 10.9 37.72V39.8ZM22.5444 32.52C22.5444 36.78 23.8244 39.96 27.9444 39.96C32.0644 39.96 33.3444 36.78 33.3444 32.52C33.3444 28.3 32.0644 25.14 27.9444 25.14C23.8244 25.14 22.5444 28.3 22.5444 32.52ZM30.5844 32.52C30.5844 35.12 30.3044 37.36 27.9444 37.36C25.5844 37.36 25.3044 35.12 25.3044 32.52C25.3044 30.02 25.5844 27.74 27.9444 27.74C30.3044 27.74 30.5844 30.02 30.5844 32.52ZM37.0741 40H39.9541V25.42H35.1341V28H37.0741V40ZM45.1602 32.28C43.7202 32.88 42.8202 34.14 42.8202 35.86C42.8202 38.64 45.1002 40.32 48.0802 40.32C51.0802 40.32 53.3602 38.64 53.3602 35.86C53.3602 34.16 52.4602 32.9 51.0202 32.28C52.1602 31.7 53.0002 30.6 53.0002 29.06C53.0002 26.98 51.4002 25.14 48.0802 25.14C44.7602 25.14 43.1602 26.96 43.1602 29.06C43.1602 30.64 43.9602 31.66 45.1602 32.28ZM48.0802 31.46C46.8202 31.46 45.9002 30.68 45.9002 29.48C45.9002 28.12 46.7802 27.4 48.0802 27.4C49.4202 27.4 50.2802 28.14 50.2802 29.46C50.2802 30.66 49.3602 31.46 48.0802 31.46ZM48.0802 33.5C49.5802 33.5 50.6202 34.3 50.6202 35.74C50.6202 37.02 49.6802 38 48.0802 38C46.4802 38 45.5202 37.04 45.5202 35.74C45.5202 34.26 46.6202 33.5 48.0802 33.5Z" fill="white"/>
<path d="M8.9 213.8H18.78V211.48H12.88C15.2 209.52 18.46 206.88 18.46 203.5C18.46 200.96 16.88 199.1 13.74 199.1C11.12 199.1 8.98 200.64 8.88 203.98H11.6C11.62 202.44 12.36 201.48 13.7 201.48C15.08 201.48 15.66 202.36 15.66 203.66C15.66 206.34 12.2 208.92 8.9 211.72V213.8ZM20.5444 206.52C20.5444 210.78 21.8244 213.96 25.9444 213.96C30.0644 213.96 31.3444 210.78 31.3444 206.52C31.3444 202.3 30.0644 199.14 25.9444 199.14C21.8244 199.14 20.5444 202.3 20.5444 206.52ZM28.5844 206.52C28.5844 209.12 28.3044 211.36 25.9444 211.36C23.5844 211.36 23.3044 209.12 23.3044 206.52C23.3044 204.02 23.5844 201.74 25.9444 201.74C28.3044 201.74 28.5844 204.02 28.5844 206.52ZM33.3141 213.8H43.1941V211.48H37.2941C39.6141 209.52 42.8741 206.88 42.8741 203.5C42.8741 200.96 41.2941 199.1 38.1541 199.1C35.5341 199.1 33.3941 200.64 33.2941 203.98H36.0141C36.0341 202.44 36.7741 201.48 38.1141 201.48C39.4941 201.48 40.0741 202.36 40.0741 203.66C40.0741 206.34 36.6141 208.92 33.3141 211.72V213.8ZM44.9584 206.52C44.9584 210.78 46.2384 213.96 50.3584 213.96C54.4784 213.96 55.7584 210.78 55.7584 206.52C55.7584 202.3 54.4784 199.14 50.3584 199.14C46.2384 199.14 44.9584 202.3 44.9584 206.52ZM52.9984 206.52C52.9984 209.12 52.7184 211.36 50.3584 211.36C47.9984 211.36 47.7184 209.12 47.7184 206.52C47.7184 204.02 47.9984 201.74 50.3584 201.74C52.7184 201.74 52.9984 204.02 52.9984 206.52Z" fill="white"/>
<path d="M11.9 305.8H21.78V303.48H15.88C18.2 301.52 21.46 298.88 21.46 295.5C21.46 292.96 19.88 291.1 16.74 291.1C14.12 291.1 11.98 292.64 11.88 295.98H14.6C14.62 294.44 15.36 293.48 16.7 293.48C18.08 293.48 18.66 294.36 18.66 295.66C18.66 298.34 15.2 300.92 11.9 303.72V305.8ZM23.5444 298.52C23.5444 302.78 24.8244 305.96 28.9444 305.96C33.0644 305.96 34.3444 302.78 34.3444 298.52C34.3444 294.3 33.0644 291.14 28.9444 291.14C24.8244 291.14 23.5444 294.3 23.5444 298.52ZM31.5844 298.52C31.5844 301.12 31.3044 303.36 28.9444 303.36C26.5844 303.36 26.3044 301.12 26.3044 298.52C26.3044 296.02 26.5844 293.74 28.9444 293.74C31.3044 293.74 31.5844 296.02 31.5844 298.52ZM36.3141 305.8H46.1941V303.48H40.2941C42.6141 301.52 45.8741 298.88 45.8741 295.5C45.8741 292.96 44.2941 291.1 41.1541 291.1C38.5341 291.1 36.3941 292.64 36.2941 295.98H39.0141C39.0341 294.44 39.7741 293.48 41.1141 293.48C42.4941 293.48 43.0741 294.36 43.0741 295.66C43.0741 298.34 39.6141 300.92 36.3141 303.72V305.8ZM49.5584 306H52.4384V291.42H47.6184V294H49.5584V306Z" fill="white"/>
<path d="M9.9 396.8H19.78V394.48H13.88C16.2 392.52 19.46 389.88 19.46 386.5C19.46 383.96 17.88 382.1 14.74 382.1C12.12 382.1 9.98 383.64 9.88 386.98H12.6C12.62 385.44 13.36 384.48 14.7 384.48C16.08 384.48 16.66 385.36 16.66 386.66C16.66 389.34 13.2 391.92 9.9 394.72V396.8ZM21.5444 389.52C21.5444 393.78 22.8244 396.96 26.9444 396.96C31.0644 396.96 32.3444 393.78 32.3444 389.52C32.3444 385.3 31.0644 382.14 26.9444 382.14C22.8244 382.14 21.5444 385.3 21.5444 389.52ZM29.5844 389.52C29.5844 392.12 29.3044 394.36 26.9444 394.36C24.5844 394.36 24.3044 392.12 24.3044 389.52C24.3044 387.02 24.5844 384.74 26.9444 384.74C29.3044 384.74 29.5844 387.02 29.5844 389.52ZM34.3141 396.8H44.1941V394.48H38.2941C40.6141 392.52 43.8741 389.88 43.8741 386.5C43.8741 383.96 42.2941 382.1 39.1541 382.1C36.5341 382.1 34.3941 383.64 34.2941 386.98H37.0141C37.0341 385.44 37.7741 384.48 39.1141 384.48C40.4941 384.48 41.0741 385.36 41.0741 386.66C41.0741 389.34 37.6141 391.92 34.3141 394.72V396.8ZM45.7984 396.8H55.6784V394.48H49.7784C52.0984 392.52 55.3584 389.88 55.3584 386.5C55.3584 383.96 53.7784 382.1 50.6384 382.1C48.0184 382.1 45.8784 383.64 45.7784 386.98H48.4984C48.5184 385.44 49.2584 384.48 50.5984 384.48C51.9784 384.48 52.5584 385.36 52.5584 386.66C52.5584 389.34 49.0984 391.92 45.7984 394.72V396.8Z" fill="white"/>
<path d="M163.84 110.552V113.432H172.048L165.616 128H169.024L175.408 113.048V110.552H163.84ZM177.468 115.112H180.756C180.876 114.008 181.572 112.952 183.204 112.952C184.74 112.952 185.58 113.768 185.58 115.136C185.58 116.864 184.14 117.416 182.172 117.416H181.476V120.176H182.172C184.668 120.176 185.916 120.896 185.916 122.864C185.916 124.256 185.052 125.312 183.372 125.312C181.572 125.312 180.564 124.232 180.492 122.72H177.228C177.372 126.392 179.988 128.12 183.444 128.12C187.116 128.12 189.132 126.008 189.132 123.152C189.132 120.776 187.956 119.336 186.18 118.784V118.688C187.452 118.256 188.82 116.912 188.82 114.728C188.82 112.136 186.9 110.096 183.3 110.096C179.94 110.096 177.636 111.872 177.468 115.112ZM201.25 116.648V110.24H197.89V128H201.25V126.104C202.066 127.256 203.554 128.216 205.642 128.216C209.05 128.216 211.714 125.456 211.714 121.304C211.714 117.152 209.05 114.488 205.642 114.488C203.626 114.488 202.066 115.424 201.25 116.648ZM208.282 121.304C208.282 123.824 206.578 125.264 204.754 125.264C202.954 125.264 201.25 123.872 201.25 121.352C201.25 118.832 202.954 117.44 204.754 117.44C206.578 117.44 208.282 118.784 208.282 121.304ZM213.292 121.304C213.292 125.456 215.98 128.216 219.34 128.216C221.452 128.216 222.964 127.208 223.756 126.056V128H227.14V114.704H223.756V116.6C222.964 115.496 221.5 114.488 219.364 114.488C215.98 114.488 213.292 117.152 213.292 121.304ZM223.756 121.352C223.756 123.872 222.076 125.264 220.228 125.264C218.428 125.264 216.724 123.824 216.724 121.304C216.724 118.784 218.428 117.44 220.228 117.44C222.076 117.44 223.756 118.832 223.756 121.352ZM240.742 124.208C240.646 119.336 233.278 120.848 233.278 118.424C233.278 117.656 233.926 117.152 235.174 117.152C236.494 117.152 237.31 117.848 237.406 118.88H240.622C240.43 116.24 238.486 114.488 235.27 114.488C231.982 114.488 230.014 116.264 230.014 118.472C230.014 123.344 237.526 121.832 237.526 124.208C237.526 124.976 236.806 125.576 235.486 125.576C234.142 125.576 233.206 124.808 233.086 123.8H229.702C229.846 126.272 232.174 128.216 235.51 128.216C238.75 128.216 240.742 126.488 240.742 124.208ZM249.212 117.248C250.94 117.248 252.332 118.352 252.38 120.104H246.068C246.332 118.28 247.604 117.248 249.212 117.248ZM255.524 123.824H251.9C251.468 124.712 250.676 125.432 249.236 125.432C247.556 125.432 246.212 124.328 246.044 122.36H255.764C255.836 121.928 255.86 121.496 255.86 121.064C255.86 117.104 253.148 114.488 249.308 114.488C245.372 114.488 242.636 117.152 242.636 121.352C242.636 125.528 245.444 128.216 249.308 128.216C252.596 128.216 254.804 126.272 255.524 123.824ZM268.632 124.208C268.536 119.336 261.168 120.848 261.168 118.424C261.168 117.656 261.816 117.152 263.064 117.152C264.384 117.152 265.2 117.848 265.296 118.88H268.512C268.32 116.24 266.376 114.488 263.16 114.488C259.872 114.488 257.904 116.264 257.904 118.472C257.904 123.344 265.416 121.832 265.416 124.208C265.416 124.976 264.696 125.576 263.376 125.576C262.032 125.576 261.096 124.808 260.976 123.8H257.592C257.736 126.272 260.064 128.216 263.4 128.216C266.64 128.216 268.632 126.488 268.632 124.208Z" fill="white"/>
<path d="M166.192 41H169.648V23.504H163.864V26.6H166.192V41ZM173.015 28.112H176.303C176.423 27.008 177.119 25.952 178.751 25.952C180.287 25.952 181.127 26.768 181.127 28.136C181.127 29.864 179.687 30.416 177.719 30.416H177.023V33.176H177.719C180.215 33.176 181.463 33.896 181.463 35.864C181.463 37.256 180.599 38.312 178.919 38.312C177.119 38.312 176.111 37.232 176.039 35.72H172.775C172.919 39.392 175.535 41.12 178.991 41.12C182.663 41.12 184.679 39.008 184.679 36.152C184.679 33.776 183.503 32.336 181.727 31.784V31.688C182.999 31.256 184.367 29.912 184.367 27.728C184.367 25.136 182.447 23.096 178.847 23.096C175.487 23.096 173.183 24.872 173.015 28.112ZM190.263 31.736C188.535 32.456 187.455 33.968 187.455 36.032C187.455 39.368 190.191 41.384 193.767 41.384C197.367 41.384 200.103 39.368 200.103 36.032C200.103 33.992 199.023 32.48 197.295 31.736C198.663 31.04 199.671 29.72 199.671 27.872C199.671 25.376 197.751 23.168 193.767 23.168C189.783 23.168 187.863 25.352 187.863 27.872C187.863 29.768 188.823 30.992 190.263 31.736ZM193.767 30.752C192.255 30.752 191.151 29.816 191.151 28.376C191.151 26.744 192.207 25.88 193.767 25.88C195.375 25.88 196.407 26.768 196.407 28.352C196.407 29.792 195.303 30.752 193.767 30.752ZM193.767 33.2C195.567 33.2 196.815 34.16 196.815 35.888C196.815 37.424 195.687 38.6 193.767 38.6C191.847 38.6 190.695 37.448 190.695 35.888C190.695 34.112 192.015 33.2 193.767 33.2ZM212.219 29.648V23.24H208.859V41H212.219V39.104C213.035 40.256 214.523 41.216 216.611 41.216C220.019 41.216 222.683 38.456 222.683 34.304C222.683 30.152 220.019 27.488 216.611 27.488C214.595 27.488 213.035 28.424 212.219 29.648ZM219.251 34.304C219.251 36.824 217.547 38.264 215.723 38.264C213.923 38.264 212.219 36.872 212.219 34.352C212.219 31.832 213.923 30.44 215.723 30.44C217.547 30.44 219.251 31.784 219.251 34.304ZM224.261 34.304C224.261 38.456 226.949 41.216 230.309 41.216C232.421 41.216 233.933 40.208 234.725 39.056V41H238.109V27.704H234.725V29.6C233.933 28.496 232.469 27.488 230.333 27.488C226.949 27.488 224.261 30.152 224.261 34.304ZM234.725 34.352C234.725 36.872 233.045 38.264 231.197 38.264C229.397 38.264 227.693 36.824 227.693 34.304C227.693 31.784 229.397 30.44 231.197 30.44C233.045 30.44 234.725 31.832 234.725 34.352ZM251.71 37.208C251.614 32.336 244.246 33.848 244.246 31.424C244.246 30.656 244.894 30.152 246.142 30.152C247.462 30.152 248.278 30.848 248.374 31.88H251.59C251.398 29.24 249.454 27.488 246.238 27.488C242.95 27.488 240.982 29.264 240.982 31.472C240.982 36.344 248.494 34.832 248.494 37.208C248.494 37.976 247.774 38.576 246.454 38.576C245.11 38.576 244.174 37.808 244.054 36.8H240.67C240.814 39.272 243.142 41.216 246.478 41.216C249.718 41.216 251.71 39.488 251.71 37.208ZM260.181 30.248C261.909 30.248 263.301 31.352 263.349 33.104H257.037C257.301 31.28 258.573 30.248 260.181 30.248ZM266.493 36.824H262.869C262.437 37.712 261.645 38.432 260.205 38.432C258.525 38.432 257.181 37.328 257.013 35.36H266.733C266.805 34.928 266.829 34.496 266.829 34.064C266.829 30.104 264.117 27.488 260.277 27.488C256.34 27.488 253.604 30.152 253.604 34.352C253.604 38.528 256.413 41.216 260.277 41.216C263.565 41.216 265.773 39.272 266.493 36.824ZM279.601 37.208C279.505 32.336 272.137 33.848 272.137 31.424C272.137 30.656 272.785 30.152 274.033 30.152C275.353 30.152 276.169 30.848 276.265 31.88H279.481C279.289 29.24 277.345 27.488 274.129 27.488C270.841 27.488 268.873 29.264 268.873 31.472C268.873 36.344 276.385 34.832 276.385 37.208C276.385 37.976 275.665 38.576 274.345 38.576C273.001 38.576 272.065 37.808 271.945 36.8H268.561C268.705 39.272 271.033 41.216 274.369 41.216C277.609 41.216 279.601 39.488 279.601 37.208Z" fill="white"/>
<path d="M165.184 197.456V207.728H168.4C168.76 206.648 169.648 205.88 171.04 205.88C172.936 205.88 173.92 206.96 173.92 208.928C173.92 210.776 173.032 212.168 171.064 212.168C169.432 212.168 168.448 211.28 168.16 210.056H164.896C165.184 212.912 167.344 215 171.112 215C175.096 215 177.16 212.456 177.16 208.88C177.16 206.168 175.768 203.096 171.688 203.096C170.224 203.096 168.904 203.72 168.256 204.512V200.408H176.032V197.456H165.184ZM180.485 210.08C180.677 212.648 182.453 215.024 186.173 215.024C190.805 215.024 192.125 211.808 192.125 205.856C192.125 200.312 190.661 197.096 185.909 197.096C182.213 197.096 180.005 199.4 180.005 202.904C180.005 206.6 182.429 208.496 185.453 208.496C186.989 208.496 188.405 207.896 189.149 206.864C189.149 210.8 188.285 212.264 186.317 212.264C184.757 212.264 183.869 211.472 183.605 210.08H180.485ZM186.149 205.76C184.109 205.76 183.221 204.464 183.221 202.88C183.221 201.128 184.277 199.952 186.029 199.952C187.733 199.952 188.837 201.008 188.837 202.928C188.837 204.632 187.829 205.76 186.149 205.76ZM204.204 203.648V197.24H200.844V215H204.204V213.104C205.02 214.256 206.508 215.216 208.596 215.216C212.004 215.216 214.668 212.456 214.668 208.304C214.668 204.152 212.004 201.488 208.596 201.488C206.58 201.488 205.02 202.424 204.204 203.648ZM211.236 208.304C211.236 210.824 209.532 212.264 207.708 212.264C205.908 212.264 204.204 210.872 204.204 208.352C204.204 205.832 205.908 204.44 207.708 204.44C209.532 204.44 211.236 205.784 211.236 208.304ZM216.245 208.304C216.245 212.456 218.933 215.216 222.293 215.216C224.405 215.216 225.917 214.208 226.709 213.056V215H230.093V201.704H226.709V203.6C225.917 202.496 224.453 201.488 222.317 201.488C218.933 201.488 216.245 204.152 216.245 208.304ZM226.709 208.352C226.709 210.872 225.029 212.264 223.181 212.264C221.381 212.264 219.677 210.824 219.677 208.304C219.677 205.784 221.381 204.44 223.181 204.44C225.029 204.44 226.709 205.832 226.709 208.352ZM243.695 211.208C243.599 206.336 236.231 207.848 236.231 205.424C236.231 204.656 236.879 204.152 238.127 204.152C239.447 204.152 240.263 204.848 240.359 205.88H243.575C243.383 203.24 241.439 201.488 238.223 201.488C234.935 201.488 232.967 203.264 232.967 205.472C232.967 210.344 240.479 208.832 240.479 211.208C240.479 211.976 239.759 212.576 238.439 212.576C237.095 212.576 236.159 211.808 236.039 210.8H232.655C232.799 213.272 235.127 215.216 238.463 215.216C241.703 215.216 243.695 213.488 243.695 211.208ZM252.165 204.248C253.893 204.248 255.285 205.352 255.333 207.104H249.021C249.285 205.28 250.557 204.248 252.165 204.248ZM258.477 210.824H254.853C254.421 211.712 253.629 212.432 252.189 212.432C250.509 212.432 249.165 211.328 248.997 209.36H258.717C258.789 208.928 258.813 208.496 258.813 208.064C258.813 204.104 256.101 201.488 252.261 201.488C248.325 201.488 245.589 204.152 245.589 208.352C245.589 212.528 248.397 215.216 252.261 215.216C255.549 215.216 257.757 213.272 258.477 210.824ZM271.585 211.208C271.489 206.336 264.121 207.848 264.121 205.424C264.121 204.656 264.769 204.152 266.017 204.152C267.337 204.152 268.153 204.848 268.249 205.88H271.465C271.273 203.24 269.329 201.488 266.113 201.488C262.825 201.488 260.857 203.264 260.857 205.472C260.857 210.344 268.369 208.832 268.369 211.208C268.369 211.976 267.649 212.576 266.329 212.576C264.985 212.576 264.049 211.808 263.929 210.8H260.545C260.689 213.272 263.017 215.216 266.353 215.216C269.593 215.216 271.585 213.488 271.585 211.208Z" fill="white"/>
<path d="M176.464 293.872C176.2 291.4 174.52 289.096 170.944 289.096C166.504 289.096 164.656 292.264 164.656 297.976C164.656 303.4 165.952 307.048 171.136 307.048C174.88 307.048 176.968 304.576 176.968 301.192C176.968 297.544 174.784 295.48 171.664 295.48C169.96 295.48 168.376 296.2 167.584 297.52C167.632 293.488 168.64 291.856 170.824 291.856C172.336 291.856 173.032 292.576 173.344 293.872H176.464ZM170.896 298.24C172.84 298.24 173.776 299.464 173.776 301.264C173.776 303.064 172.696 304.192 170.968 304.192C169 304.192 167.896 303.016 167.896 301.144C167.896 299.152 169.336 298.24 170.896 298.24ZM182.552 297.736C180.824 298.456 179.744 299.968 179.744 302.032C179.744 305.368 182.48 307.384 186.056 307.384C189.656 307.384 192.392 305.368 192.392 302.032C192.392 299.992 191.312 298.48 189.584 297.736C190.952 297.04 191.96 295.72 191.96 293.872C191.96 291.376 190.04 289.168 186.056 289.168C182.072 289.168 180.152 291.352 180.152 293.872C180.152 295.768 181.112 296.992 182.552 297.736ZM186.056 296.752C184.544 296.752 183.44 295.816 183.44 294.376C183.44 292.744 184.496 291.88 186.056 291.88C187.664 291.88 188.696 292.768 188.696 294.352C188.696 295.792 187.592 296.752 186.056 296.752ZM186.056 299.2C187.856 299.2 189.104 300.16 189.104 301.888C189.104 303.424 187.976 304.6 186.056 304.6C184.136 304.6 182.984 303.448 182.984 301.888C182.984 300.112 184.304 299.2 186.056 299.2ZM204.508 295.648V289.24H201.148V307H204.508V305.104C205.324 306.256 206.812 307.216 208.9 307.216C212.308 307.216 214.972 304.456 214.972 300.304C214.972 296.152 212.308 293.488 208.9 293.488C206.884 293.488 205.324 294.424 204.508 295.648ZM211.54 300.304C211.54 302.824 209.836 304.264 208.012 304.264C206.212 304.264 204.508 302.872 204.508 300.352C204.508 297.832 206.212 296.44 208.012 296.44C209.836 296.44 211.54 297.784 211.54 300.304ZM216.55 300.304C216.55 304.456 219.238 307.216 222.598 307.216C224.71 307.216 226.222 306.208 227.014 305.056V307H230.398V293.704H227.014V295.6C226.222 294.496 224.758 293.488 222.622 293.488C219.238 293.488 216.55 296.152 216.55 300.304ZM227.014 300.352C227.014 302.872 225.334 304.264 223.486 304.264C221.686 304.264 219.982 302.824 219.982 300.304C219.982 297.784 221.686 296.44 223.486 296.44C225.334 296.44 227.014 297.832 227.014 300.352ZM243.999 303.208C243.903 298.336 236.535 299.848 236.535 297.424C236.535 296.656 237.183 296.152 238.431 296.152C239.751 296.152 240.567 296.848 240.663 297.88H243.879C243.687 295.24 241.743 293.488 238.527 293.488C235.239 293.488 233.271 295.264 233.271 297.472C233.271 302.344 240.783 300.832 240.783 303.208C240.783 303.976 240.063 304.576 238.743 304.576C237.399 304.576 236.463 303.808 236.343 302.8H232.959C233.103 305.272 235.431 307.216 238.767 307.216C242.007 307.216 243.999 305.488 243.999 303.208ZM252.47 296.248C254.198 296.248 255.59 297.352 255.638 299.104H249.326C249.59 297.28 250.862 296.248 252.47 296.248ZM258.782 302.824H255.158C254.726 303.712 253.934 304.432 252.494 304.432C250.814 304.432 249.47 303.328 249.302 301.36H259.022C259.094 300.928 259.118 300.496 259.118 300.064C259.118 296.104 256.406 293.488 252.566 293.488C248.63 293.488 245.894 296.152 245.894 300.352C245.894 304.528 248.702 307.216 252.566 307.216C255.854 307.216 258.062 305.272 258.782 302.824ZM271.89 303.208C271.794 298.336 264.426 299.848 264.426 297.424C264.426 296.656 265.074 296.152 266.322 296.152C267.642 296.152 268.458 296.848 268.554 297.88H271.77C271.578 295.24 269.634 293.488 266.418 293.488C263.13 293.488 261.162 295.264 261.162 297.472C261.162 302.344 268.674 300.832 268.674 303.208C268.674 303.976 267.954 304.576 266.634 304.576C265.29 304.576 264.354 303.808 264.234 302.8H260.85C260.994 305.272 263.322 307.216 266.658 307.216C269.898 307.216 271.89 305.488 271.89 303.208Z" fill="white"/>
<path d="M163.84 380.552V383.432H172.048L165.616 398H169.024L175.408 383.048V380.552H163.84ZM185.676 398H189.036V394.592H191.148V391.664H189.036V380.72H185.124L177.276 391.952V394.592H185.676V398ZM180.972 391.664L185.892 384.32V391.664H180.972ZM202.75 386.648V380.24H199.39V398H202.75V396.104C203.566 397.256 205.054 398.216 207.142 398.216C210.55 398.216 213.214 395.456 213.214 391.304C213.214 387.152 210.55 384.488 207.142 384.488C205.126 384.488 203.566 385.424 202.75 386.648ZM209.782 391.304C209.782 393.824 208.078 395.264 206.254 395.264C204.454 395.264 202.75 393.872 202.75 391.352C202.75 388.832 204.454 387.44 206.254 387.44C208.078 387.44 209.782 388.784 209.782 391.304ZM214.792 391.304C214.792 395.456 217.48 398.216 220.84 398.216C222.952 398.216 224.464 397.208 225.256 396.056V398H228.64V384.704H225.256V386.6C224.464 385.496 223 384.488 220.864 384.488C217.48 384.488 214.792 387.152 214.792 391.304ZM225.256 391.352C225.256 393.872 223.576 395.264 221.728 395.264C219.928 395.264 218.224 393.824 218.224 391.304C218.224 388.784 219.928 387.44 221.728 387.44C223.576 387.44 225.256 388.832 225.256 391.352ZM242.242 394.208C242.146 389.336 234.778 390.848 234.778 388.424C234.778 387.656 235.426 387.152 236.674 387.152C237.994 387.152 238.81 387.848 238.906 388.88H242.122C241.93 386.24 239.986 384.488 236.77 384.488C233.482 384.488 231.514 386.264 231.514 388.472C231.514 393.344 239.026 391.832 239.026 394.208C239.026 394.976 238.306 395.576 236.986 395.576C235.642 395.576 234.706 394.808 234.586 393.8H231.202C231.346 396.272 233.674 398.216 237.01 398.216C240.25 398.216 242.242 396.488 242.242 394.208ZM250.712 387.248C252.44 387.248 253.832 388.352 253.88 390.104H247.568C247.832 388.28 249.104 387.248 250.712 387.248ZM257.024 393.824H253.4C252.968 394.712 252.176 395.432 250.736 395.432C249.056 395.432 247.712 394.328 247.544 392.36H257.264C257.336 391.928 257.36 391.496 257.36 391.064C257.36 387.104 254.648 384.488 250.808 384.488C246.872 384.488 244.136 387.152 244.136 391.352C244.136 395.528 246.944 398.216 250.808 398.216C254.096 398.216 256.304 396.272 257.024 393.824ZM270.132 394.208C270.036 389.336 262.668 390.848 262.668 388.424C262.668 387.656 263.316 387.152 264.564 387.152C265.884 387.152 266.7 387.848 266.796 388.88H270.012C269.82 386.24 267.876 384.488 264.66 384.488C261.372 384.488 259.404 386.264 259.404 388.472C259.404 393.344 266.916 391.832 266.916 394.208C266.916 394.976 266.196 395.576 264.876 395.576C263.532 395.576 262.596 394.808 262.476 393.8H259.092C259.236 396.272 261.564 398.216 264.9 398.216C268.14 398.216 270.132 396.488 270.132 394.208Z" fill="white"/>
<path d="M86.2929 119.293C85.9024 119.683 85.9024 120.317 86.2929 120.707L92.6569 127.071C93.0474 127.462 93.6805 127.462 94.0711 127.071C94.4616 126.681 94.4616 126.047 94.0711 125.657L88.4142 120L94.0711 114.343C94.4616 113.953 94.4616 113.319 94.0711 112.929C93.6805 112.538 93.0474 112.538 92.6569 112.929L86.2929 119.293ZM127.707 120.707C128.098 120.317 128.098 119.683 127.707 119.293L121.343 112.929C120.953 112.538 120.319 112.538 119.929 112.929C119.538 113.319 119.538 113.953 119.929 114.343L125.586 120L119.929 125.657C119.538 126.047 119.538 126.681 119.929 127.071C120.319 127.462 120.953 127.462 121.343 127.071L127.707 120.707ZM87 121L127 121L127 119L87 119L87 121Z" fill="#F1403F"/>
<path d="M86.2929 32.2929C85.9024 32.6834 85.9024 33.3166 86.2929 33.7071L92.6569 40.0711C93.0474 40.4616 93.6805 40.4616 94.0711 40.0711C94.4616 39.6805 94.4616 39.0474 94.0711 38.6569L88.4142 33L94.0711 27.3431C94.4616 26.9526 94.4616 26.3195 94.0711 25.9289C93.6805 25.5384 93.0474 25.5384 92.6569 25.9289L86.2929 32.2929ZM127.707 33.7071C128.098 33.3166 128.098 32.6834 127.707 32.2929L121.343 25.9289C120.953 25.5384 120.319 25.5384 119.929 25.9289C119.538 26.3195 119.538 26.9526 119.929 27.3431L125.586 33L119.929 38.6569C119.538 39.0474 119.538 39.6805 119.929 40.0711C120.319 40.4616 120.953 40.4616 121.343 40.0711L127.707 33.7071ZM87 34L127 34L127 32L87 32L87 34Z" fill="#E1A0F8"/>
<path d="M86.2929 206.293C85.9024 206.683 85.9024 207.317 86.2929 207.707L92.6569 214.071C93.0474 214.462 93.6805 214.462 94.0711 214.071C94.4616 213.681 94.4616 213.047 94.0711 212.657L88.4142 207L94.0711 201.343C94.4616 200.953 94.4616 200.319 94.0711 199.929C93.6805 199.538 93.0474 199.538 92.6569 199.929L86.2929 206.293ZM127.707 207.707C128.098 207.317 128.098 206.683 127.707 206.293L121.343 199.929C120.953 199.538 120.319 199.538 119.929 199.929C119.538 200.319 119.538 200.953 119.929 201.343L125.586 207L119.929 212.657C119.538 213.047 119.538 213.681 119.929 214.071C120.319 214.462 120.953 214.462 121.343 214.071L127.707 207.707ZM87 208L127 208L127 206L87 206L87 208Z" fill="#19CD77"/>
<path d="M86.2929 298.293C85.9024 298.683 85.9024 299.317 86.2929 299.707L92.6569 306.071C93.0474 306.462 93.6805 306.462 94.0711 306.071C94.4616 305.681 94.4616 305.047 94.0711 304.657L88.4142 299L94.0711 293.343C94.4616 292.953 94.4616 292.319 94.0711 291.929C93.6805 291.538 93.0474 291.538 92.6569 291.929L86.2929 298.293ZM127.707 299.707C128.098 299.317 128.098 298.683 127.707 298.293L121.343 291.929C120.953 291.538 120.319 291.538 119.929 291.929C119.538 292.319 119.538 292.953 119.929 293.343L125.586 299L119.929 304.657C119.538 305.047 119.538 305.681 119.929 306.071C120.319 306.462 120.953 306.462 121.343 306.071L127.707 299.707ZM87 300L127 300L127 298L87 298L87 300Z" fill="#E8D71E"/>
<path d="M86.2929 389.293C85.9024 389.683 85.9024 390.317 86.2929 390.707L92.6569 397.071C93.0474 397.462 93.6805 397.462 94.0711 397.071C94.4616 396.681 94.4616 396.047 94.0711 395.657L88.4142 390L94.0711 384.343C94.4616 383.953 94.4616 383.319 94.0711 382.929C93.6805 382.538 93.0474 382.538 92.6569 382.929L86.2929 389.293ZM127.707 390.707C128.098 390.317 128.098 389.683 127.707 389.293L121.343 382.929C120.953 382.538 120.319 382.538 119.929 382.929C119.538 383.319 119.538 383.953 119.929 384.343L125.586 390L119.929 395.657C119.538 396.047 119.538 396.681 119.929 397.071C120.319 397.462 120.953 397.462 121.343 397.071L127.707 390.707ZM87 391L127 391L127 389L87 389L87 391Z" fill="#63B4EF"/>
</svg>
