<svg width="229" height="424" viewBox="0 0 229 424" fill="none" xmlns="http://www.w3.org/2000/svg">
<rect y="87" width="66" height="66" rx="8" fill="#F1403F"/>
<rect width="66" height="66" rx="8" fill="#E1A0F8"/>
<rect x="148" y="87" width="81" height="66" rx="8" fill="#F1403F"/>
<rect x="148" width="81" height="66" rx="8" fill="#E1A0F8"/>
<rect y="174" width="66" height="66" rx="8" fill="#19CD77"/>
<rect x="148" y="174" width="81" height="66" rx="8" fill="#19CD77"/>
<rect y="266" width="66" height="66" rx="8" fill="#E8D71E"/>
<rect x="148" y="266" width="81" height="66" rx="8" fill="#E8D71E"/>
<rect y="358" width="66" height="66" rx="8" fill="#63B4EF"/>
<rect x="148" y="358" width="81" height="66" rx="8" fill="#63B4EF"/>
<path d="M10.9 126.8H20.78V124.48H14.88C17.2 122.52 20.46 119.88 20.46 116.5C20.46 113.96 18.88 112.1 15.74 112.1C13.12 112.1 10.98 113.64 10.88 116.98H13.6C13.62 115.44 14.36 114.48 15.7 114.48C17.08 114.48 17.66 115.36 17.66 116.66C17.66 119.34 14.2 121.92 10.9 124.72V126.8ZM22.5444 119.52C22.5444 123.78 23.8244 126.96 27.9444 126.96C32.0644 126.96 33.3444 123.78 33.3444 119.52C33.3444 115.3 32.0644 112.14 27.9444 112.14C23.8244 112.14 22.5444 115.3 22.5444 119.52ZM30.5844 119.52C30.5844 122.12 30.3044 124.36 27.9444 124.36C25.5844 124.36 25.3044 122.12 25.3044 119.52C25.3044 117.02 25.5844 114.74 27.9444 114.74C30.3044 114.74 30.5844 117.02 30.5844 119.52ZM37.0741 127H39.9541V112.42H35.1341V115H37.0741V127ZM43.3602 122.9C43.5202 125.04 45.0002 127.02 48.1002 127.02C51.9602 127.02 53.0602 124.34 53.0602 119.38C53.0602 114.76 51.8402 112.08 47.8802 112.08C44.8002 112.08 42.9602 114 42.9602 116.92C42.9602 120 44.9802 121.58 47.5002 121.58C48.7802 121.58 49.9602 121.08 50.5802 120.22C50.5802 123.5 49.8602 124.72 48.2202 124.72C46.9202 124.72 46.1802 124.06 45.9602 122.9H43.3602ZM48.0802 119.3C46.3802 119.3 45.6402 118.22 45.6402 116.9C45.6402 115.44 46.5202 114.46 47.9802 114.46C49.4002 114.46 50.3202 115.34 50.3202 116.94C50.3202 118.36 49.4802 119.3 48.0802 119.3Z" fill="white"/>
<path d="M10.9 39.8H20.78V37.48H14.88C17.2 35.52 20.46 32.88 20.46 29.5C20.46 26.96 18.88 25.1 15.74 25.1C13.12 25.1 10.98 26.64 10.88 29.98H13.6C13.62 28.44 14.36 27.48 15.7 27.48C17.08 27.48 17.66 28.36 17.66 29.66C17.66 32.34 14.2 34.92 10.9 37.72V39.8ZM22.5444 32.52C22.5444 36.78 23.8244 39.96 27.9444 39.96C32.0644 39.96 33.3444 36.78 33.3444 32.52C33.3444 28.3 32.0644 25.14 27.9444 25.14C23.8244 25.14 22.5444 28.3 22.5444 32.52ZM30.5844 32.52C30.5844 35.12 30.3044 37.36 27.9444 37.36C25.5844 37.36 25.3044 35.12 25.3044 32.52C25.3044 30.02 25.5844 27.74 27.9444 27.74C30.3044 27.74 30.5844 30.02 30.5844 32.52ZM37.0741 40H39.9541V25.42H35.1341V28H37.0741V40ZM45.1602 32.28C43.7202 32.88 42.8202 34.14 42.8202 35.86C42.8202 38.64 45.1002 40.32 48.0802 40.32C51.0802 40.32 53.3602 38.64 53.3602 35.86C53.3602 34.16 52.4602 32.9 51.0202 32.28C52.1602 31.7 53.0002 30.6 53.0002 29.06C53.0002 26.98 51.4002 25.14 48.0802 25.14C44.7602 25.14 43.1602 26.96 43.1602 29.06C43.1602 30.64 43.9602 31.66 45.1602 32.28ZM48.0802 31.46C46.8202 31.46 45.9002 30.68 45.9002 29.48C45.9002 28.12 46.7802 27.4 48.0802 27.4C49.4202 27.4 50.2802 28.14 50.2802 29.46C50.2802 30.66 49.3602 31.46 48.0802 31.46ZM48.0802 33.5C49.5802 33.5 50.6202 34.3 50.6202 35.74C50.6202 37.02 49.6802 38 48.0802 38C46.4802 38 45.5202 37.04 45.5202 35.74C45.5202 34.26 46.6202 33.5 48.0802 33.5Z" fill="white"/>
<path d="M8.9 213.8H18.78V211.48H12.88C15.2 209.52 18.46 206.88 18.46 203.5C18.46 200.96 16.88 199.1 13.74 199.1C11.12 199.1 8.98 200.64 8.88 203.98H11.6C11.62 202.44 12.36 201.48 13.7 201.48C15.08 201.48 15.66 202.36 15.66 203.66C15.66 206.34 12.2 208.92 8.9 211.72V213.8ZM20.5444 206.52C20.5444 210.78 21.8244 213.96 25.9444 213.96C30.0644 213.96 31.3444 210.78 31.3444 206.52C31.3444 202.3 30.0644 199.14 25.9444 199.14C21.8244 199.14 20.5444 202.3 20.5444 206.52ZM28.5844 206.52C28.5844 209.12 28.3044 211.36 25.9444 211.36C23.5844 211.36 23.3044 209.12 23.3044 206.52C23.3044 204.02 23.5844 201.74 25.9444 201.74C28.3044 201.74 28.5844 204.02 28.5844 206.52ZM33.3141 213.8H43.1941V211.48H37.2941C39.6141 209.52 42.8741 206.88 42.8741 203.5C42.8741 200.96 41.2941 199.1 38.1541 199.1C35.5341 199.1 33.3941 200.64 33.2941 203.98H36.0141C36.0341 202.44 36.7741 201.48 38.1141 201.48C39.4941 201.48 40.0741 202.36 40.0741 203.66C40.0741 206.34 36.6141 208.92 33.3141 211.72V213.8ZM44.9584 206.52C44.9584 210.78 46.2384 213.96 50.3584 213.96C54.4784 213.96 55.7584 210.78 55.7584 206.52C55.7584 202.3 54.4784 199.14 50.3584 199.14C46.2384 199.14 44.9584 202.3 44.9584 206.52ZM52.9984 206.52C52.9984 209.12 52.7184 211.36 50.3584 211.36C47.9984 211.36 47.7184 209.12 47.7184 206.52C47.7184 204.02 47.9984 201.74 50.3584 201.74C52.7184 201.74 52.9984 204.02 52.9984 206.52Z" fill="white"/>
<path d="M11.9 305.8H21.78V303.48H15.88C18.2 301.52 21.46 298.88 21.46 295.5C21.46 292.96 19.88 291.1 16.74 291.1C14.12 291.1 11.98 292.64 11.88 295.98H14.6C14.62 294.44 15.36 293.48 16.7 293.48C18.08 293.48 18.66 294.36 18.66 295.66C18.66 298.34 15.2 300.92 11.9 303.72V305.8ZM23.5444 298.52C23.5444 302.78 24.8244 305.96 28.9444 305.96C33.0644 305.96 34.3444 302.78 34.3444 298.52C34.3444 294.3 33.0644 291.14 28.9444 291.14C24.8244 291.14 23.5444 294.3 23.5444 298.52ZM31.5844 298.52C31.5844 301.12 31.3044 303.36 28.9444 303.36C26.5844 303.36 26.3044 301.12 26.3044 298.52C26.3044 296.02 26.5844 293.74 28.9444 293.74C31.3044 293.74 31.5844 296.02 31.5844 298.52ZM36.3141 305.8H46.1941V303.48H40.2941C42.6141 301.52 45.8741 298.88 45.8741 295.5C45.8741 292.96 44.2941 291.1 41.1541 291.1C38.5341 291.1 36.3941 292.64 36.2941 295.98H39.0141C39.0341 294.44 39.7741 293.48 41.1141 293.48C42.4941 293.48 43.0741 294.36 43.0741 295.66C43.0741 298.34 39.6141 300.92 36.3141 303.72V305.8ZM49.5584 306H52.4384V291.42H47.6184V294H49.5584V306Z" fill="white"/>
<path d="M9.9 396.8H19.78V394.48H13.88C16.2 392.52 19.46 389.88 19.46 386.5C19.46 383.96 17.88 382.1 14.74 382.1C12.12 382.1 9.98 383.64 9.88 386.98H12.6C12.62 385.44 13.36 384.48 14.7 384.48C16.08 384.48 16.66 385.36 16.66 386.66C16.66 389.34 13.2 391.92 9.9 394.72V396.8ZM21.5444 389.52C21.5444 393.78 22.8244 396.96 26.9444 396.96C31.0644 396.96 32.3444 393.78 32.3444 389.52C32.3444 385.3 31.0644 382.14 26.9444 382.14C22.8244 382.14 21.5444 385.3 21.5444 389.52ZM29.5844 389.52C29.5844 392.12 29.3044 394.36 26.9444 394.36C24.5844 394.36 24.3044 392.12 24.3044 389.52C24.3044 387.02 24.5844 384.74 26.9444 384.74C29.3044 384.74 29.5844 387.02 29.5844 389.52ZM34.3141 396.8H44.1941V394.48H38.2941C40.6141 392.52 43.8741 389.88 43.8741 386.5C43.8741 383.96 42.2941 382.1 39.1541 382.1C36.5341 382.1 34.3941 383.64 34.2941 386.98H37.0141C37.0341 385.44 37.7741 384.48 39.1141 384.48C40.4941 384.48 41.0741 385.36 41.0741 386.66C41.0741 389.34 37.6141 391.92 34.3141 394.72V396.8ZM45.7984 396.8H55.6784V394.48H49.7784C52.0984 392.52 55.3584 389.88 55.3584 386.5C55.3584 383.96 53.7784 382.1 50.6384 382.1C48.0184 382.1 45.8784 383.64 45.7784 386.98H48.4984C48.5184 385.44 49.2584 384.48 50.5984 384.48C51.9784 384.48 52.5584 385.36 52.5584 386.66C52.5584 389.34 49.0984 391.92 45.7984 394.72V396.8Z" fill="white"/>
<path d="M172.704 131H177.184V126.456H180V122.552H177.184V107.96H171.968L161.504 122.936V126.456H172.704V131ZM166.432 122.552L172.992 112.76V122.552H166.432ZM182.596 130.68H198.404V126.968H188.964C192.676 123.832 197.892 119.608 197.892 114.2C197.892 110.136 195.364 107.16 190.34 107.16C186.148 107.16 182.724 109.624 182.564 114.968H186.916C186.948 112.504 188.132 110.968 190.276 110.968C192.484 110.968 193.412 112.376 193.412 114.456C193.412 118.744 187.876 122.872 182.596 127.352V130.68ZM200.651 107.736V111.576H211.595L203.019 131H207.563L216.075 111.064V107.736H200.651Z" fill="white"/>
<path d="M161.76 26.816H166.144C166.304 25.344 167.232 23.936 169.408 23.936C171.456 23.936 172.576 25.024 172.576 26.848C172.576 29.152 170.656 29.888 168.032 29.888H167.104V33.568H168.032C171.36 33.568 173.024 34.528 173.024 37.152C173.024 39.008 171.872 40.416 169.632 40.416C167.232 40.416 165.888 38.976 165.792 36.96H161.44C161.632 41.856 165.12 44.16 169.728 44.16C174.624 44.16 177.312 41.344 177.312 37.536C177.312 34.368 175.744 32.448 173.376 31.712V31.584C175.072 31.008 176.896 29.216 176.896 26.304C176.896 22.848 174.336 20.128 169.536 20.128C165.056 20.128 161.984 22.496 161.76 26.816ZM180.596 43.68H196.404V39.968H186.964C190.676 36.832 195.892 32.608 195.892 27.2C195.892 23.136 193.364 20.16 188.34 20.16C184.148 20.16 180.724 22.624 180.564 27.968H184.916C184.948 25.504 186.132 23.968 188.276 23.968C190.484 23.968 191.412 25.376 191.412 27.456C191.412 31.744 185.876 35.872 180.596 40.352V43.68ZM200.251 37.44C200.507 40.864 202.875 44.032 207.835 44.032C214.011 44.032 215.771 39.744 215.771 31.808C215.771 24.416 213.819 20.128 207.483 20.128C202.555 20.128 199.611 23.2 199.611 27.872C199.611 32.8 202.843 35.328 206.875 35.328C208.923 35.328 210.811 34.528 211.803 33.152C211.803 38.4 210.651 40.352 208.027 40.352C205.947 40.352 204.763 39.296 204.411 37.44H200.251ZM207.803 31.68C205.083 31.68 203.899 29.952 203.899 27.84C203.899 25.504 205.307 23.936 207.643 23.936C209.915 23.936 211.387 25.344 211.387 27.904C211.387 30.176 210.043 31.68 207.803 31.68Z" fill="white"/>
<path d="M164.44 217.68H180.248V213.968H170.808C174.52 210.832 179.736 206.608 179.736 201.2C179.736 197.136 177.208 194.16 172.184 194.16C167.992 194.16 164.568 196.624 164.408 201.968H168.76C168.792 199.504 169.976 197.968 172.12 197.968C174.328 197.968 175.256 199.376 175.256 201.456C175.256 205.744 169.72 209.872 164.44 214.352V217.68ZM185.631 218H190.239V194.672H182.527V198.8H185.631V218ZM198.569 205.648C196.265 206.608 194.825 208.624 194.825 211.376C194.825 215.824 198.473 218.512 203.241 218.512C208.041 218.512 211.689 215.824 211.689 211.376C211.689 208.656 210.249 206.64 207.945 205.648C209.769 204.72 211.113 202.96 211.113 200.496C211.113 197.168 208.553 194.224 203.241 194.224C197.929 194.224 195.369 197.136 195.369 200.496C195.369 203.024 196.649 204.656 198.569 205.648ZM203.241 204.336C201.225 204.336 199.753 203.088 199.753 201.168C199.753 198.992 201.161 197.84 203.241 197.84C205.385 197.84 206.761 199.024 206.761 201.136C206.761 203.056 205.289 204.336 203.241 204.336ZM203.241 207.6C205.641 207.6 207.305 208.88 207.305 211.184C207.305 213.232 205.801 214.8 203.241 214.8C200.681 214.8 199.145 213.264 199.145 211.184C199.145 208.816 200.905 207.6 203.241 207.6Z" fill="white"/>
<path d="M169.704 310H174.184V305.456H177V301.552H174.184V286.96H168.968L158.504 301.936V305.456H169.704V310ZM163.432 301.552L169.992 291.76V301.552H163.432ZM181.068 286.608V300.304H185.356C185.836 298.864 187.02 297.84 188.876 297.84C191.404 297.84 192.716 299.28 192.716 301.904C192.716 304.368 191.532 306.224 188.908 306.224C186.732 306.224 185.42 305.04 185.036 303.408H180.684C181.068 307.216 183.948 310 188.972 310C194.284 310 197.036 306.608 197.036 301.84C197.036 298.224 195.18 294.128 189.74 294.128C187.788 294.128 186.028 294.96 185.164 296.016V290.544H195.532V286.608H181.068ZM216.702 292.496C216.35 289.2 214.11 286.128 209.342 286.128C203.422 286.128 200.958 290.352 200.958 297.968C200.958 305.2 202.686 310.064 209.598 310.064C214.59 310.064 217.374 306.768 217.374 302.256C217.374 297.392 214.462 294.64 210.302 294.64C208.03 294.64 205.918 295.6 204.862 297.36C204.926 291.984 206.27 289.808 209.182 289.808C211.198 289.808 212.126 290.768 212.542 292.496H216.702ZM209.278 298.32C211.87 298.32 213.118 299.952 213.118 302.352C213.118 304.752 211.678 306.256 209.374 306.256C206.75 306.256 205.278 304.688 205.278 302.192C205.278 299.536 207.198 298.32 209.278 298.32Z" fill="white"/>
<path d="M160.912 378.608V392.304H165.2C165.68 390.864 166.864 389.84 168.72 389.84C171.248 389.84 172.56 391.28 172.56 393.904C172.56 396.368 171.376 398.224 168.752 398.224C166.576 398.224 165.264 397.04 164.88 395.408H160.528C160.912 399.216 163.792 402 168.816 402C174.128 402 176.88 398.608 176.88 393.84C176.88 390.224 175.024 386.128 169.584 386.128C167.632 386.128 165.872 386.96 165.008 388.016V382.544H175.376V378.608H160.912ZM180.354 384.816H184.738C184.898 383.344 185.826 381.936 188.002 381.936C190.05 381.936 191.17 383.024 191.17 384.848C191.17 387.152 189.25 387.888 186.626 387.888H185.698V391.568H186.626C189.954 391.568 191.618 392.528 191.618 395.152C191.618 397.008 190.466 398.416 188.226 398.416C185.826 398.416 184.482 396.976 184.386 394.96H180.034C180.226 399.856 183.714 402.16 188.322 402.16C193.218 402.16 195.906 399.344 195.906 395.536C195.906 392.368 194.338 390.448 191.97 389.712V389.584C193.666 389.008 195.49 387.216 195.49 384.304C195.49 380.848 192.93 378.128 188.13 378.128C183.65 378.128 180.578 380.496 180.354 384.816ZM210.454 402H214.934V397.456H217.75V393.552H214.934V378.96H209.718L199.254 393.936V397.456H210.454V402ZM204.182 393.552L210.742 383.76V393.552H204.182Z" fill="white"/>
<path d="M86.2929 119.293C85.9024 119.683 85.9024 120.317 86.2929 120.707L92.6569 127.071C93.0474 127.462 93.6805 127.462 94.0711 127.071C94.4616 126.681 94.4616 126.047 94.0711 125.657L88.4142 120L94.0711 114.343C94.4616 113.953 94.4616 113.319 94.0711 112.929C93.6805 112.538 93.0474 112.538 92.6569 112.929L86.2929 119.293ZM127.707 120.707C128.098 120.317 128.098 119.683 127.707 119.293L121.343 112.929C120.953 112.538 120.319 112.538 119.929 112.929C119.538 113.319 119.538 113.953 119.929 114.343L125.586 120L119.929 125.657C119.538 126.047 119.538 126.681 119.929 127.071C120.319 127.462 120.953 127.462 121.343 127.071L127.707 120.707ZM87 121L127 121L127 119L87 119L87 121Z" fill="#F1403F"/>
<path d="M86.2929 32.2929C85.9024 32.6834 85.9024 33.3166 86.2929 33.7071L92.6569 40.0711C93.0474 40.4616 93.6805 40.4616 94.0711 40.0711C94.4616 39.6805 94.4616 39.0474 94.0711 38.6569L88.4142 33L94.0711 27.3431C94.4616 26.9526 94.4616 26.3195 94.0711 25.9289C93.6805 25.5384 93.0474 25.5384 92.6569 25.9289L86.2929 32.2929ZM127.707 33.7071C128.098 33.3166 128.098 32.6834 127.707 32.2929L121.343 25.9289C120.953 25.5384 120.319 25.5384 119.929 25.9289C119.538 26.3195 119.538 26.9526 119.929 27.3431L125.586 33L119.929 38.6569C119.538 39.0474 119.538 39.6805 119.929 40.0711C120.319 40.4616 120.953 40.4616 121.343 40.0711L127.707 33.7071ZM87 34L127 34L127 32L87 32L87 34Z" fill="#E1A0F8"/>
<path d="M86.2929 206.293C85.9024 206.683 85.9024 207.317 86.2929 207.707L92.6569 214.071C93.0474 214.462 93.6805 214.462 94.0711 214.071C94.4616 213.681 94.4616 213.047 94.0711 212.657L88.4142 207L94.0711 201.343C94.4616 200.953 94.4616 200.319 94.0711 199.929C93.6805 199.538 93.0474 199.538 92.6569 199.929L86.2929 206.293ZM127.707 207.707C128.098 207.317 128.098 206.683 127.707 206.293L121.343 199.929C120.953 199.538 120.319 199.538 119.929 199.929C119.538 200.319 119.538 200.953 119.929 201.343L125.586 207L119.929 212.657C119.538 213.047 119.538 213.681 119.929 214.071C120.319 214.462 120.953 214.462 121.343 214.071L127.707 207.707ZM87 208L127 208L127 206L87 206L87 208Z" fill="#19CD77"/>
<path d="M86.2929 298.293C85.9024 298.683 85.9024 299.317 86.2929 299.707L92.6569 306.071C93.0474 306.462 93.6805 306.462 94.0711 306.071C94.4616 305.681 94.4616 305.047 94.0711 304.657L88.4142 299L94.0711 293.343C94.4616 292.953 94.4616 292.319 94.0711 291.929C93.6805 291.538 93.0474 291.538 92.6569 291.929L86.2929 298.293ZM127.707 299.707C128.098 299.317 128.098 298.683 127.707 298.293L121.343 291.929C120.953 291.538 120.319 291.538 119.929 291.929C119.538 292.319 119.538 292.953 119.929 293.343L125.586 299L119.929 304.657C119.538 305.047 119.538 305.681 119.929 306.071C120.319 306.462 120.953 306.462 121.343 306.071L127.707 299.707ZM87 300L127 300L127 298L87 298L87 300Z" fill="#E8D71E"/>
<path d="M86.2929 389.293C85.9024 389.683 85.9024 390.317 86.2929 390.707L92.6569 397.071C93.0474 397.462 93.6805 397.462 94.0711 397.071C94.4616 396.681 94.4616 396.047 94.0711 395.657L88.4142 390L94.0711 384.343C94.4616 383.953 94.4616 383.319 94.0711 382.929C93.6805 382.538 93.0474 382.538 92.6569 382.929L86.2929 389.293ZM127.707 390.707C128.098 390.317 128.098 389.683 127.707 389.293L121.343 382.929C120.953 382.538 120.319 382.538 119.929 382.929C119.538 383.319 119.538 383.953 119.929 384.343L125.586 390L119.929 395.657C119.538 396.047 119.538 396.681 119.929 397.071C120.319 397.462 120.953 397.462 121.343 397.071L127.707 390.707ZM87 391L127 391L127 389L87 389L87 391Z" fill="#63B4EF"/>
</svg>
