<svg width="229" height="424" viewBox="0 0 229 424" fill="none" xmlns="http://www.w3.org/2000/svg">
<rect y="87" width="66" height="66" rx="8" fill="#F1403F"/>
<rect width="66" height="66" rx="8" fill="#E1A0F8"/>
<rect x="148" y="87" width="81" height="66" rx="8" fill="#F1403F"/>
<rect x="148" width="81" height="66" rx="8" fill="#E1A0F8"/>
<rect y="174" width="66" height="66" rx="8" fill="#19CD77"/>
<rect x="148" y="174" width="81" height="66" rx="8" fill="#19CD77"/>
<rect y="266" width="66" height="66" rx="8" fill="#E8D71E"/>
<rect x="148" y="266" width="81" height="66" rx="8" fill="#E8D71E"/>
<rect y="358" width="66" height="66" rx="8" fill="#63B4EF"/>
<rect x="148" y="358" width="81" height="66" rx="8" fill="#63B4EF"/>
<path d="M10.9 126.8H20.78V124.48H14.88C17.2 122.52 20.46 119.88 20.46 116.5C20.46 113.96 18.88 112.1 15.74 112.1C13.12 112.1 10.98 113.64 10.88 116.98H13.6C13.62 115.44 14.36 114.48 15.7 114.48C17.08 114.48 17.66 115.36 17.66 116.66C17.66 119.34 14.2 121.92 10.9 124.72V126.8ZM22.5444 119.52C22.5444 123.78 23.8244 126.96 27.9444 126.96C32.0644 126.96 33.3444 123.78 33.3444 119.52C33.3444 115.3 32.0644 112.14 27.9444 112.14C23.8244 112.14 22.5444 115.3 22.5444 119.52ZM30.5844 119.52C30.5844 122.12 30.3044 124.36 27.9444 124.36C25.5844 124.36 25.3044 122.12 25.3044 119.52C25.3044 117.02 25.5844 114.74 27.9444 114.74C30.3044 114.74 30.5844 117.02 30.5844 119.52ZM37.0741 127H39.9541V112.42H35.1341V115H37.0741V127ZM43.3602 122.9C43.5202 125.04 45.0002 127.02 48.1002 127.02C51.9602 127.02 53.0602 124.34 53.0602 119.38C53.0602 114.76 51.8402 112.08 47.8802 112.08C44.8002 112.08 42.9602 114 42.9602 116.92C42.9602 120 44.9802 121.58 47.5002 121.58C48.7802 121.58 49.9602 121.08 50.5802 120.22C50.5802 123.5 49.8602 124.72 48.2202 124.72C46.9202 124.72 46.1802 124.06 45.9602 122.9H43.3602ZM48.0802 119.3C46.3802 119.3 45.6402 118.22 45.6402 116.9C45.6402 115.44 46.5202 114.46 47.9802 114.46C49.4002 114.46 50.3202 115.34 50.3202 116.94C50.3202 118.36 49.4802 119.3 48.0802 119.3Z" fill="white"/>
<path d="M10.9 39.8H20.78V37.48H14.88C17.2 35.52 20.46 32.88 20.46 29.5C20.46 26.96 18.88 25.1 15.74 25.1C13.12 25.1 10.98 26.64 10.88 29.98H13.6C13.62 28.44 14.36 27.48 15.7 27.48C17.08 27.48 17.66 28.36 17.66 29.66C17.66 32.34 14.2 34.92 10.9 37.72V39.8ZM22.5444 32.52C22.5444 36.78 23.8244 39.96 27.9444 39.96C32.0644 39.96 33.3444 36.78 33.3444 32.52C33.3444 28.3 32.0644 25.14 27.9444 25.14C23.8244 25.14 22.5444 28.3 22.5444 32.52ZM30.5844 32.52C30.5844 35.12 30.3044 37.36 27.9444 37.36C25.5844 37.36 25.3044 35.12 25.3044 32.52C25.3044 30.02 25.5844 27.74 27.9444 27.74C30.3044 27.74 30.5844 30.02 30.5844 32.52ZM37.0741 40H39.9541V25.42H35.1341V28H37.0741V40ZM45.1602 32.28C43.7202 32.88 42.8202 34.14 42.8202 35.86C42.8202 38.64 45.1002 40.32 48.0802 40.32C51.0802 40.32 53.3602 38.64 53.3602 35.86C53.3602 34.16 52.4602 32.9 51.0202 32.28C52.1602 31.7 53.0002 30.6 53.0002 29.06C53.0002 26.98 51.4002 25.14 48.0802 25.14C44.7602 25.14 43.1602 26.96 43.1602 29.06C43.1602 30.64 43.9602 31.66 45.1602 32.28ZM48.0802 31.46C46.8202 31.46 45.9002 30.68 45.9002 29.48C45.9002 28.12 46.7802 27.4 48.0802 27.4C49.4202 27.4 50.2802 28.14 50.2802 29.46C50.2802 30.66 49.3602 31.46 48.0802 31.46ZM48.0802 33.5C49.5802 33.5 50.6202 34.3 50.6202 35.74C50.6202 37.02 49.6802 38 48.0802 38C46.4802 38 45.5202 37.04 45.5202 35.74C45.5202 34.26 46.6202 33.5 48.0802 33.5Z" fill="white"/>
<path d="M8.9 213.8H18.78V211.48H12.88C15.2 209.52 18.46 206.88 18.46 203.5C18.46 200.96 16.88 199.1 13.74 199.1C11.12 199.1 8.98 200.64 8.88 203.98H11.6C11.62 202.44 12.36 201.48 13.7 201.48C15.08 201.48 15.66 202.36 15.66 203.66C15.66 206.34 12.2 208.92 8.9 211.72V213.8ZM20.5444 206.52C20.5444 210.78 21.8244 213.96 25.9444 213.96C30.0644 213.96 31.3444 210.78 31.3444 206.52C31.3444 202.3 30.0644 199.14 25.9444 199.14C21.8244 199.14 20.5444 202.3 20.5444 206.52ZM28.5844 206.52C28.5844 209.12 28.3044 211.36 25.9444 211.36C23.5844 211.36 23.3044 209.12 23.3044 206.52C23.3044 204.02 23.5844 201.74 25.9444 201.74C28.3044 201.74 28.5844 204.02 28.5844 206.52ZM33.3141 213.8H43.1941V211.48H37.2941C39.6141 209.52 42.8741 206.88 42.8741 203.5C42.8741 200.96 41.2941 199.1 38.1541 199.1C35.5341 199.1 33.3941 200.64 33.2941 203.98H36.0141C36.0341 202.44 36.7741 201.48 38.1141 201.48C39.4941 201.48 40.0741 202.36 40.0741 203.66C40.0741 206.34 36.6141 208.92 33.3141 211.72V213.8ZM44.9584 206.52C44.9584 210.78 46.2384 213.96 50.3584 213.96C54.4784 213.96 55.7584 210.78 55.7584 206.52C55.7584 202.3 54.4784 199.14 50.3584 199.14C46.2384 199.14 44.9584 202.3 44.9584 206.52ZM52.9984 206.52C52.9984 209.12 52.7184 211.36 50.3584 211.36C47.9984 211.36 47.7184 209.12 47.7184 206.52C47.7184 204.02 47.9984 201.74 50.3584 201.74C52.7184 201.74 52.9984 204.02 52.9984 206.52Z" fill="white"/>
<path d="M11.9 305.8H21.78V303.48H15.88C18.2 301.52 21.46 298.88 21.46 295.5C21.46 292.96 19.88 291.1 16.74 291.1C14.12 291.1 11.98 292.64 11.88 295.98H14.6C14.62 294.44 15.36 293.48 16.7 293.48C18.08 293.48 18.66 294.36 18.66 295.66C18.66 298.34 15.2 300.92 11.9 303.72V305.8ZM23.5444 298.52C23.5444 302.78 24.8244 305.96 28.9444 305.96C33.0644 305.96 34.3444 302.78 34.3444 298.52C34.3444 294.3 33.0644 291.14 28.9444 291.14C24.8244 291.14 23.5444 294.3 23.5444 298.52ZM31.5844 298.52C31.5844 301.12 31.3044 303.36 28.9444 303.36C26.5844 303.36 26.3044 301.12 26.3044 298.52C26.3044 296.02 26.5844 293.74 28.9444 293.74C31.3044 293.74 31.5844 296.02 31.5844 298.52ZM36.3141 305.8H46.1941V303.48H40.2941C42.6141 301.52 45.8741 298.88 45.8741 295.5C45.8741 292.96 44.2941 291.1 41.1541 291.1C38.5341 291.1 36.3941 292.64 36.2941 295.98H39.0141C39.0341 294.44 39.7741 293.48 41.1141 293.48C42.4941 293.48 43.0741 294.36 43.0741 295.66C43.0741 298.34 39.6141 300.92 36.3141 303.72V305.8ZM49.5584 306H52.4384V291.42H47.6184V294H49.5584V306Z" fill="white"/>
<path d="M9.9 396.8H19.78V394.48H13.88C16.2 392.52 19.46 389.88 19.46 386.5C19.46 383.96 17.88 382.1 14.74 382.1C12.12 382.1 9.98 383.64 9.88 386.98H12.6C12.62 385.44 13.36 384.48 14.7 384.48C16.08 384.48 16.66 385.36 16.66 386.66C16.66 389.34 13.2 391.92 9.9 394.72V396.8ZM21.5444 389.52C21.5444 393.78 22.8244 396.96 26.9444 396.96C31.0644 396.96 32.3444 393.78 32.3444 389.52C32.3444 385.3 31.0644 382.14 26.9444 382.14C22.8244 382.14 21.5444 385.3 21.5444 389.52ZM29.5844 389.52C29.5844 392.12 29.3044 394.36 26.9444 394.36C24.5844 394.36 24.3044 392.12 24.3044 389.52C24.3044 387.02 24.5844 384.74 26.9444 384.74C29.3044 384.74 29.5844 387.02 29.5844 389.52ZM34.3141 396.8H44.1941V394.48H38.2941C40.6141 392.52 43.8741 389.88 43.8741 386.5C43.8741 383.96 42.2941 382.1 39.1541 382.1C36.5341 382.1 34.3941 383.64 34.2941 386.98H37.0141C37.0341 385.44 37.7741 384.48 39.1141 384.48C40.4941 384.48 41.0741 385.36 41.0741 386.66C41.0741 389.34 37.6141 391.92 34.3141 394.72V396.8ZM45.7984 396.8H55.6784V394.48H49.7784C52.0984 392.52 55.3584 389.88 55.3584 386.5C55.3584 383.96 53.7784 382.1 50.6384 382.1C48.0184 382.1 45.8784 383.64 45.7784 386.98H48.4984C48.5184 385.44 49.2584 384.48 50.5984 384.48C51.9784 384.48 52.5584 385.36 52.5584 386.66C52.5584 389.34 49.0984 391.92 45.7984 394.72V396.8Z" fill="white"/>
<path d="M176.256 131H180.864V107.672H173.152V111.8H176.256V131ZM186.506 107.608V121.304H190.794C191.274 119.864 192.458 118.84 194.314 118.84C196.842 118.84 198.154 120.28 198.154 122.904C198.154 125.368 196.97 127.224 194.346 127.224C192.17 127.224 190.858 126.04 190.474 124.408H186.122C186.506 128.216 189.386 131 194.41 131C199.722 131 202.474 127.608 202.474 122.84C202.474 119.224 200.618 115.128 195.178 115.128C193.226 115.128 191.466 115.96 190.602 117.016V111.544H200.97V107.608H186.506Z" fill="white"/>
<path d="M178.256 44H182.864V20.672H175.152V24.8H178.256V44ZM187.034 43.68H202.842V39.968H193.402C197.114 36.832 202.33 32.608 202.33 27.2C202.33 23.136 199.802 20.16 194.778 20.16C190.586 20.16 187.162 22.624 187.002 27.968H191.354C191.386 25.504 192.57 23.968 194.714 23.968C196.922 23.968 197.85 25.376 197.85 27.456C197.85 31.744 192.314 35.872 187.034 40.352V43.68Z" fill="white"/>
<path d="M190.116 207H194.036V203.024H196.5V199.608H194.036V186.84H189.472L180.316 199.944V203.024H190.116V207ZM184.628 199.608L190.368 191.04V199.608H184.628Z" fill="white"/>
<path d="M178.256 310H182.864V286.672H175.152V290.8H178.256V310ZM187.034 309.68H202.842V305.968H193.402C197.114 302.832 202.33 298.608 202.33 293.2C202.33 289.136 199.802 286.16 194.778 286.16C190.586 286.16 187.162 288.624 187.002 293.968H191.354C191.386 291.504 192.57 289.968 194.714 289.968C196.922 289.968 197.85 291.376 197.85 293.456C197.85 297.744 192.314 301.872 187.034 306.352V309.68Z" fill="white"/>
<path d="M178.256 401H182.864V377.672H175.152V381.8H178.256V401ZM203.546 383.496C203.194 380.2 200.954 377.128 196.186 377.128C190.266 377.128 187.802 381.352 187.802 388.968C187.802 396.2 189.53 401.064 196.442 401.064C201.434 401.064 204.218 397.768 204.218 393.256C204.218 388.392 201.306 385.64 197.146 385.64C194.874 385.64 192.762 386.6 191.706 388.36C191.77 382.984 193.114 380.808 196.026 380.808C198.042 380.808 198.97 381.768 199.386 383.496H203.546ZM196.122 389.32C198.714 389.32 199.962 390.952 199.962 393.352C199.962 395.752 198.522 397.256 196.218 397.256C193.594 397.256 192.122 395.688 192.122 393.192C192.122 390.536 194.042 389.32 196.122 389.32Z" fill="white"/>
<path d="M86.2929 119.293C85.9024 119.683 85.9024 120.317 86.2929 120.707L92.6569 127.071C93.0474 127.462 93.6805 127.462 94.0711 127.071C94.4616 126.681 94.4616 126.047 94.0711 125.657L88.4142 120L94.0711 114.343C94.4616 113.953 94.4616 113.319 94.0711 112.929C93.6805 112.538 93.0474 112.538 92.6569 112.929L86.2929 119.293ZM127.707 120.707C128.098 120.317 128.098 119.683 127.707 119.293L121.343 112.929C120.953 112.538 120.319 112.538 119.929 112.929C119.538 113.319 119.538 113.953 119.929 114.343L125.586 120L119.929 125.657C119.538 126.047 119.538 126.681 119.929 127.071C120.319 127.462 120.953 127.462 121.343 127.071L127.707 120.707ZM87 121L127 121L127 119L87 119L87 121Z" fill="#F1403F"/>
<path d="M86.2929 32.2929C85.9024 32.6834 85.9024 33.3166 86.2929 33.7071L92.6569 40.0711C93.0474 40.4616 93.6805 40.4616 94.0711 40.0711C94.4616 39.6805 94.4616 39.0474 94.0711 38.6569L88.4142 33L94.0711 27.3431C94.4616 26.9526 94.4616 26.3195 94.0711 25.9289C93.6805 25.5384 93.0474 25.5384 92.6569 25.9289L86.2929 32.2929ZM127.707 33.7071C128.098 33.3166 128.098 32.6834 127.707 32.2929L121.343 25.9289C120.953 25.5384 120.319 25.5384 119.929 25.9289C119.538 26.3195 119.538 26.9526 119.929 27.3431L125.586 33L119.929 38.6569C119.538 39.0474 119.538 39.6805 119.929 40.0711C120.319 40.4616 120.953 40.4616 121.343 40.0711L127.707 33.7071ZM87 34L127 34L127 32L87 32L87 34Z" fill="#E1A0F8"/>
<path d="M86.2929 206.293C85.9024 206.683 85.9024 207.317 86.2929 207.707L92.6569 214.071C93.0474 214.462 93.6805 214.462 94.0711 214.071C94.4616 213.681 94.4616 213.047 94.0711 212.657L88.4142 207L94.0711 201.343C94.4616 200.953 94.4616 200.319 94.0711 199.929C93.6805 199.538 93.0474 199.538 92.6569 199.929L86.2929 206.293ZM127.707 207.707C128.098 207.317 128.098 206.683 127.707 206.293L121.343 199.929C120.953 199.538 120.319 199.538 119.929 199.929C119.538 200.319 119.538 200.953 119.929 201.343L125.586 207L119.929 212.657C119.538 213.047 119.538 213.681 119.929 214.071C120.319 214.462 120.953 214.462 121.343 214.071L127.707 207.707ZM87 208L127 208L127 206L87 206L87 208Z" fill="#19CD77"/>
<path d="M86.2929 298.293C85.9024 298.683 85.9024 299.317 86.2929 299.707L92.6569 306.071C93.0474 306.462 93.6805 306.462 94.0711 306.071C94.4616 305.681 94.4616 305.047 94.0711 304.657L88.4142 299L94.0711 293.343C94.4616 292.953 94.4616 292.319 94.0711 291.929C93.6805 291.538 93.0474 291.538 92.6569 291.929L86.2929 298.293ZM127.707 299.707C128.098 299.317 128.098 298.683 127.707 298.293L121.343 291.929C120.953 291.538 120.319 291.538 119.929 291.929C119.538 292.319 119.538 292.953 119.929 293.343L125.586 299L119.929 304.657C119.538 305.047 119.538 305.681 119.929 306.071C120.319 306.462 120.953 306.462 121.343 306.071L127.707 299.707ZM87 300L127 300L127 298L87 298L87 300Z" fill="#E8D71E"/>
<path d="M86.2929 389.293C85.9024 389.683 85.9024 390.317 86.2929 390.707L92.6569 397.071C93.0474 397.462 93.6805 397.462 94.0711 397.071C94.4616 396.681 94.4616 396.047 94.0711 395.657L88.4142 390L94.0711 384.343C94.4616 383.953 94.4616 383.319 94.0711 382.929C93.6805 382.538 93.0474 382.538 92.6569 382.929L86.2929 389.293ZM127.707 390.707C128.098 390.317 128.098 389.683 127.707 389.293L121.343 382.929C120.953 382.538 120.319 382.538 119.929 382.929C119.538 383.319 119.538 383.953 119.929 384.343L125.586 390L119.929 395.657C119.538 396.047 119.538 396.681 119.929 397.071C120.319 397.462 120.953 397.462 121.343 397.071L127.707 390.707ZM87 391L127 391L127 389L87 389L87 391Z" fill="#63B4EF"/>
<path d="M175.6 221.584C175.6 218.816 173.616 217.04 171.104 217.04C168.592 217.04 166.608 218.816 166.608 221.584C166.608 224.352 168.512 226.144 171.024 226.144C173.552 226.144 175.6 224.352 175.6 221.584ZM168.464 221.584C168.464 219.584 169.696 218.624 171.072 218.624C172.432 218.624 173.728 219.584 173.728 221.584C173.728 223.584 172.384 224.56 171.024 224.56C169.648 224.56 168.464 223.584 168.464 221.584ZM183.659 226H185.467V220.8C185.467 218.336 183.915 217.04 181.851 217.04C180.795 217.04 179.819 217.472 179.227 218.192V217.184H177.403V226H179.227V221.072C179.227 219.456 180.107 218.624 181.451 218.624C182.779 218.624 183.659 219.456 183.659 221.072V226ZM187.794 226H189.618V214.16H187.794V226ZM192.013 226H193.837V217.184H192.013V226ZM192.941 216.016C193.581 216.016 194.093 215.504 194.093 214.848C194.093 214.192 193.581 213.68 192.941 213.68C192.285 213.68 191.773 214.192 191.773 214.848C191.773 215.504 192.285 216.016 192.941 216.016ZM202.487 226H204.295V220.8C204.295 218.336 202.743 217.04 200.679 217.04C199.623 217.04 198.647 217.472 198.055 218.192V217.184H196.231V226H198.055V221.072C198.055 219.456 198.935 218.624 200.279 218.624C201.607 218.624 202.487 219.456 202.487 221.072V226ZM210.334 218.576C211.694 218.576 212.766 219.44 212.798 220.8H207.918C208.11 219.408 209.102 218.576 210.334 218.576ZM214.462 223.376H212.494C212.158 224.064 211.534 224.608 210.414 224.608C209.07 224.608 208.03 223.728 207.902 222.272H214.638C214.686 221.968 214.702 221.68 214.702 221.376C214.702 218.784 212.926 217.04 210.414 217.04C207.806 217.04 206.014 218.816 206.014 221.584C206.014 224.352 207.886 226.144 210.414 226.144C212.574 226.144 213.966 224.912 214.462 223.376Z" fill="white"/>
</svg>
