<svg width="229" height="424" viewBox="0 0 229 424" fill="none" xmlns="http://www.w3.org/2000/svg">
<rect y="87" width="66" height="66" rx="8" fill="#F1403F"/>
<rect width="66" height="66" rx="8" fill="#E1A0F8"/>
<rect x="148" y="87" width="81" height="66" rx="8" fill="#F1403F"/>
<rect x="148" width="81" height="66" rx="8" fill="#E1A0F8"/>
<rect y="174" width="66" height="66" rx="8" fill="#19CD77"/>
<rect x="148" y="174" width="81" height="66" rx="8" fill="#19CD77"/>
<rect y="266" width="66" height="66" rx="8" fill="#E8D71E"/>
<rect x="148" y="266" width="81" height="66" rx="8" fill="#E8D71E"/>
<rect y="358" width="66" height="66" rx="8" fill="#63B4EF"/>
<rect x="148" y="358" width="81" height="66" rx="8" fill="#63B4EF"/>
<path d="M10.9 126.8H20.78V124.48H14.88C17.2 122.52 20.46 119.88 20.46 116.5C20.46 113.96 18.88 112.1 15.74 112.1C13.12 112.1 10.98 113.64 10.88 116.98H13.6C13.62 115.44 14.36 114.48 15.7 114.48C17.08 114.48 17.66 115.36 17.66 116.66C17.66 119.34 14.2 121.92 10.9 124.72V126.8ZM22.5444 119.52C22.5444 123.78 23.8244 126.96 27.9444 126.96C32.0644 126.96 33.3444 123.78 33.3444 119.52C33.3444 115.3 32.0644 112.14 27.9444 112.14C23.8244 112.14 22.5444 115.3 22.5444 119.52ZM30.5844 119.52C30.5844 122.12 30.3044 124.36 27.9444 124.36C25.5844 124.36 25.3044 122.12 25.3044 119.52C25.3044 117.02 25.5844 114.74 27.9444 114.74C30.3044 114.74 30.5844 117.02 30.5844 119.52ZM37.0741 127H39.9541V112.42H35.1341V115H37.0741V127ZM43.3602 122.9C43.5202 125.04 45.0002 127.02 48.1002 127.02C51.9602 127.02 53.0602 124.34 53.0602 119.38C53.0602 114.76 51.8402 112.08 47.8802 112.08C44.8002 112.08 42.9602 114 42.9602 116.92C42.9602 120 44.9802 121.58 47.5002 121.58C48.7802 121.58 49.9602 121.08 50.5802 120.22C50.5802 123.5 49.8602 124.72 48.2202 124.72C46.9202 124.72 46.1802 124.06 45.9602 122.9H43.3602ZM48.0802 119.3C46.3802 119.3 45.6402 118.22 45.6402 116.9C45.6402 115.44 46.5202 114.46 47.9802 114.46C49.4002 114.46 50.3202 115.34 50.3202 116.94C50.3202 118.36 49.4802 119.3 48.0802 119.3Z" fill="white"/>
<path d="M10.9 39.8H20.78V37.48H14.88C17.2 35.52 20.46 32.88 20.46 29.5C20.46 26.96 18.88 25.1 15.74 25.1C13.12 25.1 10.98 26.64 10.88 29.98H13.6C13.62 28.44 14.36 27.48 15.7 27.48C17.08 27.48 17.66 28.36 17.66 29.66C17.66 32.34 14.2 34.92 10.9 37.72V39.8ZM22.5444 32.52C22.5444 36.78 23.8244 39.96 27.9444 39.96C32.0644 39.96 33.3444 36.78 33.3444 32.52C33.3444 28.3 32.0644 25.14 27.9444 25.14C23.8244 25.14 22.5444 28.3 22.5444 32.52ZM30.5844 32.52C30.5844 35.12 30.3044 37.36 27.9444 37.36C25.5844 37.36 25.3044 35.12 25.3044 32.52C25.3044 30.02 25.5844 27.74 27.9444 27.74C30.3044 27.74 30.5844 30.02 30.5844 32.52ZM37.0741 40H39.9541V25.42H35.1341V28H37.0741V40ZM45.1602 32.28C43.7202 32.88 42.8202 34.14 42.8202 35.86C42.8202 38.64 45.1002 40.32 48.0802 40.32C51.0802 40.32 53.3602 38.64 53.3602 35.86C53.3602 34.16 52.4602 32.9 51.0202 32.28C52.1602 31.7 53.0002 30.6 53.0002 29.06C53.0002 26.98 51.4002 25.14 48.0802 25.14C44.7602 25.14 43.1602 26.96 43.1602 29.06C43.1602 30.64 43.9602 31.66 45.1602 32.28ZM48.0802 31.46C46.8202 31.46 45.9002 30.68 45.9002 29.48C45.9002 28.12 46.7802 27.4 48.0802 27.4C49.4202 27.4 50.2802 28.14 50.2802 29.46C50.2802 30.66 49.3602 31.46 48.0802 31.46ZM48.0802 33.5C49.5802 33.5 50.6202 34.3 50.6202 35.74C50.6202 37.02 49.6802 38 48.0802 38C46.4802 38 45.5202 37.04 45.5202 35.74C45.5202 34.26 46.6202 33.5 48.0802 33.5Z" fill="white"/>
<path d="M8.9 213.8H18.78V211.48H12.88C15.2 209.52 18.46 206.88 18.46 203.5C18.46 200.96 16.88 199.1 13.74 199.1C11.12 199.1 8.98 200.64 8.88 203.98H11.6C11.62 202.44 12.36 201.48 13.7 201.48C15.08 201.48 15.66 202.36 15.66 203.66C15.66 206.34 12.2 208.92 8.9 211.72V213.8ZM20.5444 206.52C20.5444 210.78 21.8244 213.96 25.9444 213.96C30.0644 213.96 31.3444 210.78 31.3444 206.52C31.3444 202.3 30.0644 199.14 25.9444 199.14C21.8244 199.14 20.5444 202.3 20.5444 206.52ZM28.5844 206.52C28.5844 209.12 28.3044 211.36 25.9444 211.36C23.5844 211.36 23.3044 209.12 23.3044 206.52C23.3044 204.02 23.5844 201.74 25.9444 201.74C28.3044 201.74 28.5844 204.02 28.5844 206.52ZM33.3141 213.8H43.1941V211.48H37.2941C39.6141 209.52 42.8741 206.88 42.8741 203.5C42.8741 200.96 41.2941 199.1 38.1541 199.1C35.5341 199.1 33.3941 200.64 33.2941 203.98H36.0141C36.0341 202.44 36.7741 201.48 38.1141 201.48C39.4941 201.48 40.0741 202.36 40.0741 203.66C40.0741 206.34 36.6141 208.92 33.3141 211.72V213.8ZM44.9584 206.52C44.9584 210.78 46.2384 213.96 50.3584 213.96C54.4784 213.96 55.7584 210.78 55.7584 206.52C55.7584 202.3 54.4784 199.14 50.3584 199.14C46.2384 199.14 44.9584 202.3 44.9584 206.52ZM52.9984 206.52C52.9984 209.12 52.7184 211.36 50.3584 211.36C47.9984 211.36 47.7184 209.12 47.7184 206.52C47.7184 204.02 47.9984 201.74 50.3584 201.74C52.7184 201.74 52.9984 204.02 52.9984 206.52Z" fill="white"/>
<path d="M11.9 305.8H21.78V303.48H15.88C18.2 301.52 21.46 298.88 21.46 295.5C21.46 292.96 19.88 291.1 16.74 291.1C14.12 291.1 11.98 292.64 11.88 295.98H14.6C14.62 294.44 15.36 293.48 16.7 293.48C18.08 293.48 18.66 294.36 18.66 295.66C18.66 298.34 15.2 300.92 11.9 303.72V305.8ZM23.5444 298.52C23.5444 302.78 24.8244 305.96 28.9444 305.96C33.0644 305.96 34.3444 302.78 34.3444 298.52C34.3444 294.3 33.0644 291.14 28.9444 291.14C24.8244 291.14 23.5444 294.3 23.5444 298.52ZM31.5844 298.52C31.5844 301.12 31.3044 303.36 28.9444 303.36C26.5844 303.36 26.3044 301.12 26.3044 298.52C26.3044 296.02 26.5844 293.74 28.9444 293.74C31.3044 293.74 31.5844 296.02 31.5844 298.52ZM36.3141 305.8H46.1941V303.48H40.2941C42.6141 301.52 45.8741 298.88 45.8741 295.5C45.8741 292.96 44.2941 291.1 41.1541 291.1C38.5341 291.1 36.3941 292.64 36.2941 295.98H39.0141C39.0341 294.44 39.7741 293.48 41.1141 293.48C42.4941 293.48 43.0741 294.36 43.0741 295.66C43.0741 298.34 39.6141 300.92 36.3141 303.72V305.8ZM49.5584 306H52.4384V291.42H47.6184V294H49.5584V306Z" fill="white"/>
<path d="M9.9 396.8H19.78V394.48H13.88C16.2 392.52 19.46 389.88 19.46 386.5C19.46 383.96 17.88 382.1 14.74 382.1C12.12 382.1 9.98 383.64 9.88 386.98H12.6C12.62 385.44 13.36 384.48 14.7 384.48C16.08 384.48 16.66 385.36 16.66 386.66C16.66 389.34 13.2 391.92 9.9 394.72V396.8ZM21.5444 389.52C21.5444 393.78 22.8244 396.96 26.9444 396.96C31.0644 396.96 32.3444 393.78 32.3444 389.52C32.3444 385.3 31.0644 382.14 26.9444 382.14C22.8244 382.14 21.5444 385.3 21.5444 389.52ZM29.5844 389.52C29.5844 392.12 29.3044 394.36 26.9444 394.36C24.5844 394.36 24.3044 392.12 24.3044 389.52C24.3044 387.02 24.5844 384.74 26.9444 384.74C29.3044 384.74 29.5844 387.02 29.5844 389.52ZM34.3141 396.8H44.1941V394.48H38.2941C40.6141 392.52 43.8741 389.88 43.8741 386.5C43.8741 383.96 42.2941 382.1 39.1541 382.1C36.5341 382.1 34.3941 383.64 34.2941 386.98H37.0141C37.0341 385.44 37.7741 384.48 39.1141 384.48C40.4941 384.48 41.0741 385.36 41.0741 386.66C41.0741 389.34 37.6141 391.92 34.3141 394.72V396.8ZM45.7984 396.8H55.6784V394.48H49.7784C52.0984 392.52 55.3584 389.88 55.3584 386.5C55.3584 383.96 53.7784 382.1 50.6384 382.1C48.0184 382.1 45.8784 383.64 45.7784 386.98H48.4984C48.5184 385.44 49.2584 384.48 50.5984 384.48C51.9784 384.48 52.5584 385.36 52.5584 386.66C52.5584 389.34 49.0984 391.92 45.7984 394.72V396.8Z" fill="white"/>
<path d="M160.76 113.816H165.144C165.304 112.344 166.232 110.936 168.408 110.936C170.456 110.936 171.576 112.024 171.576 113.848C171.576 116.152 169.656 116.888 167.032 116.888H166.104V120.568H167.032C170.36 120.568 172.024 121.528 172.024 124.152C172.024 126.008 170.872 127.416 168.632 127.416C166.232 127.416 164.888 125.976 164.792 123.96H160.44C160.632 128.856 164.12 131.16 168.728 131.16C173.624 131.16 176.312 128.344 176.312 124.536C176.312 121.368 174.744 119.448 172.376 118.712V118.584C174.072 118.008 175.896 116.216 175.896 113.304C175.896 109.848 173.336 107.128 168.536 107.128C164.056 107.128 160.984 109.496 160.76 113.816ZM179.596 130.68H195.404V126.968H185.964C189.676 123.832 194.892 119.608 194.892 114.2C194.892 110.136 192.364 107.16 187.34 107.16C183.148 107.16 179.724 109.624 179.564 114.968H183.916C183.948 112.504 185.132 110.968 187.276 110.968C189.484 110.968 190.412 112.376 190.412 114.456C190.412 118.744 184.876 122.872 179.596 127.352V130.68ZM209.235 131H213.715V126.456H216.531V122.552H213.715V107.96H208.499L198.035 122.936V126.456H209.235V131ZM202.963 122.552L209.523 112.76V122.552H202.963Z" fill="white"/>
<path d="M167.256 44H171.864V20.672H164.152V24.8H167.256V44ZM177.314 37.44C177.57 40.864 179.938 44.032 184.898 44.032C191.074 44.032 192.834 39.744 192.834 31.808C192.834 24.416 190.882 20.128 184.546 20.128C179.618 20.128 176.674 23.2 176.674 27.872C176.674 32.8 179.906 35.328 183.938 35.328C185.986 35.328 187.874 34.528 188.866 33.152C188.866 38.4 187.714 40.352 185.09 40.352C183.01 40.352 181.826 39.296 181.474 37.44H177.314ZM184.866 31.68C182.146 31.68 180.962 29.952 180.962 27.84C180.962 25.504 182.37 23.936 184.706 23.936C186.978 23.936 188.45 25.344 188.45 27.904C188.45 30.176 187.106 31.68 184.866 31.68ZM200.225 31.648C197.921 32.608 196.481 34.624 196.481 37.376C196.481 41.824 200.129 44.512 204.897 44.512C209.697 44.512 213.345 41.824 213.345 37.376C213.345 34.656 211.905 32.64 209.601 31.648C211.425 30.72 212.769 28.96 212.769 26.496C212.769 23.168 210.209 20.224 204.897 20.224C199.585 20.224 197.025 23.136 197.025 26.496C197.025 29.024 198.305 30.656 200.225 31.648ZM204.897 30.336C202.881 30.336 201.409 29.088 201.409 27.168C201.409 24.992 202.817 23.84 204.897 23.84C207.041 23.84 208.417 25.024 208.417 27.136C208.417 29.056 206.945 30.336 204.897 30.336ZM204.897 33.6C207.297 33.6 208.961 34.88 208.961 37.184C208.961 39.232 207.457 40.8 204.897 40.8C202.337 40.8 200.801 39.264 200.801 37.184C200.801 34.816 202.561 33.6 204.897 33.6Z" fill="white"/>
<path d="M167.256 218H171.864V194.672H164.152V198.8H167.256V218ZM176.354 200.816H180.738C180.898 199.344 181.826 197.936 184.002 197.936C186.05 197.936 187.17 199.024 187.17 200.848C187.17 203.152 185.25 203.888 182.626 203.888H181.698V207.568H182.626C185.954 207.568 187.618 208.528 187.618 211.152C187.618 213.008 186.466 214.416 184.226 214.416C181.826 214.416 180.482 212.976 180.386 210.96H176.034C176.226 215.856 179.714 218.16 184.322 218.16C189.218 218.16 191.906 215.344 191.906 211.536C191.906 208.368 190.338 206.448 187.97 205.712V205.584C189.666 205.008 191.49 203.216 191.49 200.304C191.49 196.848 188.93 194.128 184.13 194.128C179.65 194.128 176.578 196.496 176.354 200.816ZM195.19 217.68H210.998V213.968H201.558C205.27 210.832 210.486 206.608 210.486 201.2C210.486 197.136 207.958 194.16 202.934 194.16C198.742 194.16 195.318 196.624 195.158 201.968H199.51C199.542 199.504 200.726 197.968 202.87 197.968C205.078 197.968 206.006 199.376 206.006 201.456C206.006 205.744 200.47 209.872 195.19 214.352V217.68Z" fill="white"/>
<path d="M158.76 292.816H163.144C163.304 291.344 164.232 289.936 166.408 289.936C168.456 289.936 169.576 291.024 169.576 292.848C169.576 295.152 167.656 295.888 165.032 295.888H164.104V299.568H165.032C168.36 299.568 170.024 300.528 170.024 303.152C170.024 305.008 168.872 306.416 166.632 306.416C164.232 306.416 162.888 304.976 162.792 302.96H158.44C158.632 307.856 162.12 310.16 166.728 310.16C171.624 310.16 174.312 307.344 174.312 303.536C174.312 300.368 172.744 298.448 170.376 297.712V297.584C172.072 297.008 173.896 295.216 173.896 292.304C173.896 288.848 171.336 286.128 166.536 286.128C162.056 286.128 158.984 288.496 158.76 292.816ZM177.852 298.032C177.852 304.848 179.9 309.936 186.492 309.936C193.084 309.936 195.132 304.848 195.132 298.032C195.132 291.28 193.084 286.224 186.492 286.224C179.9 286.224 177.852 291.28 177.852 298.032ZM190.716 298.032C190.716 302.192 190.268 305.776 186.492 305.776C182.716 305.776 182.268 302.192 182.268 298.032C182.268 294.032 182.716 290.384 186.492 290.384C190.268 290.384 190.716 294.032 190.716 298.032ZM214.796 292.496C214.444 289.2 212.204 286.128 207.436 286.128C201.516 286.128 199.052 290.352 199.052 297.968C199.052 305.2 200.78 310.064 207.692 310.064C212.684 310.064 215.468 306.768 215.468 302.256C215.468 297.392 212.556 294.64 208.396 294.64C206.124 294.64 204.012 295.6 202.956 297.36C203.02 291.984 204.364 289.808 207.276 289.808C209.292 289.808 210.22 290.768 210.636 292.496H214.796ZM207.372 298.32C209.964 298.32 211.212 299.952 211.212 302.352C211.212 304.752 209.772 306.256 207.468 306.256C204.844 306.256 203.372 304.688 203.372 302.192C203.372 299.536 205.292 298.32 207.372 298.32Z" fill="white"/>
<path d="M167.152 383.8V379.672H174.864V403H170.256V383.8H167.152ZM194.138 383.064L185.626 403H181.082L189.658 383.576H178.714V379.736H194.138V383.064ZM198.229 397.944C200.277 396.237 201.909 394.819 203.125 393.688C204.341 392.536 205.354 391.341 206.165 390.104C206.976 388.867 207.381 387.651 207.381 386.456C207.381 385.368 207.125 384.515 206.613 383.896C206.101 383.277 205.312 382.968 204.245 382.968C203.178 382.968 202.357 383.331 201.781 384.056C201.205 384.76 200.906 385.731 200.885 386.968H196.533C196.618 384.408 197.376 382.467 198.805 381.144C200.256 379.821 202.09 379.16 204.309 379.16C206.741 379.16 208.608 379.811 209.909 381.112C211.21 382.392 211.861 384.088 211.861 386.2C211.861 387.864 211.413 389.453 210.517 390.968C209.621 392.483 208.597 393.805 207.445 394.936C206.293 396.045 204.789 397.389 202.933 398.968H212.373V402.68H196.565V399.352L198.229 397.944Z" fill="white"/>
<path d="M86.2929 119.293C85.9024 119.683 85.9024 120.317 86.2929 120.707L92.6569 127.071C93.0474 127.462 93.6805 127.462 94.0711 127.071C94.4616 126.681 94.4616 126.047 94.0711 125.657L88.4142 120L94.0711 114.343C94.4616 113.953 94.4616 113.319 94.0711 112.929C93.6805 112.538 93.0474 112.538 92.6569 112.929L86.2929 119.293ZM127.707 120.707C128.098 120.317 128.098 119.683 127.707 119.293L121.343 112.929C120.953 112.538 120.319 112.538 119.929 112.929C119.538 113.319 119.538 113.953 119.929 114.343L125.586 120L119.929 125.657C119.538 126.047 119.538 126.681 119.929 127.071C120.319 127.462 120.953 127.462 121.343 127.071L127.707 120.707ZM87 121L127 121L127 119L87 119L87 121Z" fill="#F1403F"/>
<path d="M86.2929 32.2929C85.9024 32.6834 85.9024 33.3166 86.2929 33.7071L92.6569 40.0711C93.0474 40.4616 93.6805 40.4616 94.0711 40.0711C94.4616 39.6805 94.4616 39.0474 94.0711 38.6569L88.4142 33L94.0711 27.3431C94.4616 26.9526 94.4616 26.3195 94.0711 25.9289C93.6805 25.5384 93.0474 25.5384 92.6569 25.9289L86.2929 32.2929ZM127.707 33.7071C128.098 33.3166 128.098 32.6834 127.707 32.2929L121.343 25.9289C120.953 25.5384 120.319 25.5384 119.929 25.9289C119.538 26.3195 119.538 26.9526 119.929 27.3431L125.586 33L119.929 38.6569C119.538 39.0474 119.538 39.6805 119.929 40.0711C120.319 40.4616 120.953 40.4616 121.343 40.0711L127.707 33.7071ZM87 34L127 34L127 32L87 32L87 34Z" fill="#E1A0F8"/>
<path d="M86.2929 206.293C85.9024 206.683 85.9024 207.317 86.2929 207.707L92.6569 214.071C93.0474 214.462 93.6805 214.462 94.0711 214.071C94.4616 213.681 94.4616 213.047 94.0711 212.657L88.4142 207L94.0711 201.343C94.4616 200.953 94.4616 200.319 94.0711 199.929C93.6805 199.538 93.0474 199.538 92.6569 199.929L86.2929 206.293ZM127.707 207.707C128.098 207.317 128.098 206.683 127.707 206.293L121.343 199.929C120.953 199.538 120.319 199.538 119.929 199.929C119.538 200.319 119.538 200.953 119.929 201.343L125.586 207L119.929 212.657C119.538 213.047 119.538 213.681 119.929 214.071C120.319 214.462 120.953 214.462 121.343 214.071L127.707 207.707ZM87 208L127 208L127 206L87 206L87 208Z" fill="#19CD77"/>
<path d="M86.2929 298.293C85.9024 298.683 85.9024 299.317 86.2929 299.707L92.6569 306.071C93.0474 306.462 93.6805 306.462 94.0711 306.071C94.4616 305.681 94.4616 305.047 94.0711 304.657L88.4142 299L94.0711 293.343C94.4616 292.953 94.4616 292.319 94.0711 291.929C93.6805 291.538 93.0474 291.538 92.6569 291.929L86.2929 298.293ZM127.707 299.707C128.098 299.317 128.098 298.683 127.707 298.293L121.343 291.929C120.953 291.538 120.319 291.538 119.929 291.929C119.538 292.319 119.538 292.953 119.929 293.343L125.586 299L119.929 304.657C119.538 305.047 119.538 305.681 119.929 306.071C120.319 306.462 120.953 306.462 121.343 306.071L127.707 299.707ZM87 300L127 300L127 298L87 298L87 300Z" fill="#E8D71E"/>
<path d="M86.2929 389.293C85.9024 389.683 85.9024 390.317 86.2929 390.707L92.6569 397.071C93.0474 397.462 93.6805 397.462 94.0711 397.071C94.4616 396.681 94.4616 396.047 94.0711 395.657L88.4142 390L94.0711 384.343C94.4616 383.953 94.4616 383.319 94.0711 382.929C93.6805 382.538 93.0474 382.538 92.6569 382.929L86.2929 389.293ZM127.707 390.707C128.098 390.317 128.098 389.683 127.707 389.293L121.343 382.929C120.953 382.538 120.319 382.538 119.929 382.929C119.538 383.319 119.538 383.953 119.929 384.343L125.586 390L119.929 395.657C119.538 396.047 119.538 396.681 119.929 397.071C120.319 397.462 120.953 397.462 121.343 397.071L127.707 390.707ZM87 391L127 391L127 389L87 389L87 391Z" fill="#63B4EF"/>
</svg>
