<svg width="229" height="424" viewBox="0 0 229 424" fill="none" xmlns="http://www.w3.org/2000/svg">
<rect y="87" width="66" height="66" rx="8" fill="#F1403F"/>
<rect width="66" height="66" rx="8" fill="#E1A0F8"/>
<rect x="148" y="87" width="81" height="66" rx="8" fill="#F1403F"/>
<rect x="148" width="81" height="66" rx="8" fill="#E1A0F8"/>
<rect y="174" width="66" height="66" rx="8" fill="#19CD77"/>
<rect x="148" y="174" width="81" height="66" rx="8" fill="#19CD77"/>
<rect y="266" width="66" height="66" rx="8" fill="#E8D71E"/>
<rect x="148" y="266" width="81" height="66" rx="8" fill="#E8D71E"/>
<rect y="358" width="66" height="66" rx="8" fill="#63B4EF"/>
<rect x="148" y="358" width="81" height="66" rx="8" fill="#63B4EF"/>
<path d="M10.9 126.8H20.78V124.48H14.88C17.2 122.52 20.46 119.88 20.46 116.5C20.46 113.96 18.88 112.1 15.74 112.1C13.12 112.1 10.98 113.64 10.88 116.98H13.6C13.62 115.44 14.36 114.48 15.7 114.48C17.08 114.48 17.66 115.36 17.66 116.66C17.66 119.34 14.2 121.92 10.9 124.72V126.8ZM22.5444 119.52C22.5444 123.78 23.8244 126.96 27.9444 126.96C32.0644 126.96 33.3444 123.78 33.3444 119.52C33.3444 115.3 32.0644 112.14 27.9444 112.14C23.8244 112.14 22.5444 115.3 22.5444 119.52ZM30.5844 119.52C30.5844 122.12 30.3044 124.36 27.9444 124.36C25.5844 124.36 25.3044 122.12 25.3044 119.52C25.3044 117.02 25.5844 114.74 27.9444 114.74C30.3044 114.74 30.5844 117.02 30.5844 119.52ZM37.0741 127H39.9541V112.42H35.1341V115H37.0741V127ZM43.3602 122.9C43.5202 125.04 45.0002 127.02 48.1002 127.02C51.9602 127.02 53.0602 124.34 53.0602 119.38C53.0602 114.76 51.8402 112.08 47.8802 112.08C44.8002 112.08 42.9602 114 42.9602 116.92C42.9602 120 44.9802 121.58 47.5002 121.58C48.7802 121.58 49.9602 121.08 50.5802 120.22C50.5802 123.5 49.8602 124.72 48.2202 124.72C46.9202 124.72 46.1802 124.06 45.9602 122.9H43.3602ZM48.0802 119.3C46.3802 119.3 45.6402 118.22 45.6402 116.9C45.6402 115.44 46.5202 114.46 47.9802 114.46C49.4002 114.46 50.3202 115.34 50.3202 116.94C50.3202 118.36 49.4802 119.3 48.0802 119.3Z" fill="white"/>
<path d="M10.9 39.8H20.78V37.48H14.88C17.2 35.52 20.46 32.88 20.46 29.5C20.46 26.96 18.88 25.1 15.74 25.1C13.12 25.1 10.98 26.64 10.88 29.98H13.6C13.62 28.44 14.36 27.48 15.7 27.48C17.08 27.48 17.66 28.36 17.66 29.66C17.66 32.34 14.2 34.92 10.9 37.72V39.8ZM22.5444 32.52C22.5444 36.78 23.8244 39.96 27.9444 39.96C32.0644 39.96 33.3444 36.78 33.3444 32.52C33.3444 28.3 32.0644 25.14 27.9444 25.14C23.8244 25.14 22.5444 28.3 22.5444 32.52ZM30.5844 32.52C30.5844 35.12 30.3044 37.36 27.9444 37.36C25.5844 37.36 25.3044 35.12 25.3044 32.52C25.3044 30.02 25.5844 27.74 27.9444 27.74C30.3044 27.74 30.5844 30.02 30.5844 32.52ZM37.0741 40H39.9541V25.42H35.1341V28H37.0741V40ZM45.1602 32.28C43.7202 32.88 42.8202 34.14 42.8202 35.86C42.8202 38.64 45.1002 40.32 48.0802 40.32C51.0802 40.32 53.3602 38.64 53.3602 35.86C53.3602 34.16 52.4602 32.9 51.0202 32.28C52.1602 31.7 53.0002 30.6 53.0002 29.06C53.0002 26.98 51.4002 25.14 48.0802 25.14C44.7602 25.14 43.1602 26.96 43.1602 29.06C43.1602 30.64 43.9602 31.66 45.1602 32.28ZM48.0802 31.46C46.8202 31.46 45.9002 30.68 45.9002 29.48C45.9002 28.12 46.7802 27.4 48.0802 27.4C49.4202 27.4 50.2802 28.14 50.2802 29.46C50.2802 30.66 49.3602 31.46 48.0802 31.46ZM48.0802 33.5C49.5802 33.5 50.6202 34.3 50.6202 35.74C50.6202 37.02 49.6802 38 48.0802 38C46.4802 38 45.5202 37.04 45.5202 35.74C45.5202 34.26 46.6202 33.5 48.0802 33.5Z" fill="white"/>
<path d="M8.9 213.8H18.78V211.48H12.88C15.2 209.52 18.46 206.88 18.46 203.5C18.46 200.96 16.88 199.1 13.74 199.1C11.12 199.1 8.98 200.64 8.88 203.98H11.6C11.62 202.44 12.36 201.48 13.7 201.48C15.08 201.48 15.66 202.36 15.66 203.66C15.66 206.34 12.2 208.92 8.9 211.72V213.8ZM20.5444 206.52C20.5444 210.78 21.8244 213.96 25.9444 213.96C30.0644 213.96 31.3444 210.78 31.3444 206.52C31.3444 202.3 30.0644 199.14 25.9444 199.14C21.8244 199.14 20.5444 202.3 20.5444 206.52ZM28.5844 206.52C28.5844 209.12 28.3044 211.36 25.9444 211.36C23.5844 211.36 23.3044 209.12 23.3044 206.52C23.3044 204.02 23.5844 201.74 25.9444 201.74C28.3044 201.74 28.5844 204.02 28.5844 206.52ZM33.3141 213.8H43.1941V211.48H37.2941C39.6141 209.52 42.8741 206.88 42.8741 203.5C42.8741 200.96 41.2941 199.1 38.1541 199.1C35.5341 199.1 33.3941 200.64 33.2941 203.98H36.0141C36.0341 202.44 36.7741 201.48 38.1141 201.48C39.4941 201.48 40.0741 202.36 40.0741 203.66C40.0741 206.34 36.6141 208.92 33.3141 211.72V213.8ZM44.9584 206.52C44.9584 210.78 46.2384 213.96 50.3584 213.96C54.4784 213.96 55.7584 210.78 55.7584 206.52C55.7584 202.3 54.4784 199.14 50.3584 199.14C46.2384 199.14 44.9584 202.3 44.9584 206.52ZM52.9984 206.52C52.9984 209.12 52.7184 211.36 50.3584 211.36C47.9984 211.36 47.7184 209.12 47.7184 206.52C47.7184 204.02 47.9984 201.74 50.3584 201.74C52.7184 201.74 52.9984 204.02 52.9984 206.52Z" fill="white"/>
<path d="M11.9 305.8H21.78V303.48H15.88C18.2 301.52 21.46 298.88 21.46 295.5C21.46 292.96 19.88 291.1 16.74 291.1C14.12 291.1 11.98 292.64 11.88 295.98H14.6C14.62 294.44 15.36 293.48 16.7 293.48C18.08 293.48 18.66 294.36 18.66 295.66C18.66 298.34 15.2 300.92 11.9 303.72V305.8ZM23.5444 298.52C23.5444 302.78 24.8244 305.96 28.9444 305.96C33.0644 305.96 34.3444 302.78 34.3444 298.52C34.3444 294.3 33.0644 291.14 28.9444 291.14C24.8244 291.14 23.5444 294.3 23.5444 298.52ZM31.5844 298.52C31.5844 301.12 31.3044 303.36 28.9444 303.36C26.5844 303.36 26.3044 301.12 26.3044 298.52C26.3044 296.02 26.5844 293.74 28.9444 293.74C31.3044 293.74 31.5844 296.02 31.5844 298.52ZM36.3141 305.8H46.1941V303.48H40.2941C42.6141 301.52 45.8741 298.88 45.8741 295.5C45.8741 292.96 44.2941 291.1 41.1541 291.1C38.5341 291.1 36.3941 292.64 36.2941 295.98H39.0141C39.0341 294.44 39.7741 293.48 41.1141 293.48C42.4941 293.48 43.0741 294.36 43.0741 295.66C43.0741 298.34 39.6141 300.92 36.3141 303.72V305.8ZM49.5584 306H52.4384V291.42H47.6184V294H49.5584V306Z" fill="white"/>
<path d="M9.9 396.8H19.78V394.48H13.88C16.2 392.52 19.46 389.88 19.46 386.5C19.46 383.96 17.88 382.1 14.74 382.1C12.12 382.1 9.98 383.64 9.88 386.98H12.6C12.62 385.44 13.36 384.48 14.7 384.48C16.08 384.48 16.66 385.36 16.66 386.66C16.66 389.34 13.2 391.92 9.9 394.72V396.8ZM21.5444 389.52C21.5444 393.78 22.8244 396.96 26.9444 396.96C31.0644 396.96 32.3444 393.78 32.3444 389.52C32.3444 385.3 31.0644 382.14 26.9444 382.14C22.8244 382.14 21.5444 385.3 21.5444 389.52ZM29.5844 389.52C29.5844 392.12 29.3044 394.36 26.9444 394.36C24.5844 394.36 24.3044 392.12 24.3044 389.52C24.3044 387.02 24.5844 384.74 26.9444 384.74C29.3044 384.74 29.5844 387.02 29.5844 389.52ZM34.3141 396.8H44.1941V394.48H38.2941C40.6141 392.52 43.8741 389.88 43.8741 386.5C43.8741 383.96 42.2941 382.1 39.1541 382.1C36.5341 382.1 34.3941 383.64 34.2941 386.98H37.0141C37.0341 385.44 37.7741 384.48 39.1141 384.48C40.4941 384.48 41.0741 385.36 41.0741 386.66C41.0741 389.34 37.6141 391.92 34.3141 394.72V396.8ZM45.7984 396.8H55.6784V394.48H49.7784C52.0984 392.52 55.3584 389.88 55.3584 386.5C55.3584 383.96 53.7784 382.1 50.6384 382.1C48.0184 382.1 45.8784 383.64 45.7784 386.98H48.4984C48.5184 385.44 49.2584 384.48 50.5984 384.48C51.9784 384.48 52.5584 385.36 52.5584 386.66C52.5584 389.34 49.0984 391.92 45.7984 394.72V396.8Z" fill="white"/>
<path d="M167.256 131H171.864V107.672H164.152V111.8H167.256V131ZM176.354 113.816H180.738C180.898 112.344 181.826 110.936 184.002 110.936C186.05 110.936 187.17 112.024 187.17 113.848C187.17 116.152 185.25 116.888 182.626 116.888H181.698V120.568H182.626C185.954 120.568 187.618 121.528 187.618 124.152C187.618 126.008 186.466 127.416 184.226 127.416C181.826 127.416 180.482 125.976 180.386 123.96H176.034C176.226 128.856 179.714 131.16 184.322 131.16C189.218 131.16 191.906 128.344 191.906 124.536C191.906 121.368 190.338 119.448 187.97 118.712V118.584C189.666 118.008 191.49 116.216 191.49 113.304C191.49 109.848 188.93 107.128 184.13 107.128C179.65 107.128 176.578 109.496 176.354 113.816ZM206.454 131H210.934V126.456H213.75V122.552H210.934V107.96H205.718L195.254 122.936V126.456H206.454V131ZM200.182 122.552L206.742 112.76V122.552H200.182Z" fill="white"/>
<path d="M167.256 44H171.864V20.672H164.152V24.8H167.256V44ZM176.29 32.032C176.29 38.848 178.338 43.936 184.93 43.936C191.522 43.936 193.57 38.848 193.57 32.032C193.57 25.28 191.522 20.224 184.93 20.224C178.338 20.224 176.29 25.28 176.29 32.032ZM189.154 32.032C189.154 36.192 188.706 39.776 184.93 39.776C181.154 39.776 180.706 36.192 180.706 32.032C180.706 28.032 181.154 24.384 184.93 24.384C188.706 24.384 189.154 28.032 189.154 32.032ZM197.041 26.816H201.425C201.585 25.344 202.513 23.936 204.689 23.936C206.737 23.936 207.857 25.024 207.857 26.848C207.857 29.152 205.937 29.888 203.313 29.888H202.385V33.568H203.313C206.641 33.568 208.305 34.528 208.305 37.152C208.305 39.008 207.153 40.416 204.913 40.416C202.513 40.416 201.169 38.976 201.073 36.96H196.721C196.913 41.856 200.401 44.16 205.009 44.16C209.905 44.16 212.593 41.344 212.593 37.536C212.593 34.368 211.025 32.448 208.657 31.712V31.584C210.353 31.008 212.177 29.216 212.177 26.304C212.177 22.848 209.617 20.128 204.817 20.128C200.337 20.128 197.265 22.496 197.041 26.816Z" fill="white"/>
<path d="M171.912 194.608V208.304H176.2C176.68 206.864 177.864 205.84 179.72 205.84C182.248 205.84 183.56 207.28 183.56 209.904C183.56 212.368 182.376 214.224 179.752 214.224C177.576 214.224 176.264 213.04 175.88 211.408H171.528C171.912 215.216 174.792 218 179.816 218C185.128 218 187.88 214.608 187.88 209.84C187.88 206.224 186.024 202.128 180.584 202.128C178.632 202.128 176.872 202.96 176.008 204.016V198.544H186.376V194.608H171.912ZM191.354 200.816H195.738C195.898 199.344 196.826 197.936 199.002 197.936C201.05 197.936 202.17 199.024 202.17 200.848C202.17 203.152 200.25 203.888 197.626 203.888H196.698V207.568H197.626C200.954 207.568 202.618 208.528 202.618 211.152C202.618 213.008 201.466 214.416 199.226 214.416C196.826 214.416 195.482 212.976 195.386 210.96H191.034C191.226 215.856 194.714 218.16 199.322 218.16C204.218 218.16 206.906 215.344 206.906 211.536C206.906 208.368 205.338 206.448 202.97 205.712V205.584C204.666 205.008 206.49 203.216 206.49 200.304C206.49 196.848 203.93 194.128 199.13 194.128C194.65 194.128 191.578 196.496 191.354 200.816Z" fill="white"/>
<path d="M173.6 297.648C171.296 298.608 169.856 300.624 169.856 303.376C169.856 307.824 173.504 310.512 178.272 310.512C183.072 310.512 186.72 307.824 186.72 303.376C186.72 300.656 185.28 298.64 182.976 297.648C184.8 296.72 186.144 294.96 186.144 292.496C186.144 289.168 183.584 286.224 178.272 286.224C172.96 286.224 170.4 289.136 170.4 292.496C170.4 295.024 171.68 296.656 173.6 297.648ZM178.272 296.336C176.256 296.336 174.784 295.088 174.784 293.168C174.784 290.992 176.192 289.84 178.272 289.84C180.416 289.84 181.792 291.024 181.792 293.136C181.792 295.056 180.32 296.336 178.272 296.336ZM178.272 299.6C180.672 299.6 182.336 300.88 182.336 303.184C182.336 305.232 180.832 306.8 178.272 306.8C175.712 306.8 174.176 305.264 174.176 303.184C174.176 300.816 175.936 299.6 178.272 299.6ZM191.475 286.608V300.304H195.763C196.243 298.864 197.427 297.84 199.283 297.84C201.811 297.84 203.123 299.28 203.123 301.904C203.123 304.368 201.939 306.224 199.315 306.224C197.139 306.224 195.827 305.04 195.443 303.408H191.091C191.475 307.216 194.355 310 199.379 310C204.691 310 207.443 306.608 207.443 301.84C207.443 298.224 205.587 294.128 200.147 294.128C198.195 294.128 196.435 294.96 195.571 296.016V290.544H205.939V286.608H191.475Z" fill="white"/>
<path d="M181.792 385.496C181.579 384.6 181.205 383.928 180.672 383.48C180.16 383.032 179.413 382.808 178.432 382.808C176.96 382.808 175.872 383.405 175.168 384.6C174.485 385.773 174.133 387.693 174.112 390.36C174.624 389.507 175.371 388.845 176.352 388.376C177.333 387.885 178.4 387.64 179.552 387.64C180.939 387.64 182.165 387.939 183.232 388.536C184.299 389.133 185.131 390.008 185.728 391.16C186.325 392.291 186.624 393.656 186.624 395.256C186.624 396.771 186.315 398.125 185.696 399.32C185.099 400.493 184.213 401.411 183.04 402.072C181.867 402.733 180.469 403.064 178.848 403.064C176.629 403.064 174.88 402.573 173.6 401.592C172.341 400.611 171.456 399.245 170.944 397.496C170.453 395.725 170.208 393.549 170.208 390.968C170.208 387.064 170.88 384.12 172.224 382.136C173.568 380.131 175.691 379.128 178.592 379.128C180.832 379.128 182.571 379.736 183.808 380.952C185.045 382.168 185.76 383.683 185.952 385.496H181.792ZM178.528 391.32C177.397 391.32 176.448 391.651 175.68 392.312C174.912 392.973 174.528 393.933 174.528 395.192C174.528 396.451 174.88 397.443 175.584 398.168C176.309 398.893 177.323 399.256 178.624 399.256C179.776 399.256 180.683 398.904 181.344 398.2C182.027 397.496 182.368 396.547 182.368 395.352C182.368 394.115 182.037 393.133 181.376 392.408C180.736 391.683 179.787 391.32 178.528 391.32ZM189.973 398.456V394.936L200.437 379.96H205.653V394.552H208.469V398.456H205.653V403H201.173V398.456H189.973ZM201.461 384.76L194.901 394.552H201.461V384.76Z" fill="white"/>
<path d="M86.2929 119.293C85.9024 119.683 85.9024 120.317 86.2929 120.707L92.6569 127.071C93.0474 127.462 93.6805 127.462 94.0711 127.071C94.4616 126.681 94.4616 126.047 94.0711 125.657L88.4142 120L94.0711 114.343C94.4616 113.953 94.4616 113.319 94.0711 112.929C93.6805 112.538 93.0474 112.538 92.6569 112.929L86.2929 119.293ZM127.707 120.707C128.098 120.317 128.098 119.683 127.707 119.293L121.343 112.929C120.953 112.538 120.319 112.538 119.929 112.929C119.538 113.319 119.538 113.953 119.929 114.343L125.586 120L119.929 125.657C119.538 126.047 119.538 126.681 119.929 127.071C120.319 127.462 120.953 127.462 121.343 127.071L127.707 120.707ZM87 121L127 121L127 119L87 119L87 121Z" fill="#F1403F"/>
<path d="M86.2929 32.2929C85.9024 32.6834 85.9024 33.3166 86.2929 33.7071L92.6569 40.0711C93.0474 40.4616 93.6805 40.4616 94.0711 40.0711C94.4616 39.6805 94.4616 39.0474 94.0711 38.6569L88.4142 33L94.0711 27.3431C94.4616 26.9526 94.4616 26.3195 94.0711 25.9289C93.6805 25.5384 93.0474 25.5384 92.6569 25.9289L86.2929 32.2929ZM127.707 33.7071C128.098 33.3166 128.098 32.6834 127.707 32.2929L121.343 25.9289C120.953 25.5384 120.319 25.5384 119.929 25.9289C119.538 26.3195 119.538 26.9526 119.929 27.3431L125.586 33L119.929 38.6569C119.538 39.0474 119.538 39.6805 119.929 40.0711C120.319 40.4616 120.953 40.4616 121.343 40.0711L127.707 33.7071ZM87 34L127 34L127 32L87 32L87 34Z" fill="#E1A0F8"/>
<path d="M86.2929 206.293C85.9024 206.683 85.9024 207.317 86.2929 207.707L92.6569 214.071C93.0474 214.462 93.6805 214.462 94.0711 214.071C94.4616 213.681 94.4616 213.047 94.0711 212.657L88.4142 207L94.0711 201.343C94.4616 200.953 94.4616 200.319 94.0711 199.929C93.6805 199.538 93.0474 199.538 92.6569 199.929L86.2929 206.293ZM127.707 207.707C128.098 207.317 128.098 206.683 127.707 206.293L121.343 199.929C120.953 199.538 120.319 199.538 119.929 199.929C119.538 200.319 119.538 200.953 119.929 201.343L125.586 207L119.929 212.657C119.538 213.047 119.538 213.681 119.929 214.071C120.319 214.462 120.953 214.462 121.343 214.071L127.707 207.707ZM87 208L127 208L127 206L87 206L87 208Z" fill="#19CD77"/>
<path d="M86.2929 298.293C85.9024 298.683 85.9024 299.317 86.2929 299.707L92.6569 306.071C93.0474 306.462 93.6805 306.462 94.0711 306.071C94.4616 305.681 94.4616 305.047 94.0711 304.657L88.4142 299L94.0711 293.343C94.4616 292.953 94.4616 292.319 94.0711 291.929C93.6805 291.538 93.0474 291.538 92.6569 291.929L86.2929 298.293ZM127.707 299.707C128.098 299.317 128.098 298.683 127.707 298.293L121.343 291.929C120.953 291.538 120.319 291.538 119.929 291.929C119.538 292.319 119.538 292.953 119.929 293.343L125.586 299L119.929 304.657C119.538 305.047 119.538 305.681 119.929 306.071C120.319 306.462 120.953 306.462 121.343 306.071L127.707 299.707ZM87 300L127 300L127 298L87 298L87 300Z" fill="#E8D71E"/>
<path d="M86.2929 389.293C85.9024 389.683 85.9024 390.317 86.2929 390.707L92.6569 397.071C93.0474 397.462 93.6805 397.462 94.0711 397.071C94.4616 396.681 94.4616 396.047 94.0711 395.657L88.4142 390L94.0711 384.343C94.4616 383.953 94.4616 383.319 94.0711 382.929C93.6805 382.538 93.0474 382.538 92.6569 382.929L86.2929 389.293ZM127.707 390.707C128.098 390.317 128.098 389.683 127.707 389.293L121.343 382.929C120.953 382.538 120.319 382.538 119.929 382.929C119.538 383.319 119.538 383.953 119.929 384.343L125.586 390L119.929 395.657C119.538 396.047 119.538 396.681 119.929 397.071C120.319 397.462 120.953 397.462 121.343 397.071L127.707 390.707ZM87 391L127 391L127 389L87 389L87 391Z" fill="#63B4EF"/>
</svg>
