<svg width="34" height="34" viewBox="0 0 34 34" fill="none" xmlns="http://www.w3.org/2000/svg">
<path fill-rule="evenodd" clip-rule="evenodd" d="M23.3325 34V20.8335H27.7525L28.4138 15.7029H23.3308V12.427C23.3308 10.9412 23.7439 9.928 25.8757 9.928H28.5923V5.338C27.2767 5.19799 25.9544 5.12989 24.6313 5.134C20.7145 5.134 18.0336 7.5259 18.0336 11.917V15.7029H13.6V20.8335H18.0319V34H1.8768C0.8398 34 0 33.1602 0 32.1232V1.8768C0 0.8398 0.8398 0 1.8768 0H32.1232C33.1602 0 34 0.8398 34 1.8768V32.1232C34 33.1602 33.1602 34 32.1232 34H23.3325Z" fill="black"/>
</svg>
