<svg width="34" height="34" viewBox="0 0 34 34" fill="none" xmlns="http://www.w3.org/2000/svg">
<path fill-rule="evenodd" clip-rule="evenodd" d="M17 0C12.3828 0 11.8048 0.0203999 9.9909 0.102C8.1821 0.1853 6.9462 0.4726 5.865 0.8925C4.73023 1.31894 3.70218 1.98786 2.8526 2.8526C1.98791 3.70221 1.31899 4.73025 0.8925 5.865C0.4726 6.9462 0.1853 8.1821 0.102 9.9909C0.0186999 11.8048 0 12.3828 0 17C0 21.6172 0.0186999 22.1952 0.102 24.0091C0.1853 25.8179 0.4726 27.0538 0.8925 28.135C1.31903 29.2697 1.98795 30.2978 2.8526 31.1474C3.70225 32.0121 4.73028 32.681 5.865 33.1075C6.9462 33.5274 8.1821 33.8147 9.9909 33.898C11.8048 33.9796 12.3828 34 17 34C21.6172 34 22.1952 33.9796 24.0091 33.898C25.8179 33.8147 27.0538 33.5274 28.135 33.1075C29.2697 32.681 30.2978 32.0121 31.1474 31.1474C32.0121 30.2978 32.681 29.2697 33.1075 28.135C33.5274 27.0538 33.8147 25.8179 33.898 24.0091C33.9796 22.1952 34 21.6172 34 17C34 12.3828 33.9796 11.8048 33.898 9.9909C33.8147 8.1821 33.5274 6.9462 33.1075 5.865C32.681 4.73025 32.0121 3.70221 31.1474 2.8526C30.2978 1.98786 29.2698 1.31894 28.135 0.8925C27.0538 0.4726 25.8179 0.1853 24.0091 0.102C22.1952 0.0203999 21.6172 0 17 0ZM17 3.0634C21.539 3.0634 22.0762 3.0804 23.868 3.162C25.5272 3.2385 26.4265 3.5139 27.0266 3.7468C27.8188 4.0562 28.3866 4.4251 28.9816 5.0184C29.5766 5.6134 29.9438 6.1812 30.2532 6.9734C30.4844 7.5735 30.7632 8.4728 30.838 10.1303C30.9196 11.9238 30.9366 12.4593 30.9366 17C30.9366 21.539 30.9196 22.0762 30.838 23.868C30.7615 25.5272 30.4844 26.4265 30.2532 27.0266C29.9807 27.7651 29.5462 28.4331 28.9816 28.9816C28.3866 29.5766 27.8188 29.9438 27.0266 30.2532C26.4265 30.4844 25.5272 30.7632 23.8697 30.838C22.0779 30.9196 21.5407 30.9366 17 30.9366C12.461 30.9366 11.9221 30.9196 10.132 30.838C8.4728 30.7615 7.5735 30.4844 6.9734 30.2532C6.23489 29.9808 5.56685 29.5462 5.0184 28.9816C4.45376 28.4332 4.01924 27.7651 3.7468 27.0266C3.5139 26.4265 3.2368 25.5272 3.162 23.8697C3.0804 22.0762 3.0634 21.5407 3.0634 17C3.0634 12.461 3.0804 11.9238 3.162 10.132C3.2385 8.4728 3.5139 7.5735 3.7468 6.9734C4.0562 6.1812 4.4251 5.6134 5.0184 5.0184C5.6134 4.4234 6.1812 4.0562 6.9734 3.7468C7.5735 3.5139 8.4728 3.2368 10.1303 3.162C11.9238 3.0804 12.4593 3.0634 17 3.0634ZM17 22.6661C15.4973 22.6661 14.0561 22.0691 12.9935 21.0065C11.9309 19.9439 11.3339 18.5027 11.3339 17C11.3339 15.4973 11.9309 14.0561 12.9935 12.9935C14.0561 11.9309 15.4973 11.3339 17 11.3339C18.5027 11.3339 19.9439 11.9309 21.0065 12.9935C22.0691 14.0561 22.6661 15.4973 22.6661 17C22.6661 18.5027 22.0691 19.9439 21.0065 21.0065C19.9439 22.0691 18.5027 22.6661 17 22.6661ZM17 8.2705C15.8536 8.2705 14.7185 8.49629 13.6594 8.93499C12.6003 9.37369 11.6379 10.0167 10.8273 10.8273C10.0167 11.6379 9.37369 12.6003 8.93499 13.6594C8.49629 14.7185 8.2705 15.8536 8.2705 17C8.2705 18.1464 8.49629 19.2815 8.93499 20.3406C9.37369 21.3997 10.0167 22.3621 10.8273 23.1727C11.6379 23.9833 12.6003 24.6263 13.6594 25.065C14.7185 25.5037 15.8536 25.7295 17 25.7295C19.3152 25.7295 21.5356 24.8098 23.1727 23.1727C24.8098 21.5356 25.7295 19.3152 25.7295 17C25.7295 14.6848 24.8098 12.4644 23.1727 10.8273C21.5356 9.19021 19.3152 8.2705 17 8.2705ZM28.1146 7.9254C28.1146 8.1933 28.0618 8.45857 27.9593 8.70607C27.8568 8.95358 27.7065 9.17847 27.5171 9.3679C27.3277 9.55733 27.1028 9.70759 26.8553 9.81011C26.6078 9.91263 26.3425 9.9654 26.0746 9.9654C25.8067 9.9654 25.5414 9.91263 25.2939 9.81011C25.0464 9.70759 24.8215 9.55733 24.6321 9.3679C24.4427 9.17847 24.2924 8.95358 24.1899 8.70607C24.0874 8.45857 24.0346 8.1933 24.0346 7.9254C24.0346 7.38436 24.2495 6.86548 24.6321 6.4829C25.0147 6.10033 25.5336 5.8854 26.0746 5.8854C26.6156 5.8854 27.1345 6.10033 27.5171 6.4829C27.8997 6.86548 28.1146 7.38436 28.1146 7.9254Z" fill="black"/>
</svg>
