<svg width="34" height="34" viewBox="0 0 34 34" fill="none" xmlns="http://www.w3.org/2000/svg">
<path d="M24.412 20.4C24.548 19.278 24.65 18.156 24.65 17C24.65 15.844 24.548 14.722 24.412 13.6H30.158C30.43 14.688 30.6 15.827 30.6 17C30.6 18.173 30.43 19.312 30.158 20.4M21.403 29.852C22.423 27.965 23.205 25.925 23.749 23.8H28.764C27.117 26.6361 24.504 28.7844 21.403 29.852ZM20.978 20.4H13.022C12.852 19.278 12.75 18.156 12.75 17C12.75 15.844 12.852 14.705 13.022 13.6H20.978C21.131 14.705 21.25 15.844 21.25 17C21.25 18.156 21.131 19.278 20.978 20.4ZM17 30.532C15.589 28.492 14.45 26.231 13.753 23.8H20.247C19.55 26.231 18.411 28.492 17 30.532ZM10.2 10.2H5.236C6.86606 7.35627 9.47715 5.20453 12.58 4.148C11.56 6.035 10.795 8.075 10.2 10.2ZM5.236 23.8H10.2C10.795 25.925 11.56 27.965 12.58 29.852C9.48366 28.7838 6.87624 26.6351 5.236 23.8ZM3.842 20.4C3.57 19.312 3.4 18.173 3.4 17C3.4 15.827 3.57 14.688 3.842 13.6H9.588C9.452 14.722 9.35 15.844 9.35 17C9.35 18.156 9.452 19.278 9.588 20.4M17 3.451C18.411 5.491 19.55 7.769 20.247 10.2H13.753C14.45 7.769 15.589 5.491 17 3.451ZM28.764 10.2H23.749C23.2169 8.09448 22.4291 6.06202 21.403 4.148C24.531 5.219 27.132 7.378 28.764 10.2ZM17 0C7.599 0 0 7.65 0 17C0 21.5087 1.79107 25.8327 4.97918 29.0208C6.55778 30.5994 8.43185 31.8516 10.4944 32.706C12.5569 33.5603 14.7675 34 17 34C21.5087 34 25.8327 32.2089 29.0208 29.0208C32.2089 25.8327 34 21.5087 34 17C34 14.7675 33.5603 12.5569 32.706 10.4944C31.8516 8.43185 30.5994 6.55778 29.0208 4.97918C27.4422 3.40059 25.5682 2.14838 23.5056 1.29405C21.4431 0.439718 19.2325 0 17 0Z" fill="black"/>
</svg>
