<svg width="294" height="370" viewBox="0 0 294 370" fill="none" xmlns="http://www.w3.org/2000/svg">
<rect y="76" width="66" height="66" rx="8" fill="#F1403F"/>
<rect width="66" height="66" rx="8" fill="#E1A0F8"/>
<rect x="135" y="76" width="154" height="66" rx="8" fill="#F1403F"/>
<rect x="135" width="154" height="66" rx="8" fill="#E1A0F8"/>
<rect y="152" width="66" height="66" rx="8" fill="#19CD77"/>
<rect x="135" y="152" width="154" height="66" rx="8" fill="#19CD77"/>
<rect y="228" width="66" height="66" rx="8" fill="#E8D71E"/>
<rect x="135" y="228" width="154" height="66" rx="8" fill="#E8D71E"/>
<rect y="304" width="66" height="66" rx="8" fill="#63B4EF"/>
<rect x="135" y="304" width="154" height="66" rx="8" fill="#63B4EF"/>
<path d="M11.94 112.84C13.22 111.773 14.24 110.887 15 110.18C15.76 109.46 16.3933 108.713 16.9 107.94C17.4067 107.167 17.66 106.407 17.66 105.66C17.66 104.98 17.5 104.447 17.18 104.06C16.86 103.673 16.3667 103.48 15.7 103.48C15.0333 103.48 14.52 103.707 14.16 104.16C13.8 104.6 13.6133 105.207 13.6 105.98H10.88C10.9333 104.38 11.4067 103.167 12.3 102.34C13.2067 101.513 14.3533 101.1 15.74 101.1C17.26 101.1 18.4267 101.507 19.24 102.32C20.0533 103.12 20.46 104.18 20.46 105.5C20.46 106.54 20.18 107.533 19.62 108.48C19.06 109.427 18.42 110.253 17.7 110.96C16.98 111.653 16.04 112.493 14.88 113.48H20.78V115.8H10.9V113.72L11.94 112.84ZM22.5444 108.52C22.5444 106.213 22.9577 104.407 23.7844 103.1C24.6244 101.793 26.011 101.14 27.9444 101.14C29.8777 101.14 31.2577 101.793 32.0844 103.1C32.9244 104.407 33.3444 106.213 33.3444 108.52C33.3444 110.84 32.9244 112.66 32.0844 113.98C31.2577 115.3 29.8777 115.96 27.9444 115.96C26.011 115.96 24.6244 115.3 23.7844 113.98C22.9577 112.66 22.5444 110.84 22.5444 108.52ZM30.5844 108.52C30.5844 107.533 30.5177 106.707 30.3844 106.04C30.2644 105.36 30.011 104.807 29.6244 104.38C29.251 103.953 28.691 103.74 27.9444 103.74C27.1977 103.74 26.631 103.953 26.2444 104.38C25.871 104.807 25.6177 105.36 25.4844 106.04C25.3644 106.707 25.3044 107.533 25.3044 108.52C25.3044 109.533 25.3644 110.387 25.4844 111.08C25.6044 111.76 25.8577 112.313 26.2444 112.74C26.631 113.153 27.1977 113.36 27.9444 113.36C28.691 113.36 29.2577 113.153 29.6444 112.74C30.031 112.313 30.2844 111.76 30.4044 111.08C30.5244 110.387 30.5844 109.533 30.5844 108.52ZM35.1341 104V101.42H39.9541V116H37.0741V104H35.1341ZM45.9602 111.9C46.0668 112.487 46.3068 112.94 46.6802 113.26C47.0668 113.567 47.5802 113.72 48.2202 113.72C49.0468 113.72 49.6468 113.38 50.0202 112.7C50.3935 112.007 50.5802 110.847 50.5802 109.22C50.2735 109.647 49.8402 109.98 49.2802 110.22C48.7335 110.46 48.1402 110.58 47.5002 110.58C46.6468 110.58 45.8735 110.407 45.1802 110.06C44.5002 109.7 43.9602 109.173 43.5602 108.48C43.1602 107.773 42.9602 106.92 42.9602 105.92C42.9602 104.44 43.4002 103.267 44.2802 102.4C45.1602 101.52 46.3602 101.08 47.8802 101.08C49.7735 101.08 51.1068 101.687 51.8802 102.9C52.6668 104.113 53.0602 105.94 53.0602 108.38C53.0602 110.113 52.9068 111.533 52.6002 112.64C52.3068 113.747 51.7935 114.587 51.0602 115.16C50.3402 115.733 49.3535 116.02 48.1002 116.02C47.1135 116.02 46.2735 115.833 45.5802 115.46C44.8868 115.073 44.3535 114.573 43.9802 113.96C43.6202 113.333 43.4135 112.647 43.3602 111.9H45.9602ZM48.0802 108.3C48.7735 108.3 49.3202 108.087 49.7202 107.66C50.1202 107.233 50.3202 106.66 50.3202 105.94C50.3202 105.153 50.1068 104.547 49.6802 104.12C49.2668 103.68 48.7002 103.46 47.9802 103.46C47.2602 103.46 46.6868 103.687 46.2602 104.14C45.8468 104.58 45.6402 105.167 45.6402 105.9C45.6402 106.607 45.8402 107.187 46.2402 107.64C46.6535 108.08 47.2668 108.3 48.0802 108.3Z" fill="white"/>
<path d="M11.94 36.84C13.22 35.7733 14.24 34.8867 15 34.18C15.76 33.46 16.3933 32.7133 16.9 31.94C17.4067 31.1667 17.66 30.4067 17.66 29.66C17.66 28.98 17.5 28.4467 17.18 28.06C16.86 27.6733 16.3667 27.48 15.7 27.48C15.0333 27.48 14.52 27.7067 14.16 28.16C13.8 28.6 13.6133 29.2067 13.6 29.98H10.88C10.9333 28.38 11.4067 27.1667 12.3 26.34C13.2067 25.5133 14.3533 25.1 15.74 25.1C17.26 25.1 18.4267 25.5067 19.24 26.32C20.0533 27.12 20.46 28.18 20.46 29.5C20.46 30.54 20.18 31.5333 19.62 32.48C19.06 33.4267 18.42 34.2533 17.7 34.96C16.98 35.6533 16.04 36.4933 14.88 37.48H20.78V39.8H10.9V37.72L11.94 36.84ZM22.5444 32.52C22.5444 30.2133 22.9577 28.4067 23.7844 27.1C24.6244 25.7933 26.011 25.14 27.9444 25.14C29.8777 25.14 31.2577 25.7933 32.0844 27.1C32.9244 28.4067 33.3444 30.2133 33.3444 32.52C33.3444 34.84 32.9244 36.66 32.0844 37.98C31.2577 39.3 29.8777 39.96 27.9444 39.96C26.011 39.96 24.6244 39.3 23.7844 37.98C22.9577 36.66 22.5444 34.84 22.5444 32.52ZM30.5844 32.52C30.5844 31.5333 30.5177 30.7067 30.3844 30.04C30.2644 29.36 30.011 28.8067 29.6244 28.38C29.251 27.9533 28.691 27.74 27.9444 27.74C27.1977 27.74 26.631 27.9533 26.2444 28.38C25.871 28.8067 25.6177 29.36 25.4844 30.04C25.3644 30.7067 25.3044 31.5333 25.3044 32.52C25.3044 33.5333 25.3644 34.3867 25.4844 35.08C25.6044 35.76 25.8577 36.3133 26.2444 36.74C26.631 37.1533 27.1977 37.36 27.9444 37.36C28.691 37.36 29.2577 37.1533 29.6444 36.74C30.031 36.3133 30.2844 35.76 30.4044 35.08C30.5244 34.3867 30.5844 33.5333 30.5844 32.52ZM35.1341 28V25.42H39.9541V40H37.0741V28H35.1341ZM45.1602 32.28C43.8268 31.5867 43.1602 30.5133 43.1602 29.06C43.1602 28.34 43.3402 27.6867 43.7002 27.1C44.0735 26.5 44.6268 26.0267 45.3602 25.68C46.1068 25.32 47.0135 25.14 48.0802 25.14C49.1468 25.14 50.0468 25.32 50.7802 25.68C51.5268 26.0267 52.0802 26.5 52.4402 27.1C52.8135 27.6867 53.0002 28.34 53.0002 29.06C53.0002 29.7933 52.8202 30.44 52.4602 31C52.1002 31.5467 51.6202 31.9733 51.0202 32.28C51.7535 32.6 52.3268 33.0667 52.7402 33.68C53.1535 34.2933 53.3602 35.02 53.3602 35.86C53.3602 36.7667 53.1268 37.56 52.6602 38.24C52.2068 38.9067 51.5802 39.42 50.7802 39.78C49.9802 40.14 49.0802 40.32 48.0802 40.32C47.0802 40.32 46.1802 40.14 45.3802 39.78C44.5935 39.42 43.9668 38.9067 43.5002 38.24C43.0468 37.56 42.8202 36.7667 42.8202 35.86C42.8202 35.02 43.0268 34.2933 43.4402 33.68C43.8535 33.0533 44.4268 32.5867 45.1602 32.28ZM50.2802 29.46C50.2802 28.8067 50.0802 28.3 49.6802 27.94C49.2935 27.58 48.7602 27.4 48.0802 27.4C47.4135 27.4 46.8802 27.58 46.4802 27.94C46.0935 28.3 45.9002 28.8133 45.9002 29.48C45.9002 30.08 46.1002 30.56 46.5002 30.92C46.9135 31.28 47.4402 31.46 48.0802 31.46C48.7202 31.46 49.2468 31.28 49.6602 30.92C50.0735 30.5467 50.2802 30.06 50.2802 29.46ZM48.0802 33.5C47.3202 33.5 46.7002 33.6933 46.2202 34.08C45.7535 34.4667 45.5202 35.02 45.5202 35.74C45.5202 36.4067 45.7468 36.9533 46.2002 37.38C46.6668 37.7933 47.2935 38 48.0802 38C48.8668 38 49.4868 37.7867 49.9402 37.36C50.3935 36.9333 50.6202 36.3933 50.6202 35.74C50.6202 35.0333 50.3868 34.4867 49.9202 34.1C49.4535 33.7 48.8402 33.5 48.0802 33.5Z" fill="white"/>
<path d="M9.94 188.84C11.22 187.773 12.24 186.887 13 186.18C13.76 185.46 14.3933 184.713 14.9 183.94C15.4067 183.167 15.66 182.407 15.66 181.66C15.66 180.98 15.5 180.447 15.18 180.06C14.86 179.673 14.3667 179.48 13.7 179.48C13.0333 179.48 12.52 179.707 12.16 180.16C11.8 180.6 11.6133 181.207 11.6 181.98H8.88C8.93333 180.38 9.40667 179.167 10.3 178.34C11.2067 177.513 12.3533 177.1 13.74 177.1C15.26 177.1 16.4267 177.507 17.24 178.32C18.0533 179.12 18.46 180.18 18.46 181.5C18.46 182.54 18.18 183.533 17.62 184.48C17.06 185.427 16.42 186.253 15.7 186.96C14.98 187.653 14.04 188.493 12.88 189.48H18.78V191.8H8.9V189.72L9.94 188.84ZM20.5444 184.52C20.5444 182.213 20.9577 180.407 21.7844 179.1C22.6244 177.793 24.011 177.14 25.9444 177.14C27.8777 177.14 29.2577 177.793 30.0844 179.1C30.9244 180.407 31.3444 182.213 31.3444 184.52C31.3444 186.84 30.9244 188.66 30.0844 189.98C29.2577 191.3 27.8777 191.96 25.9444 191.96C24.011 191.96 22.6244 191.3 21.7844 189.98C20.9577 188.66 20.5444 186.84 20.5444 184.52ZM28.5844 184.52C28.5844 183.533 28.5177 182.707 28.3844 182.04C28.2644 181.36 28.011 180.807 27.6244 180.38C27.251 179.953 26.691 179.74 25.9444 179.74C25.1977 179.74 24.631 179.953 24.2444 180.38C23.871 180.807 23.6177 181.36 23.4844 182.04C23.3644 182.707 23.3044 183.533 23.3044 184.52C23.3044 185.533 23.3644 186.387 23.4844 187.08C23.6044 187.76 23.8577 188.313 24.2444 188.74C24.631 189.153 25.1977 189.36 25.9444 189.36C26.691 189.36 27.2577 189.153 27.6444 188.74C28.031 188.313 28.2844 187.76 28.4044 187.08C28.5244 186.387 28.5844 185.533 28.5844 184.52ZM34.3541 188.84C35.6341 187.773 36.6541 186.887 37.4141 186.18C38.1741 185.46 38.8074 184.713 39.3141 183.94C39.8207 183.167 40.0741 182.407 40.0741 181.66C40.0741 180.98 39.9141 180.447 39.5941 180.06C39.2741 179.673 38.7807 179.48 38.1141 179.48C37.4474 179.48 36.9341 179.707 36.5741 180.16C36.2141 180.6 36.0274 181.207 36.0141 181.98H33.2941C33.3474 180.38 33.8207 179.167 34.7141 178.34C35.6207 177.513 36.7674 177.1 38.1541 177.1C39.6741 177.1 40.8407 177.507 41.6541 178.32C42.4674 179.12 42.8741 180.18 42.8741 181.5C42.8741 182.54 42.5941 183.533 42.0341 184.48C41.4741 185.427 40.8341 186.253 40.1141 186.96C39.3941 187.653 38.4541 188.493 37.2941 189.48H43.1941V191.8H33.3141V189.72L34.3541 188.84ZM44.9584 184.52C44.9584 182.213 45.3718 180.407 46.1984 179.1C47.0384 177.793 48.4251 177.14 50.3584 177.14C52.2918 177.14 53.6718 177.793 54.4984 179.1C55.3384 180.407 55.7584 182.213 55.7584 184.52C55.7584 186.84 55.3384 188.66 54.4984 189.98C53.6718 191.3 52.2918 191.96 50.3584 191.96C48.4251 191.96 47.0384 191.3 46.1984 189.98C45.3718 188.66 44.9584 186.84 44.9584 184.52ZM52.9984 184.52C52.9984 183.533 52.9318 182.707 52.7984 182.04C52.6784 181.36 52.4251 180.807 52.0384 180.38C51.6651 179.953 51.1051 179.74 50.3584 179.74C49.6118 179.74 49.0451 179.953 48.6584 180.38C48.2851 180.807 48.0318 181.36 47.8984 182.04C47.7784 182.707 47.7184 183.533 47.7184 184.52C47.7184 185.533 47.7784 186.387 47.8984 187.08C48.0184 187.76 48.2718 188.313 48.6584 188.74C49.0451 189.153 49.6118 189.36 50.3584 189.36C51.1051 189.36 51.6718 189.153 52.0584 188.74C52.4451 188.313 52.6984 187.76 52.8184 187.08C52.9384 186.387 52.9984 185.533 52.9984 184.52Z" fill="white"/>
<path d="M12.94 264.84C14.22 263.773 15.24 262.887 16 262.18C16.76 261.46 17.3933 260.713 17.9 259.94C18.4067 259.167 18.66 258.407 18.66 257.66C18.66 256.98 18.5 256.447 18.18 256.06C17.86 255.673 17.3667 255.48 16.7 255.48C16.0333 255.48 15.52 255.707 15.16 256.16C14.8 256.6 14.6133 257.207 14.6 257.98H11.88C11.9333 256.38 12.4067 255.167 13.3 254.34C14.2067 253.513 15.3533 253.1 16.74 253.1C18.26 253.1 19.4267 253.507 20.24 254.32C21.0533 255.12 21.46 256.18 21.46 257.5C21.46 258.54 21.18 259.533 20.62 260.48C20.06 261.427 19.42 262.253 18.7 262.96C17.98 263.653 17.04 264.493 15.88 265.48H21.78V267.8H11.9V265.72L12.94 264.84ZM23.5444 260.52C23.5444 258.213 23.9577 256.407 24.7844 255.1C25.6244 253.793 27.011 253.14 28.9444 253.14C30.8777 253.14 32.2577 253.793 33.0844 255.1C33.9244 256.407 34.3444 258.213 34.3444 260.52C34.3444 262.84 33.9244 264.66 33.0844 265.98C32.2577 267.3 30.8777 267.96 28.9444 267.96C27.011 267.96 25.6244 267.3 24.7844 265.98C23.9577 264.66 23.5444 262.84 23.5444 260.52ZM31.5844 260.52C31.5844 259.533 31.5177 258.707 31.3844 258.04C31.2644 257.36 31.011 256.807 30.6244 256.38C30.251 255.953 29.691 255.74 28.9444 255.74C28.1977 255.74 27.631 255.953 27.2444 256.38C26.871 256.807 26.6177 257.36 26.4844 258.04C26.3644 258.707 26.3044 259.533 26.3044 260.52C26.3044 261.533 26.3644 262.387 26.4844 263.08C26.6044 263.76 26.8577 264.313 27.2444 264.74C27.631 265.153 28.1977 265.36 28.9444 265.36C29.691 265.36 30.2577 265.153 30.6444 264.74C31.031 264.313 31.2844 263.76 31.4044 263.08C31.5244 262.387 31.5844 261.533 31.5844 260.52ZM37.3541 264.84C38.6341 263.773 39.6541 262.887 40.4141 262.18C41.1741 261.46 41.8074 260.713 42.3141 259.94C42.8207 259.167 43.0741 258.407 43.0741 257.66C43.0741 256.98 42.9141 256.447 42.5941 256.06C42.2741 255.673 41.7807 255.48 41.1141 255.48C40.4474 255.48 39.9341 255.707 39.5741 256.16C39.2141 256.6 39.0274 257.207 39.0141 257.98H36.2941C36.3474 256.38 36.8207 255.167 37.7141 254.34C38.6207 253.513 39.7674 253.1 41.1541 253.1C42.6741 253.1 43.8407 253.507 44.6541 254.32C45.4674 255.12 45.8741 256.18 45.8741 257.5C45.8741 258.54 45.5941 259.533 45.0341 260.48C44.4741 261.427 43.8341 262.253 43.1141 262.96C42.3941 263.653 41.4541 264.493 40.2941 265.48H46.1941V267.8H36.3141V265.72L37.3541 264.84ZM47.6184 256V253.42H52.4384V268H49.5584V256H47.6184Z" fill="white"/>
<path d="M10.94 339.84C12.22 338.773 13.24 337.887 14 337.18C14.76 336.46 15.3933 335.713 15.9 334.94C16.4067 334.167 16.66 333.407 16.66 332.66C16.66 331.98 16.5 331.447 16.18 331.06C15.86 330.673 15.3667 330.48 14.7 330.48C14.0333 330.48 13.52 330.707 13.16 331.16C12.8 331.6 12.6133 332.207 12.6 332.98H9.88C9.93333 331.38 10.4067 330.167 11.3 329.34C12.2067 328.513 13.3533 328.1 14.74 328.1C16.26 328.1 17.4267 328.507 18.24 329.32C19.0533 330.12 19.46 331.18 19.46 332.5C19.46 333.54 19.18 334.533 18.62 335.48C18.06 336.427 17.42 337.253 16.7 337.96C15.98 338.653 15.04 339.493 13.88 340.48H19.78V342.8H9.9V340.72L10.94 339.84ZM21.5444 335.52C21.5444 333.213 21.9577 331.407 22.7844 330.1C23.6244 328.793 25.011 328.14 26.9444 328.14C28.8777 328.14 30.2577 328.793 31.0844 330.1C31.9244 331.407 32.3444 333.213 32.3444 335.52C32.3444 337.84 31.9244 339.66 31.0844 340.98C30.2577 342.3 28.8777 342.96 26.9444 342.96C25.011 342.96 23.6244 342.3 22.7844 340.98C21.9577 339.66 21.5444 337.84 21.5444 335.52ZM29.5844 335.52C29.5844 334.533 29.5177 333.707 29.3844 333.04C29.2644 332.36 29.011 331.807 28.6244 331.38C28.251 330.953 27.691 330.74 26.9444 330.74C26.1977 330.74 25.631 330.953 25.2444 331.38C24.871 331.807 24.6177 332.36 24.4844 333.04C24.3644 333.707 24.3044 334.533 24.3044 335.52C24.3044 336.533 24.3644 337.387 24.4844 338.08C24.6044 338.76 24.8577 339.313 25.2444 339.74C25.631 340.153 26.1977 340.36 26.9444 340.36C27.691 340.36 28.2577 340.153 28.6444 339.74C29.031 339.313 29.2844 338.76 29.4044 338.08C29.5244 337.387 29.5844 336.533 29.5844 335.52ZM35.3541 339.84C36.6341 338.773 37.6541 337.887 38.4141 337.18C39.1741 336.46 39.8074 335.713 40.3141 334.94C40.8207 334.167 41.0741 333.407 41.0741 332.66C41.0741 331.98 40.9141 331.447 40.5941 331.06C40.2741 330.673 39.7807 330.48 39.1141 330.48C38.4474 330.48 37.9341 330.707 37.5741 331.16C37.2141 331.6 37.0274 332.207 37.0141 332.98H34.2941C34.3474 331.38 34.8207 330.167 35.7141 329.34C36.6207 328.513 37.7674 328.1 39.1541 328.1C40.6741 328.1 41.8407 328.507 42.6541 329.32C43.4674 330.12 43.8741 331.18 43.8741 332.5C43.8741 333.54 43.5941 334.533 43.0341 335.48C42.4741 336.427 41.8341 337.253 41.1141 337.96C40.3941 338.653 39.4541 339.493 38.2941 340.48H44.1941V342.8H34.3141V340.72L35.3541 339.84ZM46.8384 339.84C48.1184 338.773 49.1384 337.887 49.8984 337.18C50.6584 336.46 51.2918 335.713 51.7984 334.94C52.3051 334.167 52.5584 333.407 52.5584 332.66C52.5584 331.98 52.3984 331.447 52.0784 331.06C51.7584 330.673 51.2651 330.48 50.5984 330.48C49.9318 330.48 49.4184 330.707 49.0584 331.16C48.6984 331.6 48.5118 332.207 48.4984 332.98H45.7784C45.8318 331.38 46.3051 330.167 47.1984 329.34C48.1051 328.513 49.2518 328.1 50.6384 328.1C52.1584 328.1 53.3251 328.507 54.1384 329.32C54.9518 330.12 55.3584 331.18 55.3584 332.5C55.3584 333.54 55.0784 334.533 54.5184 335.48C53.9584 336.427 53.3184 337.253 52.5984 337.96C51.8784 338.653 50.9384 339.493 49.7784 340.48H55.6784V342.8H45.7984V340.72L46.8384 339.84Z" fill="white"/>
<path d="M148.58 115L145.5 109.56H144.18V115H141.38V101.04H146.62C147.7 101.04 148.62 101.233 149.38 101.62C150.14 101.993 150.707 102.507 151.08 103.16C151.467 103.8 151.66 104.52 151.66 105.32C151.66 106.24 151.393 107.073 150.86 107.82C150.327 108.553 149.533 109.06 148.48 109.34L151.82 115H148.58ZM144.18 107.46H146.52C147.28 107.46 147.847 107.28 148.22 106.92C148.593 106.547 148.78 106.033 148.78 105.38C148.78 104.74 148.593 104.247 148.22 103.9C147.847 103.54 147.28 103.36 146.52 103.36H144.18V107.46ZM164.153 110.98C164.153 111.673 163.973 112.327 163.613 112.94C163.266 113.54 162.746 114.04 162.053 114.44C161.373 114.827 160.566 115.053 159.633 115.12V116.74H158.353V115.1C157.019 114.98 155.946 114.58 155.133 113.9C154.319 113.207 153.899 112.273 153.873 111.1H156.873C156.953 112.06 157.446 112.64 158.353 112.84V109.02C157.393 108.78 156.619 108.54 156.033 108.3C155.446 108.06 154.939 107.673 154.513 107.14C154.086 106.607 153.873 105.88 153.873 104.96C153.873 103.8 154.286 102.853 155.113 102.12C155.953 101.387 157.033 100.967 158.353 100.86V99.24H159.633V100.86C160.913 100.967 161.933 101.353 162.693 102.02C163.466 102.687 163.899 103.607 163.993 104.78H160.973C160.933 104.393 160.793 104.06 160.553 103.78C160.326 103.487 160.019 103.28 159.633 103.16V106.94C160.633 107.193 161.419 107.44 161.993 107.68C162.579 107.907 163.086 108.287 163.513 108.82C163.939 109.34 164.153 110.06 164.153 110.98ZM156.793 104.82C156.793 105.26 156.926 105.62 157.193 105.9C157.459 106.167 157.846 106.387 158.353 106.56V103.1C157.873 103.167 157.493 103.347 157.213 103.64C156.933 103.933 156.793 104.327 156.793 104.82ZM159.633 112.88C160.139 112.787 160.533 112.58 160.813 112.26C161.106 111.94 161.253 111.553 161.253 111.1C161.253 110.66 161.113 110.307 160.833 110.04C160.553 109.773 160.153 109.553 159.633 109.38V112.88ZM171.764 104.26C171.831 102.927 172.297 101.9 173.164 101.18C174.044 100.447 175.197 100.08 176.624 100.08C177.597 100.08 178.431 100.253 179.124 100.6C179.817 100.933 180.337 101.393 180.684 101.98C181.044 102.553 181.224 103.207 181.224 103.94C181.224 104.78 181.004 105.493 180.564 106.08C180.137 106.653 179.624 107.04 179.024 107.24V107.32C179.797 107.56 180.397 107.987 180.824 108.6C181.264 109.213 181.484 110 181.484 110.96C181.484 111.76 181.297 112.473 180.924 113.1C180.564 113.727 180.024 114.22 179.304 114.58C178.597 114.927 177.744 115.1 176.744 115.1C175.237 115.1 174.011 114.72 173.064 113.96C172.117 113.2 171.617 112.08 171.564 110.6H174.284C174.311 111.253 174.531 111.78 174.944 112.18C175.371 112.567 175.951 112.76 176.684 112.76C177.364 112.76 177.884 112.573 178.244 112.2C178.617 111.813 178.804 111.32 178.804 110.72C178.804 109.92 178.551 109.347 178.044 109C177.537 108.653 176.751 108.48 175.684 108.48H175.104V106.18H175.684C177.577 106.18 178.524 105.547 178.524 104.28C178.524 103.707 178.351 103.26 178.004 102.94C177.671 102.62 177.184 102.46 176.544 102.46C175.917 102.46 175.431 102.633 175.084 102.98C174.751 103.313 174.557 103.74 174.504 104.26H171.764ZM183.577 112.16V109.96L190.117 100.6H193.377V109.72H195.137V112.16H193.377V115H190.577V112.16H183.577ZM190.757 103.6L186.657 109.72H190.757V103.6ZM206.719 102.84H200.239V106.26C200.519 105.913 200.919 105.633 201.439 105.42C201.959 105.193 202.513 105.08 203.099 105.08C204.166 105.08 205.039 105.313 205.719 105.78C206.399 106.247 206.893 106.847 207.199 107.58C207.506 108.3 207.659 109.073 207.659 109.9C207.659 111.433 207.219 112.667 206.339 113.6C205.473 114.533 204.233 115 202.619 115C201.099 115 199.886 114.62 198.979 113.86C198.073 113.1 197.559 112.107 197.439 110.88H200.159C200.279 111.413 200.546 111.84 200.959 112.16C201.386 112.48 201.926 112.64 202.579 112.64C203.366 112.64 203.959 112.393 204.359 111.9C204.759 111.407 204.959 110.753 204.959 109.94C204.959 109.113 204.753 108.487 204.339 108.06C203.939 107.62 203.346 107.4 202.559 107.4C201.999 107.4 201.533 107.54 201.159 107.82C200.786 108.1 200.519 108.473 200.359 108.94H197.679V100.38H206.719V102.84ZM211.35 115.14C210.844 115.14 210.424 114.987 210.09 114.68C209.77 114.36 209.61 113.967 209.61 113.5C209.61 113.033 209.77 112.647 210.09 112.34C210.424 112.02 210.844 111.86 211.35 111.86C211.844 111.86 212.25 112.02 212.57 112.34C212.89 112.647 213.05 113.033 213.05 113.5C213.05 113.967 212.89 114.36 212.57 114.68C212.25 114.987 211.844 115.14 211.35 115.14ZM214.986 107.52C214.986 105.213 215.399 103.407 216.226 102.1C217.066 100.793 218.452 100.14 220.386 100.14C222.319 100.14 223.699 100.793 224.526 102.1C225.366 103.407 225.786 105.213 225.786 107.52C225.786 109.84 225.366 111.66 224.526 112.98C223.699 114.3 222.319 114.96 220.386 114.96C218.452 114.96 217.066 114.3 216.226 112.98C215.399 111.66 214.986 109.84 214.986 107.52ZM223.026 107.52C223.026 106.533 222.959 105.707 222.826 105.04C222.706 104.36 222.452 103.807 222.066 103.38C221.692 102.953 221.132 102.74 220.386 102.74C219.639 102.74 219.072 102.953 218.686 103.38C218.312 103.807 218.059 104.36 217.926 105.04C217.806 105.707 217.746 106.533 217.746 107.52C217.746 108.533 217.806 109.387 217.926 110.08C218.046 110.76 218.299 111.313 218.686 111.74C219.072 112.153 219.639 112.36 220.386 112.36C221.132 112.36 221.699 112.153 222.086 111.74C222.472 111.313 222.726 110.76 222.846 110.08C222.966 109.387 223.026 108.533 223.026 107.52ZM227.915 107.52C227.915 105.213 228.329 103.407 229.155 102.1C229.995 100.793 231.382 100.14 233.315 100.14C235.249 100.14 236.629 100.793 237.455 102.1C238.295 103.407 238.715 105.213 238.715 107.52C238.715 109.84 238.295 111.66 237.455 112.98C236.629 114.3 235.249 114.96 233.315 114.96C231.382 114.96 229.995 114.3 229.155 112.98C228.329 111.66 227.915 109.84 227.915 107.52ZM235.955 107.52C235.955 106.533 235.889 105.707 235.755 105.04C235.635 104.36 235.382 103.807 234.995 103.38C234.622 102.953 234.062 102.74 233.315 102.74C232.569 102.74 232.002 102.953 231.615 103.38C231.242 103.807 230.989 104.36 230.855 105.04C230.735 105.707 230.675 106.533 230.675 107.52C230.675 108.533 230.735 109.387 230.855 110.08C230.975 110.76 231.229 111.313 231.615 111.74C232.002 112.153 232.569 112.36 233.315 112.36C234.062 112.36 234.629 112.153 235.015 111.74C235.402 111.313 235.655 110.76 235.775 110.08C235.895 109.387 235.955 108.533 235.955 107.52ZM240.845 107.52C240.845 105.213 241.258 103.407 242.085 102.1C242.925 100.793 244.312 100.14 246.245 100.14C248.178 100.14 249.558 100.793 250.385 102.1C251.225 103.407 251.645 105.213 251.645 107.52C251.645 109.84 251.225 111.66 250.385 112.98C249.558 114.3 248.178 114.96 246.245 114.96C244.312 114.96 242.925 114.3 242.085 112.98C241.258 111.66 240.845 109.84 240.845 107.52ZM248.885 107.52C248.885 106.533 248.818 105.707 248.685 105.04C248.565 104.36 248.312 103.807 247.925 103.38C247.552 102.953 246.992 102.74 246.245 102.74C245.498 102.74 244.932 102.953 244.545 103.38C244.172 103.807 243.918 104.36 243.785 105.04C243.665 105.707 243.605 106.533 243.605 107.52C243.605 108.533 243.665 109.387 243.785 110.08C243.905 110.76 244.158 111.313 244.545 111.74C244.932 112.153 245.498 112.36 246.245 112.36C246.992 112.36 247.558 112.153 247.945 111.74C248.332 111.313 248.585 110.76 248.705 110.08C248.825 109.387 248.885 108.533 248.885 107.52ZM257.155 112.06L254.815 117.68H253.015L254.315 112.06H257.155ZM258.853 107.52C258.853 105.213 259.266 103.407 260.093 102.1C260.933 100.793 262.32 100.14 264.253 100.14C266.186 100.14 267.566 100.793 268.393 102.1C269.233 103.407 269.653 105.213 269.653 107.52C269.653 109.84 269.233 111.66 268.393 112.98C267.566 114.3 266.186 114.96 264.253 114.96C262.32 114.96 260.933 114.3 260.093 112.98C259.266 111.66 258.853 109.84 258.853 107.52ZM266.893 107.52C266.893 106.533 266.826 105.707 266.693 105.04C266.573 104.36 266.32 103.807 265.933 103.38C265.56 102.953 265 102.74 264.253 102.74C263.506 102.74 262.94 102.953 262.553 103.38C262.18 103.807 261.926 104.36 261.793 105.04C261.673 105.707 261.613 106.533 261.613 107.52C261.613 108.533 261.673 109.387 261.793 110.08C261.913 110.76 262.166 111.313 262.553 111.74C262.94 112.153 263.506 112.36 264.253 112.36C265 112.36 265.566 112.153 265.953 111.74C266.34 111.313 266.593 110.76 266.713 110.08C266.833 109.387 266.893 108.533 266.893 107.52ZM271.783 107.52C271.783 105.213 272.196 103.407 273.023 102.1C273.863 100.793 275.249 100.14 277.183 100.14C279.116 100.14 280.496 100.793 281.323 102.1C282.163 103.407 282.583 105.213 282.583 107.52C282.583 109.84 282.163 111.66 281.323 112.98C280.496 114.3 279.116 114.96 277.183 114.96C275.249 114.96 273.863 114.3 273.023 112.98C272.196 111.66 271.783 109.84 271.783 107.52ZM279.823 107.52C279.823 106.533 279.756 105.707 279.623 105.04C279.503 104.36 279.249 103.807 278.863 103.38C278.489 102.953 277.929 102.74 277.183 102.74C276.436 102.74 275.869 102.953 275.483 103.38C275.109 103.807 274.856 104.36 274.723 105.04C274.603 105.707 274.543 106.533 274.543 107.52C274.543 108.533 274.603 109.387 274.723 110.08C274.843 110.76 275.096 111.313 275.483 111.74C275.869 112.153 276.436 112.36 277.183 112.36C277.929 112.36 278.496 112.153 278.883 111.74C279.269 111.313 279.523 110.76 279.643 110.08C279.763 109.387 279.823 108.533 279.823 107.52Z" fill="white"/>
<path d="M148.58 39L145.5 33.56H144.18V39H141.38V25.04H146.62C147.7 25.04 148.62 25.2333 149.38 25.62C150.14 25.9933 150.707 26.5067 151.08 27.16C151.467 27.8 151.66 28.52 151.66 29.32C151.66 30.24 151.393 31.0733 150.86 31.82C150.327 32.5533 149.533 33.06 148.48 33.34L151.82 39H148.58ZM144.18 31.46H146.52C147.28 31.46 147.847 31.28 148.22 30.92C148.593 30.5467 148.78 30.0333 148.78 29.38C148.78 28.74 148.593 28.2467 148.22 27.9C147.847 27.54 147.28 27.36 146.52 27.36H144.18V31.46ZM164.153 34.98C164.153 35.6733 163.973 36.3267 163.613 36.94C163.266 37.54 162.746 38.04 162.053 38.44C161.373 38.8267 160.566 39.0533 159.633 39.12V40.74H158.353V39.1C157.019 38.98 155.946 38.58 155.133 37.9C154.319 37.2067 153.899 36.2733 153.873 35.1H156.873C156.953 36.06 157.446 36.64 158.353 36.84V33.02C157.393 32.78 156.619 32.54 156.033 32.3C155.446 32.06 154.939 31.6733 154.513 31.14C154.086 30.6067 153.873 29.88 153.873 28.96C153.873 27.8 154.286 26.8533 155.113 26.12C155.953 25.3867 157.033 24.9667 158.353 24.86V23.24H159.633V24.86C160.913 24.9667 161.933 25.3533 162.693 26.02C163.466 26.6867 163.899 27.6067 163.993 28.78H160.973C160.933 28.3933 160.793 28.06 160.553 27.78C160.326 27.4867 160.019 27.28 159.633 27.16V30.94C160.633 31.1933 161.419 31.44 161.993 31.68C162.579 31.9067 163.086 32.2867 163.513 32.82C163.939 33.34 164.153 34.06 164.153 34.98ZM156.793 28.82C156.793 29.26 156.926 29.62 157.193 29.9C157.459 30.1667 157.846 30.3867 158.353 30.56V27.1C157.873 27.1667 157.493 27.3467 157.213 27.64C156.933 27.9333 156.793 28.3267 156.793 28.82ZM159.633 36.88C160.139 36.7867 160.533 36.58 160.813 36.26C161.106 35.94 161.253 35.5533 161.253 35.1C161.253 34.66 161.113 34.3067 160.833 34.04C160.553 33.7733 160.153 33.5533 159.633 33.38V36.88ZM171.764 28.26C171.831 26.9267 172.297 25.9 173.164 25.18C174.044 24.4467 175.197 24.08 176.624 24.08C177.597 24.08 178.431 24.2533 179.124 24.6C179.817 24.9333 180.337 25.3933 180.684 25.98C181.044 26.5533 181.224 27.2067 181.224 27.94C181.224 28.78 181.004 29.4933 180.564 30.08C180.137 30.6533 179.624 31.04 179.024 31.24V31.32C179.797 31.56 180.397 31.9867 180.824 32.6C181.264 33.2133 181.484 34 181.484 34.96C181.484 35.76 181.297 36.4733 180.924 37.1C180.564 37.7267 180.024 38.22 179.304 38.58C178.597 38.9267 177.744 39.1 176.744 39.1C175.237 39.1 174.011 38.72 173.064 37.96C172.117 37.2 171.617 36.08 171.564 34.6H174.284C174.311 35.2533 174.531 35.78 174.944 36.18C175.371 36.5667 175.951 36.76 176.684 36.76C177.364 36.76 177.884 36.5733 178.244 36.2C178.617 35.8133 178.804 35.32 178.804 34.72C178.804 33.92 178.551 33.3467 178.044 33C177.537 32.6533 176.751 32.48 175.684 32.48H175.104V30.18H175.684C177.577 30.18 178.524 29.5467 178.524 28.28C178.524 27.7067 178.351 27.26 178.004 26.94C177.671 26.62 177.184 26.46 176.544 26.46C175.917 26.46 175.431 26.6333 175.084 26.98C174.751 27.3133 174.557 27.74 174.504 28.26H171.764ZM193.497 26.84H187.017V30.26C187.297 29.9133 187.697 29.6333 188.217 29.42C188.737 29.1933 189.29 29.08 189.877 29.08C190.943 29.08 191.817 29.3133 192.497 29.78C193.177 30.2467 193.67 30.8467 193.977 31.58C194.283 32.3 194.437 33.0733 194.437 33.9C194.437 35.4333 193.997 36.6667 193.117 37.6C192.25 38.5333 191.01 39 189.397 39C187.877 39 186.663 38.62 185.757 37.86C184.85 37.1 184.337 36.1067 184.217 34.88H186.937C187.057 35.4133 187.323 35.84 187.737 36.16C188.163 36.48 188.703 36.64 189.357 36.64C190.143 36.64 190.737 36.3933 191.137 35.9C191.537 35.4067 191.737 34.7533 191.737 33.94C191.737 33.1133 191.53 32.4867 191.117 32.06C190.717 31.62 190.123 31.4 189.337 31.4C188.777 31.4 188.31 31.54 187.937 31.82C187.563 32.1 187.297 32.4733 187.137 32.94H184.457V24.38H193.497V26.84ZM196.448 36.16V33.96L202.988 24.6H206.248V33.72H208.008V36.16H206.248V39H203.448V36.16H196.448ZM203.628 27.6L199.528 33.72H203.628V27.6ZM211.35 39.14C210.844 39.14 210.424 38.9867 210.09 38.68C209.77 38.36 209.61 37.9667 209.61 37.5C209.61 37.0333 209.77 36.6467 210.09 36.34C210.424 36.02 210.844 35.86 211.35 35.86C211.844 35.86 212.25 36.02 212.57 36.34C212.89 36.6467 213.05 37.0333 213.05 37.5C213.05 37.9667 212.89 38.36 212.57 38.68C212.25 38.9867 211.844 39.14 211.35 39.14ZM214.986 31.52C214.986 29.2133 215.399 27.4067 216.226 26.1C217.066 24.7933 218.452 24.14 220.386 24.14C222.319 24.14 223.699 24.7933 224.526 26.1C225.366 27.4067 225.786 29.2133 225.786 31.52C225.786 33.84 225.366 35.66 224.526 36.98C223.699 38.3 222.319 38.96 220.386 38.96C218.452 38.96 217.066 38.3 216.226 36.98C215.399 35.66 214.986 33.84 214.986 31.52ZM223.026 31.52C223.026 30.5333 222.959 29.7067 222.826 29.04C222.706 28.36 222.452 27.8067 222.066 27.38C221.692 26.9533 221.132 26.74 220.386 26.74C219.639 26.74 219.072 26.9533 218.686 27.38C218.312 27.8067 218.059 28.36 217.926 29.04C217.806 29.7067 217.746 30.5333 217.746 31.52C217.746 32.5333 217.806 33.3867 217.926 34.08C218.046 34.76 218.299 35.3133 218.686 35.74C219.072 36.1533 219.639 36.36 220.386 36.36C221.132 36.36 221.699 36.1533 222.086 35.74C222.472 35.3133 222.726 34.76 222.846 34.08C222.966 33.3867 223.026 32.5333 223.026 31.52ZM227.915 31.52C227.915 29.2133 228.329 27.4067 229.155 26.1C229.995 24.7933 231.382 24.14 233.315 24.14C235.249 24.14 236.629 24.7933 237.455 26.1C238.295 27.4067 238.715 29.2133 238.715 31.52C238.715 33.84 238.295 35.66 237.455 36.98C236.629 38.3 235.249 38.96 233.315 38.96C231.382 38.96 229.995 38.3 229.155 36.98C228.329 35.66 227.915 33.84 227.915 31.52ZM235.955 31.52C235.955 30.5333 235.889 29.7067 235.755 29.04C235.635 28.36 235.382 27.8067 234.995 27.38C234.622 26.9533 234.062 26.74 233.315 26.74C232.569 26.74 232.002 26.9533 231.615 27.38C231.242 27.8067 230.989 28.36 230.855 29.04C230.735 29.7067 230.675 30.5333 230.675 31.52C230.675 32.5333 230.735 33.3867 230.855 34.08C230.975 34.76 231.229 35.3133 231.615 35.74C232.002 36.1533 232.569 36.36 233.315 36.36C234.062 36.36 234.629 36.1533 235.015 35.74C235.402 35.3133 235.655 34.76 235.775 34.08C235.895 33.3867 235.955 32.5333 235.955 31.52ZM240.845 31.52C240.845 29.2133 241.258 27.4067 242.085 26.1C242.925 24.7933 244.312 24.14 246.245 24.14C248.178 24.14 249.558 24.7933 250.385 26.1C251.225 27.4067 251.645 29.2133 251.645 31.52C251.645 33.84 251.225 35.66 250.385 36.98C249.558 38.3 248.178 38.96 246.245 38.96C244.312 38.96 242.925 38.3 242.085 36.98C241.258 35.66 240.845 33.84 240.845 31.52ZM248.885 31.52C248.885 30.5333 248.818 29.7067 248.685 29.04C248.565 28.36 248.312 27.8067 247.925 27.38C247.552 26.9533 246.992 26.74 246.245 26.74C245.498 26.74 244.932 26.9533 244.545 27.38C244.172 27.8067 243.918 28.36 243.785 29.04C243.665 29.7067 243.605 30.5333 243.605 31.52C243.605 32.5333 243.665 33.3867 243.785 34.08C243.905 34.76 244.158 35.3133 244.545 35.74C244.932 36.1533 245.498 36.36 246.245 36.36C246.992 36.36 247.558 36.1533 247.945 35.74C248.332 35.3133 248.585 34.76 248.705 34.08C248.825 33.3867 248.885 32.5333 248.885 31.52ZM257.155 36.06L254.815 41.68H253.015L254.315 36.06H257.155ZM258.853 31.52C258.853 29.2133 259.266 27.4067 260.093 26.1C260.933 24.7933 262.32 24.14 264.253 24.14C266.186 24.14 267.566 24.7933 268.393 26.1C269.233 27.4067 269.653 29.2133 269.653 31.52C269.653 33.84 269.233 35.66 268.393 36.98C267.566 38.3 266.186 38.96 264.253 38.96C262.32 38.96 260.933 38.3 260.093 36.98C259.266 35.66 258.853 33.84 258.853 31.52ZM266.893 31.52C266.893 30.5333 266.826 29.7067 266.693 29.04C266.573 28.36 266.32 27.8067 265.933 27.38C265.56 26.9533 265 26.74 264.253 26.74C263.506 26.74 262.94 26.9533 262.553 27.38C262.18 27.8067 261.926 28.36 261.793 29.04C261.673 29.7067 261.613 30.5333 261.613 31.52C261.613 32.5333 261.673 33.3867 261.793 34.08C261.913 34.76 262.166 35.3133 262.553 35.74C262.94 36.1533 263.506 36.36 264.253 36.36C265 36.36 265.566 36.1533 265.953 35.74C266.34 35.3133 266.593 34.76 266.713 34.08C266.833 33.3867 266.893 32.5333 266.893 31.52ZM271.783 31.52C271.783 29.2133 272.196 27.4067 273.023 26.1C273.863 24.7933 275.249 24.14 277.183 24.14C279.116 24.14 280.496 24.7933 281.323 26.1C282.163 27.4067 282.583 29.2133 282.583 31.52C282.583 33.84 282.163 35.66 281.323 36.98C280.496 38.3 279.116 38.96 277.183 38.96C275.249 38.96 273.863 38.3 273.023 36.98C272.196 35.66 271.783 33.84 271.783 31.52ZM279.823 31.52C279.823 30.5333 279.756 29.7067 279.623 29.04C279.503 28.36 279.249 27.8067 278.863 27.38C278.489 26.9533 277.929 26.74 277.183 26.74C276.436 26.74 275.869 26.9533 275.483 27.38C275.109 27.8067 274.856 28.36 274.723 29.04C274.603 29.7067 274.543 30.5333 274.543 31.52C274.543 32.5333 274.603 33.3867 274.723 34.08C274.843 34.76 275.096 35.3133 275.483 35.74C275.869 36.1533 276.436 36.36 277.183 36.36C277.929 36.36 278.496 36.1533 278.883 35.74C279.269 35.3133 279.523 34.76 279.643 34.08C279.763 33.3867 279.823 32.5333 279.823 31.52Z" fill="white"/>
<path d="M148.58 192L145.5 186.56H144.18V192H141.38V178.04H146.62C147.7 178.04 148.62 178.233 149.38 178.62C150.14 178.993 150.707 179.507 151.08 180.16C151.467 180.8 151.66 181.52 151.66 182.32C151.66 183.24 151.393 184.073 150.86 184.82C150.327 185.553 149.533 186.06 148.48 186.34L151.82 192H148.58ZM144.18 184.46H146.52C147.28 184.46 147.847 184.28 148.22 183.92C148.593 183.547 148.78 183.033 148.78 182.38C148.78 181.74 148.593 181.247 148.22 180.9C147.847 180.54 147.28 180.36 146.52 180.36H144.18V184.46ZM164.153 187.98C164.153 188.673 163.973 189.327 163.613 189.94C163.266 190.54 162.746 191.04 162.053 191.44C161.373 191.827 160.566 192.053 159.633 192.12V193.74H158.353V192.1C157.019 191.98 155.946 191.58 155.133 190.9C154.319 190.207 153.899 189.273 153.873 188.1H156.873C156.953 189.06 157.446 189.64 158.353 189.84V186.02C157.393 185.78 156.619 185.54 156.033 185.3C155.446 185.06 154.939 184.673 154.513 184.14C154.086 183.607 153.873 182.88 153.873 181.96C153.873 180.8 154.286 179.853 155.113 179.12C155.953 178.387 157.033 177.967 158.353 177.86V176.24H159.633V177.86C160.913 177.967 161.933 178.353 162.693 179.02C163.466 179.687 163.899 180.607 163.993 181.78H160.973C160.933 181.393 160.793 181.06 160.553 180.78C160.326 180.487 160.019 180.28 159.633 180.16V183.94C160.633 184.193 161.419 184.44 161.993 184.68C162.579 184.907 163.086 185.287 163.513 185.82C163.939 186.34 164.153 187.06 164.153 187.98ZM156.793 181.82C156.793 182.26 156.926 182.62 157.193 182.9C157.459 183.167 157.846 183.387 158.353 183.56V180.1C157.873 180.167 157.493 180.347 157.213 180.64C156.933 180.933 156.793 181.327 156.793 181.82ZM159.633 189.88C160.139 189.787 160.533 189.58 160.813 189.26C161.106 188.94 161.253 188.553 161.253 188.1C161.253 187.66 161.113 187.307 160.833 187.04C160.553 186.773 160.153 186.553 159.633 186.38V189.88ZM171.764 181.26C171.831 179.927 172.297 178.9 173.164 178.18C174.044 177.447 175.197 177.08 176.624 177.08C177.597 177.08 178.431 177.253 179.124 177.6C179.817 177.933 180.337 178.393 180.684 178.98C181.044 179.553 181.224 180.207 181.224 180.94C181.224 181.78 181.004 182.493 180.564 183.08C180.137 183.653 179.624 184.04 179.024 184.24V184.32C179.797 184.56 180.397 184.987 180.824 185.6C181.264 186.213 181.484 187 181.484 187.96C181.484 188.76 181.297 189.473 180.924 190.1C180.564 190.727 180.024 191.22 179.304 191.58C178.597 191.927 177.744 192.1 176.744 192.1C175.237 192.1 174.011 191.72 173.064 190.96C172.117 190.2 171.617 189.08 171.564 187.6H174.284C174.311 188.253 174.531 188.78 174.944 189.18C175.371 189.567 175.951 189.76 176.684 189.76C177.364 189.76 177.884 189.573 178.244 189.2C178.617 188.813 178.804 188.32 178.804 187.72C178.804 186.92 178.551 186.347 178.044 186C177.537 185.653 176.751 185.48 175.684 185.48H175.104V183.18H175.684C177.577 183.18 178.524 182.547 178.524 181.28C178.524 180.707 178.351 180.26 178.004 179.94C177.671 179.62 177.184 179.46 176.544 179.46C175.917 179.46 175.431 179.633 175.084 179.98C174.751 180.313 174.557 180.74 174.504 181.26H171.764ZM183.577 189.16V186.96L190.117 177.6H193.377V186.72H195.137V189.16H193.377V192H190.577V189.16H183.577ZM190.757 180.6L186.657 186.72H190.757V180.6ZM199.359 184.28C198.026 183.587 197.359 182.513 197.359 181.06C197.359 180.34 197.539 179.687 197.899 179.1C198.273 178.5 198.826 178.027 199.559 177.68C200.306 177.32 201.213 177.14 202.279 177.14C203.346 177.14 204.246 177.32 204.979 177.68C205.726 178.027 206.279 178.5 206.639 179.1C207.013 179.687 207.199 180.34 207.199 181.06C207.199 181.793 207.019 182.44 206.659 183C206.299 183.547 205.819 183.973 205.219 184.28C205.953 184.6 206.526 185.067 206.939 185.68C207.353 186.293 207.559 187.02 207.559 187.86C207.559 188.767 207.326 189.56 206.859 190.24C206.406 190.907 205.779 191.42 204.979 191.78C204.179 192.14 203.279 192.32 202.279 192.32C201.279 192.32 200.379 192.14 199.579 191.78C198.793 191.42 198.166 190.907 197.699 190.24C197.246 189.56 197.019 188.767 197.019 187.86C197.019 187.02 197.226 186.293 197.639 185.68C198.053 185.053 198.626 184.587 199.359 184.28ZM204.479 181.46C204.479 180.807 204.279 180.3 203.879 179.94C203.493 179.58 202.959 179.4 202.279 179.4C201.613 179.4 201.079 179.58 200.679 179.94C200.293 180.3 200.099 180.813 200.099 181.48C200.099 182.08 200.299 182.56 200.699 182.92C201.113 183.28 201.639 183.46 202.279 183.46C202.919 183.46 203.446 183.28 203.859 182.92C204.273 182.547 204.479 182.06 204.479 181.46ZM202.279 185.5C201.519 185.5 200.899 185.693 200.419 186.08C199.953 186.467 199.719 187.02 199.719 187.74C199.719 188.407 199.946 188.953 200.399 189.38C200.866 189.793 201.493 190 202.279 190C203.066 190 203.686 189.787 204.139 189.36C204.593 188.933 204.819 188.393 204.819 187.74C204.819 187.033 204.586 186.487 204.119 186.1C203.653 185.7 203.039 185.5 202.279 185.5ZM211.331 192.14C210.824 192.14 210.404 191.987 210.071 191.68C209.751 191.36 209.591 190.967 209.591 190.5C209.591 190.033 209.751 189.647 210.071 189.34C210.404 189.02 210.824 188.86 211.331 188.86C211.824 188.86 212.231 189.02 212.551 189.34C212.871 189.647 213.031 190.033 213.031 190.5C213.031 190.967 212.871 191.36 212.551 191.68C212.231 191.987 211.824 192.14 211.331 192.14ZM214.966 184.52C214.966 182.213 215.38 180.407 216.206 179.1C217.046 177.793 218.433 177.14 220.366 177.14C222.3 177.14 223.68 177.793 224.506 179.1C225.346 180.407 225.766 182.213 225.766 184.52C225.766 186.84 225.346 188.66 224.506 189.98C223.68 191.3 222.3 191.96 220.366 191.96C218.433 191.96 217.046 191.3 216.206 189.98C215.38 188.66 214.966 186.84 214.966 184.52ZM223.006 184.52C223.006 183.533 222.94 182.707 222.806 182.04C222.686 181.36 222.433 180.807 222.046 180.38C221.673 179.953 221.113 179.74 220.366 179.74C219.62 179.74 219.053 179.953 218.666 180.38C218.293 180.807 218.04 181.36 217.906 182.04C217.786 182.707 217.726 183.533 217.726 184.52C217.726 185.533 217.786 186.387 217.906 187.08C218.026 187.76 218.28 188.313 218.666 188.74C219.053 189.153 219.62 189.36 220.366 189.36C221.113 189.36 221.68 189.153 222.066 188.74C222.453 188.313 222.706 187.76 222.826 187.08C222.946 186.387 223.006 185.533 223.006 184.52ZM227.896 184.52C227.896 182.213 228.309 180.407 229.136 179.1C229.976 177.793 231.363 177.14 233.296 177.14C235.229 177.14 236.609 177.793 237.436 179.1C238.276 180.407 238.696 182.213 238.696 184.52C238.696 186.84 238.276 188.66 237.436 189.98C236.609 191.3 235.229 191.96 233.296 191.96C231.363 191.96 229.976 191.3 229.136 189.98C228.309 188.66 227.896 186.84 227.896 184.52ZM235.936 184.52C235.936 183.533 235.869 182.707 235.736 182.04C235.616 181.36 235.363 180.807 234.976 180.38C234.603 179.953 234.043 179.74 233.296 179.74C232.549 179.74 231.983 179.953 231.596 180.38C231.223 180.807 230.969 181.36 230.836 182.04C230.716 182.707 230.656 183.533 230.656 184.52C230.656 185.533 230.716 186.387 230.836 187.08C230.956 187.76 231.209 188.313 231.596 188.74C231.983 189.153 232.549 189.36 233.296 189.36C234.043 189.36 234.609 189.153 234.996 188.74C235.383 188.313 235.636 187.76 235.756 187.08C235.876 186.387 235.936 185.533 235.936 184.52ZM240.826 184.52C240.826 182.213 241.239 180.407 242.066 179.1C242.906 177.793 244.292 177.14 246.226 177.14C248.159 177.14 249.539 177.793 250.366 179.1C251.206 180.407 251.626 182.213 251.626 184.52C251.626 186.84 251.206 188.66 250.366 189.98C249.539 191.3 248.159 191.96 246.226 191.96C244.292 191.96 242.906 191.3 242.066 189.98C241.239 188.66 240.826 186.84 240.826 184.52ZM248.866 184.52C248.866 183.533 248.799 182.707 248.666 182.04C248.546 181.36 248.292 180.807 247.906 180.38C247.532 179.953 246.972 179.74 246.226 179.74C245.479 179.74 244.912 179.953 244.526 180.38C244.152 180.807 243.899 181.36 243.766 182.04C243.646 182.707 243.586 183.533 243.586 184.52C243.586 185.533 243.646 186.387 243.766 187.08C243.886 187.76 244.139 188.313 244.526 188.74C244.912 189.153 245.479 189.36 246.226 189.36C246.972 189.36 247.539 189.153 247.926 188.74C248.312 188.313 248.566 187.76 248.686 187.08C248.806 186.387 248.866 185.533 248.866 184.52ZM257.135 189.06L254.795 194.68H252.995L254.295 189.06H257.135ZM258.833 184.52C258.833 182.213 259.247 180.407 260.073 179.1C260.913 177.793 262.3 177.14 264.233 177.14C266.167 177.14 267.547 177.793 268.373 179.1C269.213 180.407 269.633 182.213 269.633 184.52C269.633 186.84 269.213 188.66 268.373 189.98C267.547 191.3 266.167 191.96 264.233 191.96C262.3 191.96 260.913 191.3 260.073 189.98C259.247 188.66 258.833 186.84 258.833 184.52ZM266.873 184.52C266.873 183.533 266.807 182.707 266.673 182.04C266.553 181.36 266.3 180.807 265.913 180.38C265.54 179.953 264.98 179.74 264.233 179.74C263.487 179.74 262.92 179.953 262.533 180.38C262.16 180.807 261.907 181.36 261.773 182.04C261.653 182.707 261.593 183.533 261.593 184.52C261.593 185.533 261.653 186.387 261.773 187.08C261.893 187.76 262.147 188.313 262.533 188.74C262.92 189.153 263.487 189.36 264.233 189.36C264.98 189.36 265.547 189.153 265.933 188.74C266.32 188.313 266.573 187.76 266.693 187.08C266.813 186.387 266.873 185.533 266.873 184.52ZM271.763 184.52C271.763 182.213 272.176 180.407 273.003 179.1C273.843 177.793 275.23 177.14 277.163 177.14C279.096 177.14 280.476 177.793 281.303 179.1C282.143 180.407 282.563 182.213 282.563 184.52C282.563 186.84 282.143 188.66 281.303 189.98C280.476 191.3 279.096 191.96 277.163 191.96C275.23 191.96 273.843 191.3 273.003 189.98C272.176 188.66 271.763 186.84 271.763 184.52ZM279.803 184.52C279.803 183.533 279.736 182.707 279.603 182.04C279.483 181.36 279.23 180.807 278.843 180.38C278.47 179.953 277.91 179.74 277.163 179.74C276.416 179.74 275.85 179.953 275.463 180.38C275.09 180.807 274.836 181.36 274.703 182.04C274.583 182.707 274.523 183.533 274.523 184.52C274.523 185.533 274.583 186.387 274.703 187.08C274.823 187.76 275.076 188.313 275.463 188.74C275.85 189.153 276.416 189.36 277.163 189.36C277.91 189.36 278.476 189.153 278.863 188.74C279.25 188.313 279.503 187.76 279.623 187.08C279.743 186.387 279.803 185.533 279.803 184.52Z" fill="white"/>
<path d="M148.58 268L145.5 262.56H144.18V268H141.38V254.04H146.62C147.7 254.04 148.62 254.233 149.38 254.62C150.14 254.993 150.707 255.507 151.08 256.16C151.467 256.8 151.66 257.52 151.66 258.32C151.66 259.24 151.393 260.073 150.86 260.82C150.327 261.553 149.533 262.06 148.48 262.34L151.82 268H148.58ZM144.18 260.46H146.52C147.28 260.46 147.847 260.28 148.22 259.92C148.593 259.547 148.78 259.033 148.78 258.38C148.78 257.74 148.593 257.247 148.22 256.9C147.847 256.54 147.28 256.36 146.52 256.36H144.18V260.46ZM164.153 263.98C164.153 264.673 163.973 265.327 163.613 265.94C163.266 266.54 162.746 267.04 162.053 267.44C161.373 267.827 160.566 268.053 159.633 268.12V269.74H158.353V268.1C157.019 267.98 155.946 267.58 155.133 266.9C154.319 266.207 153.899 265.273 153.873 264.1H156.873C156.953 265.06 157.446 265.64 158.353 265.84V262.02C157.393 261.78 156.619 261.54 156.033 261.3C155.446 261.06 154.939 260.673 154.513 260.14C154.086 259.607 153.873 258.88 153.873 257.96C153.873 256.8 154.286 255.853 155.113 255.12C155.953 254.387 157.033 253.967 158.353 253.86V252.24H159.633V253.86C160.913 253.967 161.933 254.353 162.693 255.02C163.466 255.687 163.899 256.607 163.993 257.78H160.973C160.933 257.393 160.793 257.06 160.553 256.78C160.326 256.487 160.019 256.28 159.633 256.16V259.94C160.633 260.193 161.419 260.44 161.993 260.68C162.579 260.907 163.086 261.287 163.513 261.82C163.939 262.34 164.153 263.06 164.153 263.98ZM156.793 257.82C156.793 258.26 156.926 258.62 157.193 258.9C157.459 259.167 157.846 259.387 158.353 259.56V256.1C157.873 256.167 157.493 256.347 157.213 256.64C156.933 256.933 156.793 257.327 156.793 257.82ZM159.633 265.88C160.139 265.787 160.533 265.58 160.813 265.26C161.106 264.94 161.253 264.553 161.253 264.1C161.253 263.66 161.113 263.307 160.833 263.04C160.553 262.773 160.153 262.553 159.633 262.38V265.88ZM172.604 264.84C173.884 263.773 174.904 262.887 175.664 262.18C176.424 261.46 177.057 260.713 177.564 259.94C178.071 259.167 178.324 258.407 178.324 257.66C178.324 256.98 178.164 256.447 177.844 256.06C177.524 255.673 177.031 255.48 176.364 255.48C175.697 255.48 175.184 255.707 174.824 256.16C174.464 256.6 174.277 257.207 174.264 257.98H171.544C171.597 256.38 172.071 255.167 172.964 254.34C173.871 253.513 175.017 253.1 176.404 253.1C177.924 253.1 179.091 253.507 179.904 254.32C180.717 255.12 181.124 256.18 181.124 257.5C181.124 258.54 180.844 259.533 180.284 260.48C179.724 261.427 179.084 262.253 178.364 262.96C177.644 263.653 176.704 264.493 175.544 265.48H181.444V267.8H171.564V265.72L172.604 264.84ZM190.768 257.06C190.635 256.5 190.402 256.08 190.068 255.8C189.748 255.52 189.282 255.38 188.668 255.38C187.748 255.38 187.068 255.753 186.628 256.5C186.202 257.233 185.982 258.433 185.968 260.1C186.288 259.567 186.755 259.153 187.368 258.86C187.982 258.553 188.648 258.4 189.368 258.4C190.235 258.4 191.002 258.587 191.668 258.96C192.335 259.333 192.855 259.88 193.228 260.6C193.602 261.307 193.788 262.16 193.788 263.16C193.788 264.107 193.595 264.953 193.208 265.7C192.835 266.433 192.282 267.007 191.548 267.42C190.815 267.833 189.942 268.04 188.928 268.04C187.542 268.04 186.448 267.733 185.648 267.12C184.862 266.507 184.308 265.653 183.988 264.56C183.682 263.453 183.528 262.093 183.528 260.48C183.528 258.04 183.948 256.2 184.788 254.96C185.628 253.707 186.955 253.08 188.768 253.08C190.168 253.08 191.255 253.46 192.028 254.22C192.802 254.98 193.248 255.927 193.368 257.06H190.768ZM188.728 260.7C188.022 260.7 187.428 260.907 186.948 261.32C186.468 261.733 186.228 262.333 186.228 263.12C186.228 263.907 186.448 264.527 186.888 264.98C187.342 265.433 187.975 265.66 188.788 265.66C189.508 265.66 190.075 265.44 190.488 265C190.915 264.56 191.128 263.967 191.128 263.22C191.128 262.447 190.922 261.833 190.508 261.38C190.108 260.927 189.515 260.7 188.728 260.7ZM196.001 260.52C196.001 258.213 196.415 256.407 197.241 255.1C198.081 253.793 199.468 253.14 201.401 253.14C203.335 253.14 204.715 253.793 205.541 255.1C206.381 256.407 206.801 258.213 206.801 260.52C206.801 262.84 206.381 264.66 205.541 265.98C204.715 267.3 203.335 267.96 201.401 267.96C199.468 267.96 198.081 267.3 197.241 265.98C196.415 264.66 196.001 262.84 196.001 260.52ZM204.041 260.52C204.041 259.533 203.975 258.707 203.841 258.04C203.721 257.36 203.468 256.807 203.081 256.38C202.708 255.953 202.148 255.74 201.401 255.74C200.655 255.74 200.088 255.953 199.701 256.38C199.328 256.807 199.075 257.36 198.941 258.04C198.821 258.707 198.761 259.533 198.761 260.52C198.761 261.533 198.821 262.387 198.941 263.08C199.061 263.76 199.315 264.313 199.701 264.74C200.088 265.153 200.655 265.36 201.401 265.36C202.148 265.36 202.715 265.153 203.101 264.74C203.488 264.313 203.741 263.76 203.861 263.08C203.981 262.387 204.041 261.533 204.041 260.52ZM210.491 268.14C209.984 268.14 209.564 267.987 209.231 267.68C208.911 267.36 208.751 266.967 208.751 266.5C208.751 266.033 208.911 265.647 209.231 265.34C209.564 265.02 209.984 264.86 210.491 264.86C210.984 264.86 211.391 265.02 211.711 265.34C212.031 265.647 212.191 266.033 212.191 266.5C212.191 266.967 212.031 267.36 211.711 267.68C211.391 267.987 210.984 268.14 210.491 268.14ZM214.126 260.52C214.126 258.213 214.54 256.407 215.366 255.1C216.206 253.793 217.593 253.14 219.526 253.14C221.46 253.14 222.84 253.793 223.666 255.1C224.506 256.407 224.926 258.213 224.926 260.52C224.926 262.84 224.506 264.66 223.666 265.98C222.84 267.3 221.46 267.96 219.526 267.96C217.593 267.96 216.206 267.3 215.366 265.98C214.54 264.66 214.126 262.84 214.126 260.52ZM222.166 260.52C222.166 259.533 222.1 258.707 221.966 258.04C221.846 257.36 221.593 256.807 221.206 256.38C220.833 255.953 220.273 255.74 219.526 255.74C218.78 255.74 218.213 255.953 217.826 256.38C217.453 256.807 217.2 257.36 217.066 258.04C216.946 258.707 216.886 259.533 216.886 260.52C216.886 261.533 216.946 262.387 217.066 263.08C217.186 263.76 217.44 264.313 217.826 264.74C218.213 265.153 218.78 265.36 219.526 265.36C220.273 265.36 220.84 265.153 221.226 264.74C221.613 264.313 221.866 263.76 221.986 263.08C222.106 262.387 222.166 261.533 222.166 260.52ZM227.056 260.52C227.056 258.213 227.469 256.407 228.296 255.1C229.136 253.793 230.523 253.14 232.456 253.14C234.389 253.14 235.769 253.793 236.596 255.1C237.436 256.407 237.856 258.213 237.856 260.52C237.856 262.84 237.436 264.66 236.596 265.98C235.769 267.3 234.389 267.96 232.456 267.96C230.523 267.96 229.136 267.3 228.296 265.98C227.469 264.66 227.056 262.84 227.056 260.52ZM235.096 260.52C235.096 259.533 235.029 258.707 234.896 258.04C234.776 257.36 234.523 256.807 234.136 256.38C233.763 255.953 233.203 255.74 232.456 255.74C231.709 255.74 231.143 255.953 230.756 256.38C230.383 256.807 230.129 257.36 229.996 258.04C229.876 258.707 229.816 259.533 229.816 260.52C229.816 261.533 229.876 262.387 229.996 263.08C230.116 263.76 230.369 264.313 230.756 264.74C231.143 265.153 231.709 265.36 232.456 265.36C233.203 265.36 233.769 265.153 234.156 264.74C234.543 264.313 234.796 263.76 234.916 263.08C235.036 262.387 235.096 261.533 235.096 260.52ZM239.986 260.52C239.986 258.213 240.399 256.407 241.226 255.1C242.066 253.793 243.452 253.14 245.386 253.14C247.319 253.14 248.699 253.793 249.526 255.1C250.366 256.407 250.786 258.213 250.786 260.52C250.786 262.84 250.366 264.66 249.526 265.98C248.699 267.3 247.319 267.96 245.386 267.96C243.452 267.96 242.066 267.3 241.226 265.98C240.399 264.66 239.986 262.84 239.986 260.52ZM248.026 260.52C248.026 259.533 247.959 258.707 247.826 258.04C247.706 257.36 247.452 256.807 247.066 256.38C246.692 255.953 246.132 255.74 245.386 255.74C244.639 255.74 244.072 255.953 243.686 256.38C243.312 256.807 243.059 257.36 242.926 258.04C242.806 258.707 242.746 259.533 242.746 260.52C242.746 261.533 242.806 262.387 242.926 263.08C243.046 263.76 243.299 264.313 243.686 264.74C244.072 265.153 244.639 265.36 245.386 265.36C246.132 265.36 246.699 265.153 247.086 264.74C247.472 264.313 247.726 263.76 247.846 263.08C247.966 262.387 248.026 261.533 248.026 260.52ZM256.295 265.06L253.955 270.68H252.155L253.455 265.06H256.295ZM257.994 260.52C257.994 258.213 258.407 256.407 259.234 255.1C260.074 253.793 261.46 253.14 263.394 253.14C265.327 253.14 266.707 253.793 267.534 255.1C268.374 256.407 268.794 258.213 268.794 260.52C268.794 262.84 268.374 264.66 267.534 265.98C266.707 267.3 265.327 267.96 263.394 267.96C261.46 267.96 260.074 267.3 259.234 265.98C258.407 264.66 257.994 262.84 257.994 260.52ZM266.034 260.52C266.034 259.533 265.967 258.707 265.834 258.04C265.714 257.36 265.46 256.807 265.074 256.38C264.7 255.953 264.14 255.74 263.394 255.74C262.647 255.74 262.08 255.953 261.694 256.38C261.32 256.807 261.067 257.36 260.934 258.04C260.814 258.707 260.754 259.533 260.754 260.52C260.754 261.533 260.814 262.387 260.934 263.08C261.054 263.76 261.307 264.313 261.694 264.74C262.08 265.153 262.647 265.36 263.394 265.36C264.14 265.36 264.707 265.153 265.094 264.74C265.48 264.313 265.734 263.76 265.854 263.08C265.974 262.387 266.034 261.533 266.034 260.52ZM270.923 260.52C270.923 258.213 271.337 256.407 272.163 255.1C273.003 253.793 274.39 253.14 276.323 253.14C278.257 253.14 279.637 253.793 280.463 255.1C281.303 256.407 281.723 258.213 281.723 260.52C281.723 262.84 281.303 264.66 280.463 265.98C279.637 267.3 278.257 267.96 276.323 267.96C274.39 267.96 273.003 267.3 272.163 265.98C271.337 264.66 270.923 262.84 270.923 260.52ZM278.963 260.52C278.963 259.533 278.897 258.707 278.763 258.04C278.643 257.36 278.39 256.807 278.003 256.38C277.63 255.953 277.07 255.74 276.323 255.74C275.577 255.74 275.01 255.953 274.623 256.38C274.25 256.807 273.997 257.36 273.863 258.04C273.743 258.707 273.683 259.533 273.683 260.52C273.683 261.533 273.743 262.387 273.863 263.08C273.983 263.76 274.237 264.313 274.623 264.74C275.01 265.153 275.577 265.36 276.323 265.36C277.07 265.36 277.637 265.153 278.023 264.74C278.41 264.313 278.663 263.76 278.783 263.08C278.903 262.387 278.963 261.533 278.963 260.52Z" fill="white"/>
<path d="M149.58 343L146.5 337.56H145.18V343H142.38V329.04H147.62C148.7 329.04 149.62 329.233 150.38 329.62C151.14 329.993 151.707 330.507 152.08 331.16C152.467 331.8 152.66 332.52 152.66 333.32C152.66 334.24 152.393 335.073 151.86 335.82C151.327 336.553 150.533 337.06 149.48 337.34L152.82 343H149.58ZM145.18 335.46H147.52C148.28 335.46 148.847 335.28 149.22 334.92C149.593 334.547 149.78 334.033 149.78 333.38C149.78 332.74 149.593 332.247 149.22 331.9C148.847 331.54 148.28 331.36 147.52 331.36H145.18V335.46ZM165.153 338.98C165.153 339.673 164.973 340.327 164.613 340.94C164.266 341.54 163.746 342.04 163.053 342.44C162.373 342.827 161.566 343.053 160.633 343.12V344.74H159.353V343.1C158.019 342.98 156.946 342.58 156.133 341.9C155.319 341.207 154.899 340.273 154.873 339.1H157.873C157.953 340.06 158.446 340.64 159.353 340.84V337.02C158.393 336.78 157.619 336.54 157.033 336.3C156.446 336.06 155.939 335.673 155.513 335.14C155.086 334.607 154.873 333.88 154.873 332.96C154.873 331.8 155.286 330.853 156.113 330.12C156.953 329.387 158.033 328.967 159.353 328.86V327.24H160.633V328.86C161.913 328.967 162.933 329.353 163.693 330.02C164.466 330.687 164.899 331.607 164.993 332.78H161.973C161.933 332.393 161.793 332.06 161.553 331.78C161.326 331.487 161.019 331.28 160.633 331.16V334.94C161.633 335.193 162.419 335.44 162.993 335.68C163.579 335.907 164.086 336.287 164.513 336.82C164.939 337.34 165.153 338.06 165.153 338.98ZM157.793 332.82C157.793 333.26 157.926 333.62 158.193 333.9C158.459 334.167 158.846 334.387 159.353 334.56V331.1C158.873 331.167 158.493 331.347 158.213 331.64C157.933 331.933 157.793 332.327 157.793 332.82ZM160.633 340.88C161.139 340.787 161.533 340.58 161.813 340.26C162.106 339.94 162.253 339.553 162.253 339.1C162.253 338.66 162.113 338.307 161.833 338.04C161.553 337.773 161.153 337.553 160.633 337.38V340.88ZM173.604 339.84C174.884 338.773 175.904 337.887 176.664 337.18C177.424 336.46 178.057 335.713 178.564 334.94C179.071 334.167 179.324 333.407 179.324 332.66C179.324 331.98 179.164 331.447 178.844 331.06C178.524 330.673 178.031 330.48 177.364 330.48C176.697 330.48 176.184 330.707 175.824 331.16C175.464 331.6 175.277 332.207 175.264 332.98H172.544C172.597 331.38 173.071 330.167 173.964 329.34C174.871 328.513 176.017 328.1 177.404 328.1C178.924 328.1 180.091 328.507 180.904 329.32C181.717 330.12 182.124 331.18 182.124 332.5C182.124 333.54 181.844 334.533 181.284 335.48C180.724 336.427 180.084 337.253 179.364 337.96C178.644 338.653 177.704 339.493 176.544 340.48H182.444V342.8H172.564V340.72L173.604 339.84ZM191.768 332.06C191.635 331.5 191.402 331.08 191.068 330.8C190.748 330.52 190.282 330.38 189.668 330.38C188.748 330.38 188.068 330.753 187.628 331.5C187.202 332.233 186.982 333.433 186.968 335.1C187.288 334.567 187.755 334.153 188.368 333.86C188.982 333.553 189.648 333.4 190.368 333.4C191.235 333.4 192.002 333.587 192.668 333.96C193.335 334.333 193.855 334.88 194.228 335.6C194.602 336.307 194.788 337.16 194.788 338.16C194.788 339.107 194.595 339.953 194.208 340.7C193.835 341.433 193.282 342.007 192.548 342.42C191.815 342.833 190.942 343.04 189.928 343.04C188.542 343.04 187.448 342.733 186.648 342.12C185.862 341.507 185.308 340.653 184.988 339.56C184.682 338.453 184.528 337.093 184.528 335.48C184.528 333.04 184.948 331.2 185.788 329.96C186.628 328.707 187.955 328.08 189.768 328.08C191.168 328.08 192.255 328.46 193.028 329.22C193.802 329.98 194.248 330.927 194.368 332.06H191.768ZM189.728 335.7C189.022 335.7 188.428 335.907 187.948 336.32C187.468 336.733 187.228 337.333 187.228 338.12C187.228 338.907 187.448 339.527 187.888 339.98C188.342 340.433 188.975 340.66 189.788 340.66C190.508 340.66 191.075 340.44 191.488 340C191.915 339.56 192.128 338.967 192.128 338.22C192.128 337.447 191.922 336.833 191.508 336.38C191.108 335.927 190.515 335.7 189.728 335.7ZM197.001 335.52C197.001 333.213 197.415 331.407 198.241 330.1C199.081 328.793 200.468 328.14 202.401 328.14C204.335 328.14 205.715 328.793 206.541 330.1C207.381 331.407 207.801 333.213 207.801 335.52C207.801 337.84 207.381 339.66 206.541 340.98C205.715 342.3 204.335 342.96 202.401 342.96C200.468 342.96 199.081 342.3 198.241 340.98C197.415 339.66 197.001 337.84 197.001 335.52ZM205.041 335.52C205.041 334.533 204.975 333.707 204.841 333.04C204.721 332.36 204.468 331.807 204.081 331.38C203.708 330.953 203.148 330.74 202.401 330.74C201.655 330.74 201.088 330.953 200.701 331.38C200.328 331.807 200.075 332.36 199.941 333.04C199.821 333.707 199.761 334.533 199.761 335.52C199.761 336.533 199.821 337.387 199.941 338.08C200.061 338.76 200.315 339.313 200.701 339.74C201.088 340.153 201.655 340.36 202.401 340.36C203.148 340.36 203.715 340.153 204.101 339.74C204.488 339.313 204.741 338.76 204.861 338.08C204.981 337.387 205.041 336.533 205.041 335.52ZM211.491 343.14C210.984 343.14 210.564 342.987 210.231 342.68C209.911 342.36 209.751 341.967 209.751 341.5C209.751 341.033 209.911 340.647 210.231 340.34C210.564 340.02 210.984 339.86 211.491 339.86C211.984 339.86 212.391 340.02 212.711 340.34C213.031 340.647 213.191 341.033 213.191 341.5C213.191 341.967 213.031 342.36 212.711 342.68C212.391 342.987 211.984 343.14 211.491 343.14ZM215.126 335.52C215.126 333.213 215.54 331.407 216.366 330.1C217.206 328.793 218.593 328.14 220.526 328.14C222.46 328.14 223.84 328.793 224.666 330.1C225.506 331.407 225.926 333.213 225.926 335.52C225.926 337.84 225.506 339.66 224.666 340.98C223.84 342.3 222.46 342.96 220.526 342.96C218.593 342.96 217.206 342.3 216.366 340.98C215.54 339.66 215.126 337.84 215.126 335.52ZM223.166 335.52C223.166 334.533 223.1 333.707 222.966 333.04C222.846 332.36 222.593 331.807 222.206 331.38C221.833 330.953 221.273 330.74 220.526 330.74C219.78 330.74 219.213 330.953 218.826 331.38C218.453 331.807 218.2 332.36 218.066 333.04C217.946 333.707 217.886 334.533 217.886 335.52C217.886 336.533 217.946 337.387 218.066 338.08C218.186 338.76 218.44 339.313 218.826 339.74C219.213 340.153 219.78 340.36 220.526 340.36C221.273 340.36 221.84 340.153 222.226 339.74C222.613 339.313 222.866 338.76 222.986 338.08C223.106 337.387 223.166 336.533 223.166 335.52ZM228.056 335.52C228.056 333.213 228.469 331.407 229.296 330.1C230.136 328.793 231.523 328.14 233.456 328.14C235.389 328.14 236.769 328.793 237.596 330.1C238.436 331.407 238.856 333.213 238.856 335.52C238.856 337.84 238.436 339.66 237.596 340.98C236.769 342.3 235.389 342.96 233.456 342.96C231.523 342.96 230.136 342.3 229.296 340.98C228.469 339.66 228.056 337.84 228.056 335.52ZM236.096 335.52C236.096 334.533 236.029 333.707 235.896 333.04C235.776 332.36 235.523 331.807 235.136 331.38C234.763 330.953 234.203 330.74 233.456 330.74C232.709 330.74 232.143 330.953 231.756 331.38C231.383 331.807 231.129 332.36 230.996 333.04C230.876 333.707 230.816 334.533 230.816 335.52C230.816 336.533 230.876 337.387 230.996 338.08C231.116 338.76 231.369 339.313 231.756 339.74C232.143 340.153 232.709 340.36 233.456 340.36C234.203 340.36 234.769 340.153 235.156 339.74C235.543 339.313 235.796 338.76 235.916 338.08C236.036 337.387 236.096 336.533 236.096 335.52ZM240.986 335.52C240.986 333.213 241.399 331.407 242.226 330.1C243.066 328.793 244.452 328.14 246.386 328.14C248.319 328.14 249.699 328.793 250.526 330.1C251.366 331.407 251.786 333.213 251.786 335.52C251.786 337.84 251.366 339.66 250.526 340.98C249.699 342.3 248.319 342.96 246.386 342.96C244.452 342.96 243.066 342.3 242.226 340.98C241.399 339.66 240.986 337.84 240.986 335.52ZM249.026 335.52C249.026 334.533 248.959 333.707 248.826 333.04C248.706 332.36 248.452 331.807 248.066 331.38C247.692 330.953 247.132 330.74 246.386 330.74C245.639 330.74 245.072 330.953 244.686 331.38C244.312 331.807 244.059 332.36 243.926 333.04C243.806 333.707 243.746 334.533 243.746 335.52C243.746 336.533 243.806 337.387 243.926 338.08C244.046 338.76 244.299 339.313 244.686 339.74C245.072 340.153 245.639 340.36 246.386 340.36C247.132 340.36 247.699 340.153 248.086 339.74C248.472 339.313 248.726 338.76 248.846 338.08C248.966 337.387 249.026 336.533 249.026 335.52ZM257.295 340.06L254.955 345.68H253.155L254.455 340.06H257.295ZM258.994 335.52C258.994 333.213 259.407 331.407 260.234 330.1C261.074 328.793 262.46 328.14 264.394 328.14C266.327 328.14 267.707 328.793 268.534 330.1C269.374 331.407 269.794 333.213 269.794 335.52C269.794 337.84 269.374 339.66 268.534 340.98C267.707 342.3 266.327 342.96 264.394 342.96C262.46 342.96 261.074 342.3 260.234 340.98C259.407 339.66 258.994 337.84 258.994 335.52ZM267.034 335.52C267.034 334.533 266.967 333.707 266.834 333.04C266.714 332.36 266.46 331.807 266.074 331.38C265.7 330.953 265.14 330.74 264.394 330.74C263.647 330.74 263.08 330.953 262.694 331.38C262.32 331.807 262.067 332.36 261.934 333.04C261.814 333.707 261.754 334.533 261.754 335.52C261.754 336.533 261.814 337.387 261.934 338.08C262.054 338.76 262.307 339.313 262.694 339.74C263.08 340.153 263.647 340.36 264.394 340.36C265.14 340.36 265.707 340.153 266.094 339.74C266.48 339.313 266.734 338.76 266.854 338.08C266.974 337.387 267.034 336.533 267.034 335.52ZM271.923 335.52C271.923 333.213 272.337 331.407 273.163 330.1C274.003 328.793 275.39 328.14 277.323 328.14C279.257 328.14 280.637 328.793 281.463 330.1C282.303 331.407 282.723 333.213 282.723 335.52C282.723 337.84 282.303 339.66 281.463 340.98C280.637 342.3 279.257 342.96 277.323 342.96C275.39 342.96 274.003 342.3 273.163 340.98C272.337 339.66 271.923 337.84 271.923 335.52ZM279.963 335.52C279.963 334.533 279.897 333.707 279.763 333.04C279.643 332.36 279.39 331.807 279.003 331.38C278.63 330.953 278.07 330.74 277.323 330.74C276.577 330.74 276.01 330.953 275.623 331.38C275.25 331.807 274.997 332.36 274.863 333.04C274.743 333.707 274.683 334.533 274.683 335.52C274.683 336.533 274.743 337.387 274.863 338.08C274.983 338.76 275.237 339.313 275.623 339.74C276.01 340.153 276.577 340.36 277.323 340.36C278.07 340.36 278.637 340.153 279.023 339.74C279.41 339.313 279.663 338.76 279.783 338.08C279.903 337.387 279.963 336.533 279.963 335.52Z" fill="white"/>
<path d="M79.2929 108.293C78.9024 108.683 78.9024 109.317 79.2929 109.707L85.6569 116.071C86.0474 116.462 86.6805 116.462 87.0711 116.071C87.4616 115.681 87.4616 115.047 87.0711 114.657L81.4142 109L87.0711 103.343C87.4616 102.953 87.4616 102.319 87.0711 101.929C86.6805 101.538 86.0474 101.538 85.6569 101.929L79.2929 108.293ZM120.707 109.707C121.098 109.317 121.098 108.683 120.707 108.293L114.343 101.929C113.953 101.538 113.319 101.538 112.929 101.929C112.538 102.319 112.538 102.953 112.929 103.343L118.586 109L112.929 114.657C112.538 115.047 112.538 115.681 112.929 116.071C113.319 116.462 113.953 116.462 114.343 116.071L120.707 109.707ZM80 110L120 110L120 108L80 108L80 110Z" fill="#F1403F"/>
<path d="M79.2929 32.2929C78.9024 32.6834 78.9024 33.3166 79.2929 33.7071L85.6569 40.0711C86.0474 40.4616 86.6805 40.4616 87.0711 40.0711C87.4616 39.6805 87.4616 39.0474 87.0711 38.6569L81.4142 33L87.0711 27.3431C87.4616 26.9526 87.4616 26.3195 87.0711 25.9289C86.6805 25.5384 86.0474 25.5384 85.6569 25.9289L79.2929 32.2929ZM120.707 33.7071C121.098 33.3166 121.098 32.6834 120.707 32.2929L114.343 25.9289C113.953 25.5384 113.319 25.5384 112.929 25.9289C112.538 26.3195 112.538 26.9526 112.929 27.3431L118.586 33L112.929 38.6569C112.538 39.0474 112.538 39.6805 112.929 40.0711C113.319 40.4616 113.953 40.4616 114.343 40.0711L120.707 33.7071ZM80 34L120 34L120 32L80 32L80 34Z" fill="#E1A0F8"/>
<path d="M79.2929 184.293C78.9024 184.683 78.9024 185.317 79.2929 185.707L85.6569 192.071C86.0474 192.462 86.6805 192.462 87.0711 192.071C87.4616 191.681 87.4616 191.047 87.0711 190.657L81.4142 185L87.0711 179.343C87.4616 178.953 87.4616 178.319 87.0711 177.929C86.6805 177.538 86.0474 177.538 85.6569 177.929L79.2929 184.293ZM120.707 185.707C121.098 185.317 121.098 184.683 120.707 184.293L114.343 177.929C113.953 177.538 113.319 177.538 112.929 177.929C112.538 178.319 112.538 178.953 112.929 179.343L118.586 185L112.929 190.657C112.538 191.047 112.538 191.681 112.929 192.071C113.319 192.462 113.953 192.462 114.343 192.071L120.707 185.707ZM80 186L120 186L120 184L80 184L80 186Z" fill="#19CD77"/>
<path d="M79.2929 260.293C78.9024 260.683 78.9024 261.317 79.2929 261.707L85.6569 268.071C86.0474 268.462 86.6805 268.462 87.0711 268.071C87.4616 267.681 87.4616 267.047 87.0711 266.657L81.4142 261L87.0711 255.343C87.4616 254.953 87.4616 254.319 87.0711 253.929C86.6805 253.538 86.0474 253.538 85.6569 253.929L79.2929 260.293ZM120.707 261.707C121.098 261.317 121.098 260.683 120.707 260.293L114.343 253.929C113.953 253.538 113.319 253.538 112.929 253.929C112.538 254.319 112.538 254.953 112.929 255.343L118.586 261L112.929 266.657C112.538 267.047 112.538 267.681 112.929 268.071C113.319 268.462 113.953 268.462 114.343 268.071L120.707 261.707ZM80 262L120 262L120 260L80 260L80 262Z" fill="#E8D71E"/>
<path d="M79.2929 335.293C78.9024 335.683 78.9024 336.317 79.2929 336.707L85.6569 343.071C86.0474 343.462 86.6805 343.462 87.0711 343.071C87.4616 342.681 87.4616 342.047 87.0711 341.657L81.4142 336L87.0711 330.343C87.4616 329.953 87.4616 329.319 87.0711 328.929C86.6805 328.538 86.0474 328.538 85.6569 328.929L79.2929 335.293ZM120.707 336.707C121.098 336.317 121.098 335.683 120.707 335.293L114.343 328.929C113.953 328.538 113.319 328.538 112.929 328.929C112.538 329.319 112.538 329.953 112.929 330.343L118.586 336L112.929 341.657C112.538 342.047 112.538 342.681 112.929 343.071C113.319 343.462 113.953 343.462 114.343 343.071L120.707 336.707ZM80 337L120 337L120 335L80 335L80 337Z" fill="#63B4EF"/>
</svg>
